<svg xmlns="http://www.w3.org/2000/svg" xmlns:xlink="http://www.w3.org/1999/xlink" xml:space="preserve" width="128" height="128" style="display:inline" viewBox="0 0 128 128"><title>Adwaita Icon Template</title><defs><linearGradient xlink:href="#a" id="b" x1="48" x2="464" y1="44" y2="44" gradientTransform="matrix(.25 0 0 .25 0 53)" gradientUnits="userSpaceOnUse"/><linearGradient id="a"><stop offset="0" style="stop-color:#2b2b2b;stop-opacity:1"/><stop offset=".042" style="stop-color:#686466;stop-opacity:1"/><stop offset=".083" style="stop-color:#2b2b2b;stop-opacity:1"/><stop offset=".917" style="stop-color:#2b2b2b;stop-opacity:1"/><stop offset=".958" style="stop-color:#686466;stop-opacity:1"/><stop offset="1" style="stop-color:#2b2b2b;stop-opacity:1"/></linearGradient></defs><rect width="104" height="84" x="12" y="32" rx="8" ry="8" style="display:inline;fill:url(#b);fill-opacity:1;stroke:none;stroke-width:.25;stroke-linecap:butt;stroke-linejoin:miter;stroke-miterlimit:4;stroke-dasharray:none;stroke-dashoffset:0;stroke-opacity:1;marker:none;marker-start:none;marker-mid:none;marker-end:none;paint-order:normal"/><rect width="104" height="100" x="12" y="12" rx="8" ry="8" style="display:inline;fill:#1f1f1f;fill-opacity:1;stroke:none;stroke-width:.25;stroke-linecap:butt;stroke-linejoin:miter;stroke-miterlimit:4;stroke-dasharray:none;stroke-dashoffset:0;stroke-opacity:1;marker:none;marker-start:none;marker-mid:none;marker-end:none;paint-order:normal"/><path d="M64 47.5A14.5 14.5 0 0 0 49.5 62 14.5 14.5 0 0 0 64 76.5 14.5 14.5 0 0 0 78.5 62 14.5 14.5 0 0 0 64 47.5m0 2.5a12 12 0 0 1 12 12 12 12 0 0 1-12 12 12 12 0 0 1-12-12 12 12 0 0 1 12-12m0-13.5A25.5 25.5 0 0 0 38.5 62 25.5 25.5 0 0 0 64 87.5 25.5 25.5 0 0 0 89.5 62 25.5 25.5 0 0 0 64 36.5m0 4.5a21 21 0 0 1 21 21 21 21 0 0 1-21 21 21 21 0 0 1-21-21 21 21 0 0 1 21-21m0-17.5A38.5 38.5 0 0 0 25.5 62 38.5 38.5 0 0 0 64 100.5 38.5 38.5 0 0 0 102.5 62 38.5 38.5 0 0 0 64 23.5m0 7A31.5 31.5 0 0 1 95.5 62 31.5 31.5 0 0 1 64 93.5 31.5 31.5 0 0 1 32.5 62 31.5 31.5 0 0 1 64 30.5" style="fill:#f1eee2;stroke-width:4.32528"/></svg>