<svg xmlns="http://www.w3.org/2000/svg" width="128" height="128" viewBox="0 0 128 128"><linearGradient id="a" x1="12" x2="116" y1="64" y2="64" gradientUnits="userSpaceOnUse"><stop offset="0" stop-color="#3d3846"/><stop offset=".05" stop-color="#77767b"/><stop offset=".1" stop-color="#5e5c64"/><stop offset=".9" stop-color="#504e56"/><stop offset=".95" stop-color="#77767b"/><stop offset="1" stop-color="#3d3846"/></linearGradient><linearGradient id="b" x1="12" x2="112.041" y1="60" y2="80.988" gradientUnits="userSpaceOnUse"><stop offset="0" stop-color="#77767b"/><stop offset=".384" stop-color="#9a9996"/><stop offset=".721" stop-color="#77767b"/><stop offset="1" stop-color="#68666f"/></linearGradient><path fill="url(#a)" d="M20 22h88a8 8 0 0 1 8 8v78a8 8 0 0 1-8 8H20a8 8 0 0 1-8-8V30a8 8 0 0 1 8-8m0 0"/><path fill="url(#b)" d="M20 12h88a8 8 0 0 1 8 8v80a8 8 0 0 1-8 8H20a8 8 0 0 1-8-8V20a8 8 0 0 1 8-8m0 0"/><path fill="#241f31" d="M20 14h88c3.313 0 6 2.688 6 6v80c0 3.313-2.687 6-6 6H20c-3.312 0-6-2.687-6-6V20c0-3.312 2.688-6 6-6m0 0"/><path d="M64 25c-19.331 0-35 15.669-35 35s15.669 35 35 35 35-15.669 35-35-15.669-35-35-35m16.618 39.748c-.339 1.357-.882 2.442-1.628 3.324-.678.881-1.356 1.424-2.102 1.695a6.6 6.6 0 0 1-2.307.407c-.814 0-1.492-.135-2.034-.474-.543-.272-.95-.747-1.29-1.29-.338-.542-.542-1.22-.678-1.966a13.7 13.7 0 0 1-.203-2.442c0-.34 0-.678.068-1.153s.136-1.085.203-1.085h-.135c-1.086 2.713-2.578 4.68-4.477 6.24s-4.002 2.306-6.308 2.306c-1.56 0-2.849-.61-3.73-1.763-.95-1.154-1.425-2.917-1.425-5.223 0-.34 0-.679.068-1.086.068-.339.068-.474.135-1.153h-.474c-.61 1.357-1.154 3.256-1.56 4.952-.408 1.696-.747 3.256-.95 4.68-.271 1.424-.407 2.713-.543 3.799-.135 1.085-.203 1.83-.271 2.238.068.339.136.678.203 1.085.136.407.204.814.34 1.153.135.34.203.746.27 1.086.069.339.136.61.136.813 0 .95-.203 1.696-.61 2.171s-.882.746-1.357.746c-.61 0-1.153-.203-1.56-.542-.474-.407-.678-1.018-.678-1.832 0-1.153.204-2.645.61-4.409.408-1.763 1.018-4.002 1.764-6.647.407-1.221.746-2.442 1.153-3.663s.746-2.374 1.085-3.391c.34-1.018.61-1.967.882-2.781s.407-1.425.475-1.9c.068-.203.136-.678.204-1.356s.135-1.425.27-2.306c.137-.882.204-1.832.34-2.781.136-1.018.271-1.9.34-2.714.135-.61.203-1.288.338-2.034.136-.747.34-1.493.61-2.103.272-.678.68-1.221 1.154-1.696.475-.475 1.085-.678 1.831-.678.814 0 1.357.271 1.628.746s.407 1.085.34 1.763c-.069.679-.136 1.425-.34 2.171a23 23 0 0 1-.61 1.967c-.543 1.696-1.086 3.256-1.696 4.545-.61 1.288-1.153 2.713-1.628 4.205a7.5 7.5 0 0 0-.543 2.781c0 1.492.475 2.578 1.357 3.392.95.814 2.035 1.153 3.324 1.153 1.017 0 2.035-.34 2.984-1.086a16.3 16.3 0 0 0 2.646-2.645 15 15 0 0 0 2.034-3.324c.543-1.153.95-2.238 1.221-3.12.068-.135.136-.407.204-.95.135-.542.203-1.152.339-1.83s.271-1.357.407-2.103.271-1.357.34-1.832c.135-.542.203-1.085.338-1.763.136-.679.34-1.29.61-1.9.272-.61.679-1.085 1.086-1.492.475-.407 1.017-.61 1.764-.61.881 0 1.424.271 1.763.746.271.475.407 1.085.407 1.763-.068.679-.136 1.357-.34 2.035-.203.679-.338 1.221-.474 1.628a68 68 0 0 1-1.628 4.545c-.542 1.356-1.017 2.577-1.492 3.527-.407 1.017-.746 1.763-1.017 2.374q-.407.915-.407 1.22c0 1.764.407 3.053 1.153 3.8.746.745 1.56 1.152 2.442 1.152 1.492 0 2.645-.474 3.527-1.356.881-.95 1.56-2.646 1.967-4.68h.542c.136 1.967-.068 3.594-.407 4.951z" style="fill:#2e3192;stroke-width:.678294"/></svg>