<svg xmlns="http://www.w3.org/2000/svg" xmlns:xlink="http://www.w3.org/1999/xlink" width="128" height="128"><defs><linearGradient id="q"><stop offset="0" style="stop-color:#7e0c3b;stop-opacity:1"/><stop offset="1" style="stop-color:#a6026d;stop-opacity:1"/></linearGradient><linearGradient id="m"><stop offset="0" style="stop-color:#41116e;stop-opacity:1"/><stop offset="1" style="stop-color:#54116f;stop-opacity:1"/></linearGradient><linearGradient id="o"><stop offset="0" style="stop-color:#0f1367;stop-opacity:1"/><stop offset="1" style="stop-color:#101d93;stop-opacity:1"/></linearGradient><linearGradient id="n"><stop offset="0" style="stop-color:#03234f;stop-opacity:1"/><stop offset="1" style="stop-color:#01517e;stop-opacity:1"/></linearGradient><linearGradient id="s"><stop offset="0" style="stop-color:#004356;stop-opacity:1"/><stop offset="1" style="stop-color:#017b89;stop-opacity:1"/></linearGradient><linearGradient id="l"><stop offset="0" style="stop-color:#060;stop-opacity:1"/><stop offset="1" style="stop-color:#017501;stop-opacity:1"/></linearGradient><linearGradient id="k"><stop offset="0" style="stop-color:#1a5b01;stop-opacity:1"/><stop offset="1" style="stop-color:#6c8901;stop-opacity:1"/></linearGradient><linearGradient id="r"><stop offset="0" style="stop-color:#947000;stop-opacity:1"/><stop offset="1" style="stop-color:#a39100;stop-opacity:1"/></linearGradient><linearGradient id="p"><stop offset="0" style="stop-color:#895101;stop-opacity:1"/><stop offset="1" style="stop-color:#c29700;stop-opacity:1"/></linearGradient><linearGradient id="t"><stop offset="0" style="stop-color:#a22c02;stop-opacity:1"/><stop offset="1" style="stop-color:#bc7401;stop-opacity:1"/></linearGradient><linearGradient xlink:href="#a" id="G" x1="89.694" x2="77.582" y1="102.901" y2="85.401" gradientTransform="matrix(1.48502 0 0 1.46027 -37.805 -39.221)" gradientUnits="userSpaceOnUse"/><linearGradient id="a"><stop offset="0" style="stop-color:#38c102;stop-opacity:1"/><stop offset="1" style="stop-color:#bced02;stop-opacity:1"/></linearGradient><linearGradient xlink:href="#b" id="H" x1="69.426" x2="69.426" y1="109.566" y2="87.778" gradientTransform="matrix(1.48502 0 0 1.46027 -37.805 -39.221)" gradientUnits="userSpaceOnUse"/><linearGradient id="b"><stop offset="0" style="stop-color:#009a01;stop-opacity:1"/><stop offset="1" style="stop-color:#01d901;stop-opacity:1"/></linearGradient><linearGradient xlink:href="#c" id="I" x1="35.142" x2="51.941" y1="47.984" y2="60.841" gradientTransform="matrix(1.48502 0 0 1.46027 -37.805 -39.221)" gradientUnits="userSpaceOnUse"/><linearGradient id="c"><stop offset="0" style="stop-color:#5a1898;stop-opacity:1"/><stop offset="1" style="stop-color:#971ec6;stop-opacity:1"/></linearGradient><linearGradient xlink:href="#d" id="J" x1="35.907" x2="51.054" y1="92.042" y2="77.181" gradientTransform="matrix(1.48502 0 0 1.46027 -37.805 -39.221)" gradientUnits="userSpaceOnUse"/><linearGradient id="d"><stop offset="0" style="stop-color:#053980;stop-opacity:1"/><stop offset="1" style="stop-color:#0293e4;stop-opacity:1"/></linearGradient><linearGradient xlink:href="#e" id="K" x1="28.166" x2="49.507" y1="69.663" y2="69.663" gradientTransform="matrix(1.48502 0 0 1.46027 -37.805 -39.221)" gradientUnits="userSpaceOnUse"/><linearGradient id="e"><stop offset="0" style="stop-color:#151b92;stop-opacity:1"/><stop offset="1" style="stop-color:#1526c3;stop-opacity:1"/></linearGradient><linearGradient xlink:href="#f" id="L" x1="104.454" x2="85.539" y1="50.127" y2="58.698" gradientTransform="matrix(1.48502 0 0 1.46027 -37.805 -39.221)" gradientUnits="userSpaceOnUse"/><linearGradient id="f"><stop offset="0" style="stop-color:#f18e01;stop-opacity:1"/><stop offset="1" style="stop-color:#ffd02b;stop-opacity:1"/></linearGradient><linearGradient xlink:href="#g" id="M" x1="48.471" x2="59.551" y1="35.151" y2="52.829" gradientTransform="matrix(1.48502 0 0 1.46027 -37.805 -39.221)" gradientUnits="userSpaceOnUse"/><linearGradient id="g"><stop offset="0" style="stop-color:#d91566;stop-opacity:1"/><stop offset="1" style="stop-color:#fc12aa;stop-opacity:1"/></linearGradient><linearGradient xlink:href="#h" id="N" x1="108.907" x2="87.603" y1="70.388" y2="70.388" gradientTransform="matrix(1.48502 0 0 1.46027 -37.805 -39.221)" gradientUnits="userSpaceOnUse"/><linearGradient id="h"><stop offset="0" style="stop-color:#f8bc00;stop-opacity:1"/><stop offset="1" style="stop-color:#ffe309;stop-opacity:1"/></linearGradient><linearGradient xlink:href="#i" id="O" x1="49.885" x2="58.13" y1="103.258" y2="86.116" gradientTransform="matrix(1.48502 0 0 1.46027 -37.805 -39.221)" gradientUnits="userSpaceOnUse"/><linearGradient id="i"><stop offset="0" style="stop-color:#0193be;stop-opacity:1"/><stop offset="1" style="stop-color:#01d4ed;stop-opacity:1"/></linearGradient><linearGradient xlink:href="#j" id="P" x1="90.159" x2="77.582" y1="35.44" y2="53.59" gradientTransform="matrix(1.48502 0 0 1.46027 -37.805 -39.221)" gradientUnits="userSpaceOnUse"/><linearGradient id="j"><stop offset="0" style="stop-color:#fd4c0b;stop-opacity:1"/><stop offset="1" style="stop-color:#feab27;stop-opacity:1"/></linearGradient><linearGradient xlink:href="#k" id="z" x1="89.694" x2="77.582" y1="102.901" y2="85.401" gradientTransform="matrix(1.48502 0 0 1.46027 -37.805 -35.221)" gradientUnits="userSpaceOnUse"/><linearGradient xlink:href="#l" id="E" x1="69.426" x2="69.426" y1="109.566" y2="87.778" gradientTransform="matrix(1.48502 0 0 1.46027 -37.805 -35.221)" gradientUnits="userSpaceOnUse"/><linearGradient xlink:href="#m" id="A" x1="35.142" x2="51.941" y1="47.984" y2="60.841" gradientTransform="matrix(1.48502 0 0 1.46027 -37.805 -35.221)" gradientUnits="userSpaceOnUse"/><linearGradient xlink:href="#n" id="C" x1="35.907" x2="51.054" y1="92.042" y2="77.181" gradientTransform="matrix(1.48502 0 0 1.46027 -37.805 -35.221)" gradientUnits="userSpaceOnUse"/><linearGradient xlink:href="#o" id="B" x1="28.166" x2="49.507" y1="69.663" y2="69.663" gradientTransform="matrix(1.48502 0 0 1.46027 -37.805 -35.221)" gradientUnits="userSpaceOnUse"/><linearGradient xlink:href="#p" id="x" x1="104.454" x2="85.539" y1="50.127" y2="58.698" gradientTransform="matrix(1.48502 0 0 1.46027 -37.805 -35.221)" gradientUnits="userSpaceOnUse"/><linearGradient xlink:href="#q" id="v" x1="48.471" x2="59.551" y1="35.151" y2="52.829" gradientTransform="matrix(1.48502 0 0 1.46027 -37.805 -35.221)" gradientUnits="userSpaceOnUse"/><linearGradient xlink:href="#r" id="y" x1="108.907" x2="87.603" y1="70.388" y2="70.388" gradientTransform="matrix(1.48502 0 0 1.46027 -37.805 -35.221)" gradientUnits="userSpaceOnUse"/><linearGradient xlink:href="#s" id="D" x1="49.885" x2="58.13" y1="103.258" y2="86.116" gradientTransform="matrix(1.48502 0 0 1.46027 -37.805 -35.221)" gradientUnits="userSpaceOnUse"/><linearGradient xlink:href="#t" id="w" x1="90.159" x2="77.582" y1="35.44" y2="53.59" gradientTransform="matrix(1.48502 0 0 1.46027 -37.805 -35.221)" gradientUnits="userSpaceOnUse"/><linearGradient id="u" x1="0" x2="118.926" y1="269.463" y2="269.463" gradientTransform="matrix(1 0 0 .98333 -118 -175.033)" gradientUnits="userSpaceOnUse"><stop offset="0" stop-color="#e5a50a" style="stop-color:#000;stop-opacity:1"/><stop offset=".414" stop-color="#fbdf9b" style="stop-color:#fff;stop-opacity:1"/><stop offset=".813" stop-color="#e5a50a" style="stop-color:#000;stop-opacity:1"/><stop offset="1" stop-color="#f8ca5b" style="stop-color:#b2b2b2;stop-opacity:1"/></linearGradient><linearGradient xlink:href="#u" id="F" x1="-159" x2="-39" y1="84" y2="84" gradientTransform="translate(163 -18)" gradientUnits="userSpaceOnUse"/></defs><path d="M71.143 39.785 79.53 9.01a60 59 0 0 0-31.058 0l8.386 30.775a27.6 27.14 0 0 1 14.286 0" style="color:#000;fill:#a30001;fill-opacity:1;stroke:none;stroke-width:.807163;stroke-miterlimit:4;stroke-dasharray:none;stroke-opacity:.156863"/><path d="m56.857 39.785-.014-4.433L48.47 9.01c-10.173 2.68-19.45 7.947-26.897 15.27l22.91 22.53a27.7 27.7 0 0 1 12.373-7.025" style="color:#000;fill:url(#v);fill-opacity:1;stroke:none;stroke-width:.807163;stroke-miterlimit:4;stroke-dasharray:none;stroke-opacity:.156863"/><path d="m83.516 46.81 22.91-22.53C98.98 16.958 89.702 11.69 79.53 9.01l-8.382 26.318-.003 4.457a27.7 27.7 0 0 1 12.372 7.024" style="color:#000;fill:url(#w);fill-opacity:1;stroke:none;stroke-width:.807163;stroke-miterlimit:4;stroke-dasharray:none;stroke-opacity:.156863"/><path d="m90.66 58.976 31.296-8.246c-2.726-10.004-8.082-19.126-15.53-26.45L83.54 42.35l-.024 4.46a27.04 27.04 0 0 1 7.144 12.166" style="color:#000;fill:url(#x);fill-opacity:1;stroke:none;stroke-width:.807163;stroke-miterlimit:4;stroke-dasharray:none;stroke-opacity:.156863"/><path d="m90.66 73.024 31.296 8.246a58.05 58.05 0 0 0 0-30.54l-31.303 3.78.007 4.466a26.7 26.7 0 0 1 0 14.048" style="color:#000;fill:url(#y);fill-opacity:1;stroke:none;stroke-width:.807163;stroke-miterlimit:4;stroke-dasharray:none;stroke-opacity:.156863"/><path d="m83.516 85.19 22.91 22.53c7.448-7.324 12.804-16.446 15.53-26.45l-.042-4.406-31.254-3.84a27.04 27.04 0 0 1-7.143 12.167z" style="color:#000;fill:#999700;fill-opacity:1;stroke:none;stroke-width:.807163;stroke-miterlimit:4;stroke-dasharray:none;stroke-opacity:.156863"/><path d="m71.143 92.215 8.386 30.775c10.173-2.68 19.45-7.947 26.897-15.27l-.011-4.425-22.899-18.104a27.7 27.7 0 0 1-12.373 7.024" style="color:#000;fill:url(#z);fill-opacity:1;stroke:none;stroke-width:.807163;stroke-miterlimit:4;stroke-dasharray:none;stroke-opacity:.156863"/><path d="M44.484 46.81v-4.444l-22.91-18.085C14.126 31.604 8.77 40.726 6.044 50.73l31.297 8.246a27.04 27.04 0 0 1 7.143-12.167" style="color:#000;fill:url(#A);fill-opacity:1;stroke:none;stroke-width:.807163;stroke-miterlimit:4;stroke-dasharray:none;stroke-opacity:.156863"/><path d="m37.34 58.976.005-4.461-31.3-3.785a58.05 58.05 0 0 0 0 30.54l31.295-8.246a26.7 26.7 0 0 1 0-14.048" style="color:#000;fill:url(#B);fill-opacity:1;stroke:none;stroke-width:.807163;stroke-miterlimit:4;stroke-dasharray:none;stroke-opacity:.156863"/><path d="M37.34 73.024 6.048 76.85l-.003 4.421c2.726 10.004 8.082 19.126 15.53 26.45l22.91-22.53a27.04 27.04 0 0 1-7.143-12.166" style="color:#000;fill:url(#C);fill-opacity:1;stroke:none;stroke-width:.807163;stroke-miterlimit:4;stroke-dasharray:none;stroke-opacity:.156863"/><path d="m44.484 85.19-22.905 18.098-.005 4.431c7.447 7.324 16.724 12.59 26.897 15.27l8.386-30.774a27.7 27.7 0 0 1-12.373-7.024" style="color:#000;fill:url(#D);fill-opacity:1;stroke:none;stroke-width:.807163;stroke-miterlimit:4;stroke-dasharray:none;stroke-opacity:.156863"/><path d="m56.857 92.215-8.379 26.304-.007 4.47a61 61 0 0 0 31.058 0v-4.49l-8.386-26.284a28.05 28.05 0 0 1-14.286 0" style="color:#000;fill:url(#E);fill-opacity:1;stroke:none;stroke-width:.807163;stroke-miterlimit:4;stroke-dasharray:none;stroke-opacity:.156863"/><path d="M61.756 7.04A60 59 0 0 0 48.47 9.01c-10.174 2.68-19.45 7.947-26.897 15.27-7.447 7.324-12.803 16.446-15.53 26.45a58.05 58.05 0 0 0 0 30.539c2.727 10.004 8.083 19.126 15.53 26.45 7.448 7.322 16.723 12.59 26.897 15.27a61 61 0 0 0 31.058 0c10.174-2.68 19.45-7.948 26.897-15.27 7.447-7.324 12.803-16.446 15.53-26.45a58.05 58.05 0 0 0 0-30.54c-2.727-10.003-8.083-19.125-15.53-26.448-7.448-7.324-16.723-12.591-26.897-15.272A60 59 0 0 0 61.756 7.04m.799 31.856a27.6 27.14 0 0 1 8.588.889 27.7 27.7 0 0 1 12.373 7.023 27.05 27.05 0 0 1 7.144 12.168 26.7 26.7 0 0 1 0 14.047 27.05 27.05 0 0 1-7.144 12.168 27.7 27.7 0 0 1-12.373 7.023 28.05 28.05 0 0 1-14.286 0 27.7 27.7 0 0 1-12.373-7.023 27.05 27.05 0 0 1-7.144-12.168 26.7 26.7 0 0 1 0-14.047 27.05 27.05 0 0 1 7.144-12.168 27.7 27.7 0 0 1 12.373-7.023 27.6 27.14 0 0 1 5.698-.89" style="color:#000;opacity:.5;fill:url(#F);fill-opacity:1;stroke:none;stroke-width:.807163;stroke-miterlimit:4;stroke-dasharray:none;stroke-opacity:.156863"/><path d="m83.516 81.19 22.91 22.53a60 59 0 0 0 15.53-26.45L90.66 69.024a27.6 27.14 0 0 1-7.144 12.167" style="color:#000;fill:#fffb00;fill-opacity:1;stroke:none;stroke-width:.807163;stroke-miterlimit:4;stroke-dasharray:none;stroke-opacity:.156863"/><path d="m71.143 88.215 8.386 30.775a60 59 0 0 0 26.897-15.27l-22.91-22.53a27.6 27.14 0 0 1-12.373 7.025" style="color:#000;fill:url(#G);fill-opacity:1;stroke:none;stroke-width:.807163;stroke-miterlimit:4;stroke-dasharray:none;stroke-opacity:.156863"/><path d="M56.857 88.215 48.47 118.99a60 59 0 0 0 31.058 0l-8.386-30.775a27.6 27.14 0 0 1-14.286 0" style="color:#000;fill:url(#H);fill-opacity:1;stroke:none;stroke-width:.807163;stroke-miterlimit:4;stroke-dasharray:none;stroke-opacity:.156863"/><path d="m44.484 42.81-22.91-22.53a60 59 0 0 0-15.53 26.45l31.296 8.246a27.6 27.14 0 0 1 7.144-12.167" style="color:#000;fill:url(#I);fill-opacity:1;stroke:none;stroke-width:.807163;stroke-miterlimit:4;stroke-dasharray:none;stroke-opacity:.156863"/><path d="M37.34 69.024 6.044 77.27a60 59 0 0 0 15.53 26.45l22.91-22.53a27.6 27.14 0 0 1-7.144-12.166" style="color:#000;fill:url(#J);fill-opacity:1;stroke:none;stroke-width:.807163;stroke-miterlimit:4;stroke-dasharray:none;stroke-opacity:.156863"/><path d="M37.34 54.976 6.044 46.73a60 59 0 0 0 0 30.54l31.296-8.246a27.6 27.14 0 0 1 0-14.048" style="color:#000;fill:url(#K);fill-opacity:1;stroke:none;stroke-width:.807163;stroke-miterlimit:4;stroke-dasharray:none;stroke-opacity:.156863"/><path d="m90.66 54.976 31.296-8.246a60 59 0 0 0-15.53-26.45l-22.91 22.53a27.6 27.14 0 0 1 7.144 12.166" style="color:#000;fill:url(#L);fill-opacity:1;stroke:none;stroke-width:.807163;stroke-miterlimit:4;stroke-dasharray:none;stroke-opacity:.156863"/><path d="M56.857 35.785 48.47 5.01a60 59 0 0 0-26.897 15.27l22.91 22.53a27.6 27.14 0 0 1 12.373-7.025" style="color:#000;fill:url(#M);fill-opacity:1;stroke:none;stroke-width:.807163;stroke-miterlimit:4;stroke-dasharray:none;stroke-opacity:.156863"/><path d="M71.143 35.785 79.53 5.01a60 59 0 0 0-31.058 0l8.386 30.775a27.6 27.14 0 0 1 14.286 0" style="color:#000;fill:#ff0b0d;fill-opacity:1;stroke:none;stroke-width:.807163;stroke-miterlimit:4;stroke-dasharray:none;stroke-opacity:.156863"/><path d="m90.66 69.024 31.296 8.246a60 59 0 0 0 0-30.54L90.66 54.976a27.6 27.14 0 0 1 0 14.048" style="color:#000;fill:url(#N);fill-opacity:1;stroke:none;stroke-width:.807163;stroke-miterlimit:4;stroke-dasharray:none;stroke-opacity:.156863"/><path d="m44.484 81.19-22.91 22.53a60 59 0 0 0 26.897 15.27l8.386-30.775a27.6 27.14 0 0 1-12.373-7.024" style="color:#000;fill:url(#O);fill-opacity:1;stroke:none;stroke-width:.807163;stroke-miterlimit:4;stroke-dasharray:none;stroke-opacity:.156863"/><path d="m83.516 42.81 22.91-22.53A60 59 0 0 0 79.53 5.01l-8.386 30.775a27.6 27.14 0 0 1 12.373 7.024" style="color:#000;fill:url(#P);fill-opacity:1;stroke:none;stroke-width:.807163;stroke-miterlimit:4;stroke-dasharray:none;stroke-opacity:.156863"/></svg>