<svg xmlns="http://www.w3.org/2000/svg" xmlns:xlink="http://www.w3.org/1999/xlink" xml:space="preserve" width="128" height="128" viewBox="0 0 128 128"><defs><linearGradient id="c"><stop offset=".85" style="stop-color:#966603;stop-opacity:1"/><stop offset=".967" style="stop-color:#fbbb37;stop-opacity:1"/><stop offset="1" style="stop-color:#966603;stop-opacity:1"/></linearGradient><linearGradient id="b"><stop offset="0" style="stop-color:#966603;stop-opacity:1"/><stop offset=".033" style="stop-color:#fbbb37;stop-opacity:1"/><stop offset=".15" style="stop-color:#966603;stop-opacity:1"/></linearGradient><linearGradient id="a"><stop offset="0" style="stop-color:#1a1a1a;stop-opacity:1"/><stop offset=".013" style="stop-color:#666;stop-opacity:1"/><stop offset=".053" style="stop-color:#1a1a1a;stop-opacity:1"/><stop offset=".408" style="stop-color:gray;stop-opacity:1"/><stop offset=".804" style="stop-color:#1a1a1a;stop-opacity:1"/><stop offset=".946" style="stop-color:#1a1a1a;stop-opacity:1"/><stop offset=".986" style="stop-color:#666;stop-opacity:1"/><stop offset=".999" style="stop-color:#1a1a1a;stop-opacity:1"/></linearGradient><linearGradient xlink:href="#a" id="d" x1="-121.134" x2="-30.314" y1="94.29" y2="94.29" gradientTransform="translate(139.724)" gradientUnits="userSpaceOnUse"/><linearGradient xlink:href="#b" id="f" x1="-109.634" x2="-75.721" y1="115.454" y2="115.454" gradientTransform="translate(139.724)" gradientUnits="userSpaceOnUse"/><linearGradient xlink:href="#c" id="e" x1="-75.721" x2="-41.809" y1="115.454" y2="115.454" gradientTransform="translate(139.724)" gradientUnits="userSpaceOnUse"/></defs><path d="M106.273 79.656c-.963-3.099-2.277-6.713-3.609-10.184 0 0-.765-.094-1.153.018-11.944 3.47-26.422 5.681-37.454 5.548h-.114c-10.971.131-25.35-2.055-37.255-5.49-.455-.132-1.352-.076-1.352-.076-1.332 3.471-2.646 7.085-3.61 10.184-4.592 14.778-3.103 20.894-1.97 21.032 2.43.293 9.461-11.125 9.461-11.125 0 11.603 10.476 29.419 34.465 29.582h.636c23.989-.163 34.465-17.98 34.465-29.582 0 0 7.03 11.418 9.462 11.125 1.132-.138 2.62-6.254-1.972-21.032" style="fill:url(#d);fill-opacity:1;stroke:none;stroke-width:.264786"/><path fill="#faab07" d="M64.003 115.145c9.408 0 18.042.466 23.603-4.237 2.822.844 6.434 2.2 8.714 3.885.939.687 1.473-2.023 1.594-1.387l.001 3.933a1.9 1.9 0 0 1-.24.954c-1.543 2.604-26.475 1.663-33.672.852z" style="fill:url(#e);fill-opacity:1;stroke-width:.264786"/><path fill="#faab07" d="M64.003 115.145c-9.408 0-18.043.466-23.603-4.237-2.823.844-6.435 2.2-8.714 3.885-.54.399-1.346-1.748-1.594-1.364l-.002 3.924c0 .399.113.726.24.94 1.543 2.604 26.474 1.663 33.672.852z" style="fill:url(#f);fill-opacity:1;stroke-width:.264786"/><path fill="#faab07" d="M64.003 114.76c-9.408 0-18.043-3.15-23.603-7.852-2.823.844-6.435 2.2-8.714 3.885-1.95 1.44-1.707 2.907-1.356 3.5 1.544 2.604 26.475 1.663 33.673.852zM64.003 114.76c9.408 0 18.042-3.15 23.603-7.852 2.822.844 6.434 2.2 8.714 3.885 1.95 1.44 1.707 2.907 1.355 3.5-1.543 2.604-26.475 1.663-33.672.852zm0 0" style="stroke-width:.264786"/><path d="M64.057 58.378c15.536-.106 27.986-3.113 32.205-4.266 1.005-.275 1.543-.768 1.543-.768.004-.142.064-2.53.064-3.761C97.87 28.843 88.08 8 64 8c-24.077.001-33.868 20.843-33.868 41.583 0 1.232.06 3.619.064 3.76 0 0 .437.462 1.239.685 3.895 1.084 16.58 4.241 32.509 4.35zM106.273 75.656c-.963-3.099-2.277-6.713-3.609-10.184 0 0-.765-.094-1.153.018-11.944 3.47-26.422 5.681-37.454 5.548h-.114c-10.971.131-25.35-2.055-37.255-5.49-.455-.132-1.352-.076-1.352-.076-1.332 3.471-2.646 7.085-3.61 10.184-4.592 14.778-3.103 20.894-1.97 21.032 2.43.293 9.461-11.125 9.461-11.125 0 11.603 10.476 29.419 34.465 29.582h.636c23.989-.163 34.465-17.98 34.465-29.582 0 0 7.03 11.418 9.462 11.125 1.132-.138 2.62-6.254-1.972-21.032" style="stroke-width:.264786"/><path fill="#fff" d="M55.432 38.642c-3.266.148-6.057-3.574-6.233-8.304-.176-4.733 2.326-8.69 5.592-8.837 3.263-.146 6.053 3.574 6.23 8.306.179 4.733-2.324 8.689-5.589 8.835M78.8 30.338c-.175 4.73-2.966 8.452-6.232 8.304s-5.768-4.102-5.589-8.835c.177-4.732 2.967-8.452 6.23-8.306 3.266.148 5.768 4.104 5.59 8.837" style="stroke-width:.264786"/><path fill="#faab07" d="M84.605 45.322c-.873-1.933-9.663-4.087-20.547-4.087h-.116c-10.884 0-19.674 2.154-20.547 4.087a.65.65 0 0 0-.064.276c0 .14.047.264.12.372.736 1.071 10.497 6.37 20.49 6.37h.117c9.994 0 19.755-5.298 20.49-6.37a.66.66 0 0 0 .12-.374.64.64 0 0 0-.063-.274" style="stroke-width:.264786"/><path d="M59.447 30.408c.15 1.869-.876 3.529-2.286 3.71-1.413.182-2.678-1.186-2.828-3.056-.148-1.87.876-3.53 2.284-3.71 1.415-.183 2.683 1.186 2.83 3.056M68.421 31.032c.289-.517 2.255-3.236 6.325-2.246 1.07.26 1.564.643 1.668.793.155.222.197.539.04.965-.309.845-.948.822-1.301.657-.229-.107-3.064-1.996-5.676.823-.18.194-.501.26-.805.03-.306-.23-.43-.697-.25-1.022" style="stroke-width:.264786"/><path fill="#fff" d="M64.057 70.357h-.114c-7.503.091-16.6-.903-25.41-2.64-.755 4.367-1.21 9.857-.819 16.403.988 16.545 10.814 26.945 25.98 27.096h.617c15.167-.151 24.992-10.551 25.98-27.096.392-6.548-.064-12.036-.818-16.404-8.812 1.738-17.91 2.732-25.416 2.641" style="stroke-width:.264786"/><path fill="#eb1923" d="M42.685 68.973v16.282s7.459 1.504 14.932.463V70.699c-4.734-.267-9.84-.864-14.932-1.726" style="stroke-width:.264786"/><path fill="#eb1923" d="M97.805 53.344s-14.508 4.58-33.748 4.71h-.114c-19.209-.13-33.699-4.695-33.748-4.71l-4.86 12.128c12.155 3.665 27.218 6.026 38.608 5.888h.114c11.39.138 26.452-2.223 38.607-5.888zm0 0" style="stroke-width:.264786"/></svg>