<svg xmlns="http://www.w3.org/2000/svg" xmlns:xlink="http://www.w3.org/1999/xlink" xml:space="preserve" width="128" height="128"><defs><linearGradient id="d"><stop offset="0" style="stop-color:#000;stop-opacity:1"/><stop offset=".016" style="stop-color:#fff;stop-opacity:1"/><stop offset=".07" style="stop-color:#000;stop-opacity:1"/><stop offset=".928" style="stop-color:#000;stop-opacity:1"/><stop offset=".983" style="stop-color:#fff;stop-opacity:1"/><stop offset="1" style="stop-color:#000;stop-opacity:1"/></linearGradient><linearGradient id="c" x1="110.25" x2="496.14" y1="213.3" y2="436.09" gradientUnits="userSpaceOnUse"><stop offset="0" style="stop-color:#a95bc3;stop-opacity:1"/><stop offset="1" style="stop-color:#00a3db;stop-opacity:1"/></linearGradient><linearGradient id="b" x1="110.25" x2="496.14" y1="213.3" y2="436.09" gradientUnits="userSpaceOnUse"><stop offset="0" style="stop-color:#aa5bc3;stop-opacity:1"/><stop offset="1" style="stop-color:#00a3db;stop-opacity:1"/></linearGradient><linearGradient id="a" x1="110.25" x2="496.14" y1="213.3" y2="436.09" gradientUnits="userSpaceOnUse"><stop offset="0" style="stop-color:#aa5cc3"/><stop offset="1" style="stop-color:#00a4dc"/></linearGradient><linearGradient xlink:href="#a" id="i" x1="110.25" x2="496.14" y1="213.3" y2="436.09" gradientTransform="translate(8.995 6.993)scale(.21489)" gradientUnits="userSpaceOnUse"/><linearGradient xlink:href="#a" id="j" x1="110.25" x2="496.14" y1="213.3" y2="436.09" gradientTransform="translate(8.995 6.993)scale(.21489)" gradientUnits="userSpaceOnUse"/><linearGradient xlink:href="#b" id="g" x1="110.25" x2="496.14" y1="213.3" y2="436.09" gradientTransform="translate(8.995 10.993)scale(.21489)" gradientUnits="userSpaceOnUse"/><linearGradient xlink:href="#c" id="e" x1="110.25" x2="496.14" y1="213.3" y2="436.09" gradientTransform="translate(8.995 10.993)scale(.21489)" gradientUnits="userSpaceOnUse"/><linearGradient xlink:href="#d" id="f" x1="-160.359" x2="-60.358" y1="66" y2="66" gradientTransform="translate(174.358)" gradientUnits="userSpaceOnUse"/><linearGradient xlink:href="#d" id="h" x1="-126.944" x2="-93.758" y1="70.903" y2="70.903" gradientTransform="translate(174.358)" gradientUnits="userSpaceOnUse"/></defs><path fill="url(#a)" d="M64.006 16c-13.237 0-55.828 77.23-49.338 90.274s92.25 12.893 98.676 0C119.769 93.38 77.243 16 64.006 16m32.34 78.97c-4.212 8.446-60.404 8.553-64.659 0-4.255-8.552 23.659-59.158 32.319-59.158s36.552 50.692 32.34 59.159" style="fill:url(#e);stroke-width:.214886"/><path fill="url(#a)" d="M64.006 16c-13.237 0-55.828 77.23-49.338 90.274s92.25 12.893 98.676 0C119.769 93.38 77.243 16 64.006 16m32.34 78.97c-4.212 8.446-60.404 8.553-64.659 0-4.255-8.552 23.659-59.158 32.319-59.158s36.552 50.692 32.34 59.159" style="opacity:.4;fill:url(#f);fill-opacity:1;stroke-width:.214886"/><path fill="url(#a)" d="M64.006 54.314c-3.825 0-15.208 17.215-16.585 25.058 0 0-.063 4.347.21 4.897 2.15 4.32 30.622 4.277 32.75 0 .263-.53.216-5.151.216-5.151-1.31-7.76-12.732-24.804-16.591-24.804" style="fill:url(#g);stroke-width:.214886"/><path fill="url(#a)" d="M64.006 54.314c-3.825 0-15.208 17.215-16.585 25.058 0 0-.063 4.347.21 4.897 2.15 4.32 30.622 4.277 32.75 0 .263-.53.216-5.151.216-5.151-1.31-7.76-12.732-24.804-16.591-24.804" style="opacity:.4;fill:url(#h);fill-opacity:1;stroke-width:.214886"/><path fill="url(#a)" d="M64.006 50.314c-4.384 0-18.523 25.636-16.374 29.955 2.148 4.32 30.62 4.277 32.748 0 2.128-4.276-11.969-29.955-16.374-29.955" style="fill:url(#i);stroke-width:.214886"/><path fill="url(#a)" d="M64.006 12c-13.237 0-55.828 77.23-49.338 90.274s92.25 12.893 98.676 0C119.769 89.38 77.243 12 64.006 12m32.34 78.97c-4.212 8.446-60.404 8.553-64.659 0-4.255-8.552 23.659-59.158 32.319-59.158s36.552 50.692 32.34 59.159" style="fill:url(#j);stroke-width:.214886"/></svg>