<svg xmlns="http://www.w3.org/2000/svg" xmlns:xlink="http://www.w3.org/1999/xlink" width="128" height="128" viewBox="0 0 128 128"><defs><linearGradient xlink:href="#a" id="p" x1="-122" x2="-2" y1="193.852" y2="193.852" gradientTransform="matrix(.58333 0 0 .57377 100.167 -43.852)" gradientUnits="userSpaceOnUse"/><linearGradient id="a"><stop offset=".5" style="stop-color:#c6a40f;stop-opacity:1"/><stop offset=".65" style="stop-color:#d2cd0f;stop-opacity:1"/><stop offset=".8" style="stop-color:#c6a40f;stop-opacity:1"/></linearGradient><linearGradient xlink:href="#b" id="o" x1="-122" x2="-2" y1="193.852" y2="193.852" gradientTransform="matrix(.58333 0 0 .57377 100.167 -41.557)" gradientUnits="userSpaceOnUse"/><linearGradient id="b"><stop offset=".5" style="stop-color:#987d0c;stop-opacity:1"/><stop offset=".65" style="stop-color:#a29e0c;stop-opacity:1"/><stop offset=".8" style="stop-color:#987e0b;stop-opacity:1"/></linearGradient><linearGradient id="c"><stop offset="0" style="stop-color:#d1cb0f;stop-opacity:1"/><stop offset="1" style="stop-color:#2c0000;stop-opacity:1"/></linearGradient><linearGradient xlink:href="#d" id="m" x1="-92" x2="-32" y1="127.038" y2="230.962" gradientTransform="matrix(.58333 0 0 .57377 100.167 -43.852)" gradientUnits="userSpaceOnUse"/><linearGradient id="d"><stop offset="0" style="stop-color:#b79f11;stop-opacity:1"/><stop offset="1" style="stop-color:#603204;stop-opacity:1"/></linearGradient><linearGradient xlink:href="#e" id="l" x1="-191.626" x2="-183.848" y1="130.638" y2="130.638" gradientTransform="rotate(45 -72.453 277.721)scale(.6959 .47053)" gradientUnits="userSpaceOnUse"/><linearGradient id="e"><stop offset="0" style="stop-color:#777977;stop-opacity:.99607843"/><stop offset=".5" style="stop-color:#ccd3d3;stop-opacity:1"/><stop offset="1" style="stop-color:#777977;stop-opacity:.99607843"/></linearGradient><linearGradient xlink:href="#e" id="k" x1="-191.626" x2="-183.848" y1="130.638" y2="130.638" gradientTransform="rotate(45 10.29 274.604)scale(.55545 .37556)" gradientUnits="userSpaceOnUse"/><linearGradient xlink:href="#e" id="j" x1="7.751" x2="11.616" y1="89.311" y2="89.311" gradientTransform="rotate(45 25.594 125.596)scale(.57377)" gradientUnits="userSpaceOnUse"/><linearGradient xlink:href="#f" id="i" x1="-92" x2="-32" y1="127.038" y2="230.962" gradientTransform="matrix(.58333 0 0 .57377 100.167 -41.557)" gradientUnits="userSpaceOnUse"/><linearGradient id="f"><stop offset="0" style="stop-color:#311a02;stop-opacity:1"/><stop offset=".41" style="stop-color:#edd440;stop-opacity:1"/><stop offset=".81" style="stop-color:#311a02;stop-opacity:1"/><stop offset="1" style="stop-color:#ebcf28;stop-opacity:1"/></linearGradient><radialGradient xlink:href="#c" id="n" cx="-55.31" cy="159.405" r="48" fx="-55.31" fy="159.405" gradientTransform="rotate(3.784 601.611 1923.484)scale(.96045 .54986)" gradientUnits="userSpaceOnUse"/></defs><linearGradient id="g" x1="12" x2="116" y1="64" y2="64" gradientUnits="userSpaceOnUse"><stop offset="0" stop-color="#3d3846"/><stop offset=".05" stop-color="#77767b"/><stop offset=".1" stop-color="#5e5c64"/><stop offset=".9" stop-color="#504e56"/><stop offset=".95" stop-color="#77767b"/><stop offset="1" stop-color="#3d3846"/></linearGradient><linearGradient id="h" x1="12" x2="112.041" y1="60" y2="80.988" gradientUnits="userSpaceOnUse"><stop offset="0" stop-color="#77767b"/><stop offset=".384" stop-color="#9a9996"/><stop offset=".721" stop-color="#77767b"/><stop offset="1" stop-color="#68666f"/></linearGradient><path fill="url(#g)" d="M20 22h88a8 8 0 0 1 8 8v78a8 8 0 0 1-8 8H20a8 8 0 0 1-8-8V30a8 8 0 0 1 8-8m0 0"/><path fill="url(#h)" d="M20 12h88a8 8 0 0 1 8 8v80a8 8 0 0 1-8 8H20a8 8 0 0 1-8-8V20a8 8 0 0 1 8-8m0 0"/><path fill="#241f31" d="M20 14h88c3.313 0 6 2.688 6 6v80c0 3.313-2.687 6-6 6H20c-3.312 0-6-2.687-6-6V20c0-3.312 2.688-6 6-6m0 0"/><path d="M29 61.062c-.001-6.971 15.67-12.623 35-12.623s35 5.652 35 12.623h-5.793C92.257 56.711 79.426 53.32 64 53.32s-28.257 3.392-29.207 7.743Z" style="fill:#c29e0e;fill-opacity:1;stroke-width:.154095"/><path d="M64 27.295a35 33.852 0 0 0-35 33.853A35 33.852 0 0 0 64 95a35 33.852 0 0 0 35-33.852 35 33.852 0 0 0-35-33.853m0 5.517a29.296 28.336 0 0 1 29.296 28.336A29.296 28.336 0 0 1 64 89.483a29.296 28.336 0 0 1-29.296-28.335A29.296 28.336 0 0 1 64 32.812" style="fill:url(#i);stroke-width:.120744"/><path d="m91.12 30.164 1.569 1.568-55.81 55.809-1.568-1.568z" style="fill:url(#j);stroke-width:.114041"/><path d="m87.75 32.066 3.054 3.055-1.033 1.033-3.055-3.055z" style="fill:url(#k);stroke-width:.091346"/><path d="m38.044 81.098 3.828 3.828-1.334 1.342c-2.68-2.336-3.788-3.876-3.788-3.876z" style="fill:url(#l);stroke-width:.114445"/><path d="M64 25a35 33.852 0 0 0-35 33.852 35 33.852 0 0 0 35 33.853 35 33.852 0 0 0 35-33.853A35 33.852 0 0 0 64 25m0 5.517a29.296 28.336 0 0 1 29.296 28.335A29.296 28.336 0 0 1 64 87.188a29.296 28.336 0 0 1-29.296-28.336A29.296 28.336 0 0 1 64 30.517" style="fill:url(#m);stroke-width:.120744"/><ellipse cx="64" cy="58.852" rx="27.541" ry="26.393" style="fill:url(#n);stroke-width:.157232"/><path d="M89.8 62.903a26.393 27.541 15 0 0-.094-10.388c-.416-.015-.803-.298-1.065-.858-.19-.406-.55-.795-.804-.863-.774-.207-2.156.197-2.484.727-.434.704-1.157.234-1.33-.868-.082-.51-.516-1.227-.964-1.593-.45-.367-.863-.84-.918-1.05-.057-.212-.415-.47-.798-.572-.536-.144-.864.04-1.407.783-.39.532-.748 1.198-.796 1.48-.28 1.625-1.206 1.495-2.585-.36-.732-.985-.87-1.402-.619-1.873.234-.438.174-.727-.218-1.06-.416-.352-.48-.762-.28-1.766.193-.988.119-1.473-.3-1.975-.303-.366-.506-.832-.451-1.036s-.07-.752-.274-1.216c-.418-.946-.4-1.266.082-1.43.64-.215.574-1.066-.19-2.512-.677-1.278-.898-1.47-1.764-1.536-1.542-.118-3.064.353-3.77 1.169-.615.712-.662.716-1.037.084-.217-.364-.4-.937-.407-1.274-.025-.973-.494-.554-1.124 1-.643 1.592-1.359 1.95-1.941.969-.326-.547-.415-.546-1.018.03-1.178 1.125-.963 2.329.232 1.297.768-.664.84-.036.122 1.047-.574.864-.606 1.056-.284 1.743.658 1.411-1.107 2.28-1.904.937-.509-.854-1.391-.874-1.739-.037-.153.37-.712 1.073-1.244 1.564-.53.491-1.008 1.054-1.06 1.248-.053.195-.578.643-1.167.995-1.195.716-1.458 1.22-.871 1.67.705.54 1.149.518 2.318-.115.932-.502 3.212-1.114 3.686-.987.292.078-.266 1.171-.87 1.706a10 10 0 0 0-1.166 1.253c-.282.379-.921.679-1.546.727-.98.073-1.09.175-1.386 1.283l-.323 1.203-2.146-.38c-2.582-.458-3.149-.385-3.596.452-.33.617-1.506 1.054-2.278.847-.206-.055-.582-.662-.836-1.35-.315-.852-.664-1.276-1.099-1.341-.544-.082-.594-.228-.331-.984.169-.487.23-1.394.136-2.013a3.7 3.7 0 0 1 .283-2.104c.339-.731.357-1.005.067-1.082-.215-.058-.543-.434-.732-.836-.463-.991-.913-.754-1.029.547-.073.808-.213 1.093-.57 1.14-.762.1-1.55-.882-1.21-1.506.216-.395.13-.636-.319-.897l-.06-.037a26.393 27.541 15 0 0-1.947 3.283c.656-.525 1.73.255 1.697 1.246-.034 1.023.612 1.034 1.009.02.346-.891 1.508-1.626 1.887-1.196.253.289-.026 1.154-.91 2.82-.398.751-.175 1.397 1.297 3.782.853 1.38 1.106 2.334.864 3.24-.093.347-.114 1.663-.05 2.928.126 2.387-.13 3.24-.887 2.95-1.574-.602-1.807.487-.58 2.692.51.918.843 1.722.74 1.787-.401.25-1.754-.756-2.178-1.623-.539-1.099-1.018-1.274-1.616-.594-.33.371-.811.437-1.801.245l-1.352-.266-.298 1.113q-.057.214-.127.396a26.393 27.541 15 0 0 17.612 19.139c.911-.165 1.405-.005 1.864.5a26.393 27.541 15 0 0 1.502.282 9 9 0 0 0 .216-.76c.305-1.357 1.126-2.369 1.78-2.194.137.037.834-.287 1.546-.72.807-.491 1.455-.68 1.718-.504.239.161.716.081 1.096-.185.37-.259.896-.412 1.167-.34.433.116.562-.153 1.064-2.217l.57-2.35-2.242-.559c-3.927-.978-5.103-.648-4.945 1.379.074.928-.712 2.95-1.326 3.42-.223.17-.904.32-1.516.332-.61.014-1.756.36-2.544.774-1.596.836-2.121.794-3.442-.285-1.154-.94-.832-1.537.556-1.03l1.034.377.087-1.046c.046-.58-.163-1.378-.471-1.793-.438-.591-.465-.82-.122-1.083.24-.184.667-.27.946-.196s.665-.127.86-.446c.195-.32.829-.659 1.411-.752.932-.152 1.183-.075 2.076.631.906.715 1.074.765 1.561.46.446-.28.51-.47.356-1.037-.153-.569-.07-.796.467-1.28.359-.322.752-.948.87-1.39.24-.898.737-1.056 2.139-.68 1.294.346 1.978-.324 2.317-2.265.235-1.347.397-1.614 1.474-2.463.665-.525 2.12-1.246 3.236-1.603s2.289-.75 2.604-.872c.455-.175.802-.008 1.693.811l1.12 1.034.198-1.497c.352-2.662.17-3.268-.703-2.316-.339.371-.459.359-.742-.074-.185-.283-.543-.49-.797-.456-.253.034-.758-.23-1.12-.584-.365-.356-.91-.718-1.217-.809-.955-.283-1.266-2.187-.657-4.052.922-2.826.941-3.071.297-4.335-.805-1.58-1.294-1.886-2.517-1.578-1.186.297-1.871 1.205-2.259 2.993-.347 1.6-.53 1.741-1.446 1.11-.777-.538-.831-1.657-.107-2.211.559-.427.736-2.367.281-3.098-.189-.306-.76-.84-1.267-1.182-.873-.59-.907-.703-.647-2.231.259-1.526.344-1.658 1.587-2.472 1.387-.909 2.256-.892 3.507.06.553.422.605.638.3 1.287-.6 1.286-.289 1.94 1.11 2.315.677.181 1.347.216 1.488.075.14-.14.534-.18.879-.087.345.092.835.041 1.085-.113.365-.226.505-.142.707.428.137.39.144.975.016 1.297-.127.321-.234 1.276-.237 2.121-.008 1.22.128 1.617.669 1.928 1.026.589 1.722 1.54 1.561 2.14-.254.946 1.9 1.544 5.285 1.466.5-.012.895-.307 1.23-.925.273-.5.782-.987 1.134-1.081.35-.093.685-.348.743-.565s.423-.573.811-.79c.391-.22.808-.777.936-1.252.301-1.125 1.057-.942 1.155.28.103 1.29-.938 2.976-1.96 3.177-1.386.272-1.053 1.077.74 1.787 2.219.878 2.658 1.87 1.97 4.438l-.495 1.845 1.002-.598a3.2 3.2 0 0 1 .876-.355M59.049 85.65a26.393 27.541 15 0 1-.25-.028 26.728 27.562 15 0 0 .248.038zm-.25-.028a26.393 27.541 15 0 1-1.252-.253l.022.024a26.728 27.562 15 0 0 1.23.229M86.49 72.11l-.037-.07c-.446-.781-.455-1.096-.058-2.012.693-1.6-.016-1.56-1.296.074-.692.883-1.348 1.394-1.896 1.481-2.646.419-4.114.802-4.34 1.131-.46.665-.05 1.243 1.25 1.767 1.492.6 1.675 1.226.573 1.967-.428.287-.837.74-.908 1.005-.221.827-.706 1.351-1.14 1.235-.23-.061-.856.071-1.395.293-.792.329-1.042.629-1.294 1.571-.31 1.155-.709 1.808-1.868 3.044a26.393 27.541 15 0 0 12.409-11.486m-15.678-40.19a26.728 27.562 15 0 0-.1-.03 26.393 27.541 15 0 0-5.128-.786c-.618.842-.531 1.146.303 1.475.437.173.882.552.993.846.17.454.328.423 1.053-.219.47-.415 1.187-.757 1.593-.757.393-.001.883-.23 1.286-.528M60.05 37.97l.012-.05c.049-.231-.013-.533-.206-.897-.465-.879-1.806-1.124-2.538-.465-.84.755-.762 1.153.304 1.563 1.314.505 2.21.425 2.412-.106zm-5.13 3.518c.064-.274-.045-.624-.362-1.03-.336-.43-.856-.663-1.713-.763-1.055-.122-1.254-.245-1.38-.865-.16-.798-1.157-1.226-1.846-.793-.685.43-.692 1.013-.017 1.405.963.558.665 2.157-.554 2.977-.52.35-.822.67-.67.71.153.042.834-.286 1.511-.727 1.039-.673 1.424-.746 2.454-.47 1.453.39 2.435.16 2.577-.444m-7.721-.315a.3.3 0 0 0 .01-.088c-.01-.146-.158-.247-.446-.325-.292-.078-.547-.352-.567-.609-.027-.333-.342-.499-1.165-.603a26.393 27.541 15 0 0-.905 1.007c.34.127.71.325 1.124.616 1.009.708 1.284.798 1.57.518.216-.214.343-.381.379-.516" style="opacity:.2;fill:#764e07;fill-opacity:1;stroke-width:1.04392"/><path d="M29 63.357C28.999 70.33 44.67 75.98 64 75.98s35-5.651 35-12.623v-2.295l-5.86 2.295c-.95 4.352-13.714 7.744-29.14 7.744s-28.19-3.392-29.14-7.744L29 61.062Z" style="fill:url(#o);stroke-width:.154095"/><path d="M29 61.062c-.001 6.972 15.67 12.623 35 12.623s35-5.651 35-12.623h-5.793c-.95 4.352-13.781 7.744-29.207 7.744s-28.257-3.392-29.207-7.744z" style="fill:url(#p);stroke-width:.154095"/></svg>