<svg xmlns="http://www.w3.org/2000/svg" xmlns:xlink="http://www.w3.org/1999/xlink" width="128" height="128" style="display:inline" viewBox="0 0 128 128"><title>Adwaita Icon Template</title><defs><linearGradient id="d"><stop offset="0" style="stop-color:#000;stop-opacity:1"/><stop offset=".047" style="stop-color:#424048;stop-opacity:1"/><stop offset=".097" style="stop-color:#241f31;stop-opacity:1"/><stop offset=".9" style="stop-color:#241f31;stop-opacity:1"/><stop offset=".95" style="stop-color:#424048;stop-opacity:1"/><stop offset="1" style="stop-color:#000;stop-opacity:1"/></linearGradient><linearGradient id="e"><stop offset="0" style="stop-color:#424048;stop-opacity:1"/><stop offset=".047" style="stop-color:#f6f5f4;stop-opacity:1"/><stop offset=".097" style="stop-color:#949390;stop-opacity:1"/><stop offset=".9" style="stop-color:#d5d3cf;stop-opacity:1"/><stop offset=".95" style="stop-color:#f6f5f4;stop-opacity:1"/><stop offset="1" style="stop-color:#424048;stop-opacity:1"/></linearGradient><linearGradient xlink:href="#d" id="o" x1="604.041" x2="708.041" y1="-141.422" y2="-141.422" gradientTransform="matrix(.76923 0 0 .44379 -440.647 158.761)" gradientUnits="userSpaceOnUse"/><linearGradient xlink:href="#e" id="p" x1="317.269" x2="421.269" y1="-66.783" y2="-66.783" gradientTransform="matrix(.76923 0 0 .44379 -220.053 117.637)" gradientUnits="userSpaceOnUse"/><linearGradient xlink:href="#f" id="n" x1="280" x2="280" y1="172" y2="20" gradientUnits="userSpaceOnUse"/><linearGradient id="f"><stop offset="0" style="stop-color:#babdb6;stop-opacity:1"/><stop offset="1" style="stop-color:#babdb6;stop-opacity:0"/></linearGradient><linearGradient id="j"><stop offset="0" style="stop-color:#c0bfbc;stop-opacity:1"/><stop offset="1" style="stop-color:#f6f5f4;stop-opacity:1"/></linearGradient><linearGradient xlink:href="#d" id="q" x1="604.041" x2="708.041" y1="-141.422" y2="-141.422" gradientTransform="matrix(.76923 0 0 .44379 -440.647 142.761)" gradientUnits="userSpaceOnUse"/><linearGradient xlink:href="#e" id="r" x1="317.269" x2="421.269" y1="-66.783" y2="-66.783" gradientTransform="matrix(.76923 0 0 .44379 -220.053 101.637)" gradientUnits="userSpaceOnUse"/><linearGradient xlink:href="#d" id="s" x1="604.041" x2="708.041" y1="-141.422" y2="-141.422" gradientTransform="matrix(.76923 0 0 .44379 -440.647 126.761)" gradientUnits="userSpaceOnUse"/><linearGradient xlink:href="#e" id="t" x1="317.269" x2="421.269" y1="-66.783" y2="-66.783" gradientTransform="matrix(.76923 0 0 .44379 -220.053 85.637)" gradientUnits="userSpaceOnUse"/><linearGradient xlink:href="#d" id="u" x1="604.041" x2="708.041" y1="-141.422" y2="-141.422" gradientTransform="matrix(.76923 0 0 .44379 -440.647 110.761)" gradientUnits="userSpaceOnUse"/><linearGradient xlink:href="#e" id="v" x1="317.269" x2="421.269" y1="-66.783" y2="-66.783" gradientTransform="matrix(.76923 0 0 .44379 -220.053 69.637)" gradientUnits="userSpaceOnUse"/><linearGradient xlink:href="#j" id="w" x1="66.918" x2="66.918" y1="-62.653" y2="-30.327" gradientTransform="translate(-1.973 75.75)" gradientUnits="userSpaceOnUse"/></defs><ellipse cx="64" cy="96" rx="40" ry="23.077" style="display:inline;fill:url(#o);fill-opacity:1;stroke-width:.240835;stroke-linejoin:bevel;stroke-miterlimit:3.3;paint-order:stroke fill markers"/><ellipse cx="64" cy="88" rx="40" ry="23.077" style="display:inline;fill:url(#p);fill-opacity:1;stroke-width:.240835;stroke-linejoin:bevel;stroke-miterlimit:3.3;paint-order:stroke fill markers"/><ellipse cx="64" cy="82" rx="40" ry="23.077" style="fill:#fff;stroke-width:.240835;stroke-linejoin:bevel;stroke-miterlimit:3.3;paint-order:stroke fill markers"/><ellipse cx="64" cy="80" rx="40" ry="23.077" style="display:inline;fill:url(#q);fill-opacity:1;stroke-width:.240835;stroke-linejoin:bevel;stroke-miterlimit:3.3;paint-order:stroke fill markers"/><ellipse cx="64" cy="72" rx="40" ry="23.077" style="display:inline;fill:url(#r);fill-opacity:1;stroke-width:.240835;stroke-linejoin:bevel;stroke-miterlimit:3.3;paint-order:stroke fill markers"/><ellipse cx="64" cy="66" rx="40" ry="23.077" style="fill:#fff;stroke-width:.240835;stroke-linejoin:bevel;stroke-miterlimit:3.3;paint-order:stroke fill markers"/><ellipse cx="64" cy="64" rx="40" ry="23.077" style="display:inline;fill:url(#s);fill-opacity:1;stroke-width:.240835;stroke-linejoin:bevel;stroke-miterlimit:3.3;paint-order:stroke fill markers"/><ellipse cx="64" cy="56" rx="40" ry="23.077" style="display:inline;fill:url(#t);fill-opacity:1;stroke-width:.240835;stroke-linejoin:bevel;stroke-miterlimit:3.3;paint-order:stroke fill markers"/><ellipse cx="64" cy="50" rx="40" ry="23.077" style="fill:#fff;stroke-width:.240835;stroke-linejoin:bevel;stroke-miterlimit:3.3;paint-order:stroke fill markers"/><ellipse cx="64" cy="48" rx="40" ry="23.077" style="display:inline;fill:url(#u);fill-opacity:1;stroke-width:.240835;stroke-linejoin:bevel;stroke-miterlimit:3.3;paint-order:stroke fill markers"/><ellipse cx="64" cy="40" rx="40" ry="23.077" style="display:inline;fill:url(#v);fill-opacity:1;stroke-width:.240835;stroke-linejoin:bevel;stroke-miterlimit:3.3;paint-order:stroke fill markers"/><ellipse cx="64" cy="34" rx="40" ry="23.077" style="fill:#fff;stroke-width:.240835;stroke-linejoin:bevel;stroke-miterlimit:3.3;paint-order:stroke fill markers"/><ellipse cx="64" cy="32" rx="40" ry="23.077" style="display:inline;fill:url(#w);fill-opacity:1;stroke-width:.240835;stroke-linejoin:bevel;stroke-miterlimit:3.3;paint-order:stroke fill markers"/><path d="M56.406 16.523 68.888 29l-2.526 7.573-7.575 2.524-12.454-12.449a19.03 19.03 0 0 0 4.036 20.863 19.05 19.05 0 0 0 18.376 4.89c.05.05.091.108.142.159l31.986 31.974a9.505 9.505 0 0 0 13.468 0 9.496 9.496 0 0 0 0-13.463L82.355 39.097c-.05-.05-.107-.094-.16-.143a19.03 19.03 0 0 0-4.89-18.368c-5.283-5.278-15.415-5.4-20.583-5.745zm47.835 57.913a3.57 3.57 0 0 1 5.05 0 3.57 3.57 0 0 1 0 5.049 3.57 3.57 0 0 1-5.05 0 3.57 3.57 0 0 1 0-5.049" style="display:inline;fill:#47454b;fill-opacity:1;stroke-width:14.282;stroke-linecap:round;stroke-dashoffset:26.4"/><path d="m56.723 14.84 12.481 12.477-2.525 7.573-7.576 2.524L46.65 24.965a19.046 19.04 0 0 0 4.036 20.863 19.046 19.04 0 0 0 18.375 4.89c.05.051.092.108.143.159l31.986 31.974a9.505 9.505 0 0 0 13.468 0 9.496 9.496 0 0 0 0-13.463L82.672 37.414c-.051-.05-.107-.093-.16-.142a19.046 19.04 0 0 0-4.89-18.369 19.046 19.04 0 0 0-20.9-4.062Zm47.834 57.914a3.57 3.57 0 0 1 5.05 0 3.57 3.57 0 0 1 0 5.048 3.57 3.57 0 0 1-5.05 0 3.57 3.57 0 0 1 0-5.048" style="fill:#77767b;fill-opacity:1;stroke-width:14.282;stroke-linecap:round;stroke-dashoffset:26.4"/><rect width="9.521" height="30.944" x="17.705" y="84.908" rx="4.761" ry="4.761" style="display:inline;fill:#47454b;fill-opacity:1;stroke-width:14.282;stroke-linecap:round;stroke-dashoffset:26.4" transform="rotate(-44.99)skewX(.022)"/></svg>