<svg xmlns="http://www.w3.org/2000/svg" xmlns:xlink="http://www.w3.org/1999/xlink" width="128" height="128" viewBox="0 0 128 128"><defs><linearGradient id="b"><stop offset="0" style="stop-color:#011e2d;stop-opacity:1"/><stop offset=".413" style="stop-color:#06a0f4;stop-opacity:1"/><stop offset=".81" style="stop-color:#011e2d;stop-opacity:1"/><stop offset="1" style="stop-color:#0690db;stop-opacity:1"/></linearGradient><linearGradient id="a"><stop offset="0" style="stop-color:#41b3ec;stop-opacity:1"/><stop offset="1" style="stop-color:#0581c4;stop-opacity:1"/></linearGradient><linearGradient xlink:href="#a" id="g" x1="501.603" x2="-2209.773" y1="3335.342" y2="-440.354" gradientTransform="matrix(.00763 0 0 .00738 71.487 50.76)" gradientUnits="userSpaceOnUse"/><linearGradient xlink:href="#b" id="c" x1="9.983" x2="118.017" y1="65.983" y2="65.983" gradientTransform="matrix(1.11076 0 0 1.09224 -7.088 -6.07)" gradientUnits="userSpaceOnUse"/><radialGradient xlink:href="#a" id="f" cx="505.655" cy="726.392" r="146.047" fx="505.655" fy="726.392" gradientTransform="matrix(-.08141 -.17361 .18824 -.08595 -12.591 220.85)" gradientUnits="userSpaceOnUse"/><radialGradient xlink:href="#a" id="e" cx="529.58" cy="728.158" r="146.047" fx="529.58" fy="728.158" gradientTransform="matrix(.10863 .05572 -.07363 .13837 41.346 -59.632)" gradientUnits="userSpaceOnUse"/><radialGradient xlink:href="#a" id="d" cx="523.184" cy="732.085" r="146.047" fx="523.184" fy="732.085" gradientTransform="matrix(-.10562 .10064 -.09285 -.09423 186.998 58.738)" gradientUnits="userSpaceOnUse"/></defs><path fill="#0dbd8b" fill-rule="evenodd" d="M64 125c33.137 0 60-26.415 60-59S97.137 7 64 7 4 33.415 4 66s26.863 59 60 59" clip-rule="evenodd" style="fill:url(#c);fill-opacity:1;stroke-width:.594978"/><path fill="#0dbd8b" fill-rule="evenodd" d="M64 121c33.137 0 60-26.415 60-59S97.137 3 64 3 4 29.415 4 62s26.863 59 60 59" clip-rule="evenodd" style="fill:#222;fill-opacity:1;stroke-width:.594979"/><path d="M64 39.568c-12.276 0-23.405 2.292-31.66 6.14C24.088 49.558 18.353 55.164 18.353 62s5.735 12.444 13.989 16.292 19.383 6.14 31.659 6.14 23.404-2.292 31.658-6.14 13.99-9.455 13.99-16.292-5.736-12.443-13.99-16.291-19.382-6.14-31.658-6.14m0 4.374c11.707 0 22.29 2.24 29.753 5.718C101.215 53.14 105.2 57.656 105.2 62s-3.986 8.86-11.448 12.34C86.29 77.82 75.707 80.059 64 80.059s-22.292-2.24-29.754-5.72C26.783 70.862 22.799 66.345 22.799 62s3.984-8.86 11.447-12.34c7.462-3.479 18.047-5.718 29.754-5.718" style="color:#000;fill:url(#d);stroke-width:.870509;-inkscape-stroke:none"/><path d="M44.174 73.212c6.14 10.417 13.732 18.715 21.262 23.795s15.356 7.14 21.39 3.726c6.036-3.413 8.127-11.081 7.402-20.01s-4.264-19.52-10.404-29.936-13.73-18.714-21.261-23.794-15.356-7.139-21.39-3.726-8.127 11.082-7.402 20.01c.725 8.93 4.264 19.518 10.403 29.935m3.855-2.18c-5.852-9.93-9.162-20.026-9.818-28.095s1.341-13.708 5.191-15.886 9.834-1.051 16.64 3.54c6.804 4.59 14.075 12.447 19.927 22.376s9.163 20.028 9.819 28.096c.655 8.069-1.341 13.709-5.191 15.886-3.85 2.178-9.834 1.052-16.64-3.539-6.804-4.59-14.076-12.449-19.928-22.378" style="color:#000;fill:url(#e);stroke-width:.870506;-inkscape-stroke:none"/><path d="M83.824 73.213c6.139-10.417 9.678-21.007 10.403-29.936.726-8.929-1.366-16.597-7.4-20.01s-13.859-1.353-21.39 3.727c-7.53 5.08-15.123 13.377-21.262 23.794s-9.678 21.006-10.403 29.935c-.726 8.929 1.365 16.596 7.4 20.01 6.034 3.412 13.86 1.353 21.39-3.727S77.684 83.63 83.824 73.213m-3.856-2.18c-5.852 9.93-13.12 17.787-19.926 22.377s-12.79 5.716-16.64 3.538c-3.85-2.177-5.847-7.817-5.192-15.885.656-8.069 3.967-18.165 9.819-28.095S61.152 35.18 67.957 30.589c6.805-4.59 12.79-5.716 16.64-3.538 3.849 2.177 5.847 7.818 5.192 15.886-.656 8.069-3.969 18.166-9.82 28.096" style="color:#000;fill:url(#f);stroke-width:.870506;-inkscape-stroke:none"/><path d="M59.93 47.51v4.207c-.542.011-1.075.022-1.595.022v-.012l-3.71-.001v2.817h.043s.485-.009.967-.013c.24-.003.48-.004.656-.002q.13 0 .204.003l-.01.01h.093c.525 0 .866.15 1.09.358.224.207.332.476.38.73l.003 4.793v6.732a1.03 1.03 0 0 1-.223.526c-.141.163-.363.288-.726.289h-.11l.01.008-.186.003a47 47 0 0 1-.658-.001l-.97-.01-.035-.002-.535 3.14h3.472c.624.002 1.236.011 1.838.016l.004 4.259h2.709l-.002-4.213q1.039.02 2.021.02v4.193h2.713l.001-4.256c2.196-.125 4.07-.457 5.446-1.266 1.385-.814 2.264-2.111 2.457-4.144.156-1.636-.163-2.825-.839-3.679-.663-.837-1.673-1.341-2.902-1.639 1.494-.768 2.442-2.102 2.222-4.3-.151-1.53-.908-2.557-2.05-3.233-1.135-.67-2.65-.994-4.335-1.14v-4.216H64.66l-.001 4.099c-.667 0-1.343.014-2.018.027v-4.126zm4.35 7.195c.634.004 1.341.04 2.006.169.672.13 1.296.355 1.748.73.453.375.74.899.74 1.643 0 .714-.287 1.221-.74 1.59-.453.37-1.076.597-1.748.735-1.33.273-2.827.193-3.582.19V54.73c.377-.001.94-.029 1.575-.025m.317 7.698c.764.005 1.615.046 2.414.189.807.144 1.556.392 2.1.806s.886.99.887 1.809c0 .784-.343 1.344-.887 1.752s-1.293.66-2.1.812c-1.6.304-3.405.217-4.309.216l.002-5.557c.452-.001 1.129-.032 1.893-.027" style="color:#000;fill:url(#g);stroke-width:.870509;-inkscape-stroke:none"/></svg>