<svg xmlns="http://www.w3.org/2000/svg" xmlns:xlink="http://www.w3.org/1999/xlink" width="128" height="128"><defs><linearGradient id="b"><stop offset="0" style="stop-color:#606061;stop-opacity:1"/><stop offset=".04" style="stop-color:#afafb1;stop-opacity:1"/><stop offset=".07" style="stop-color:#5f5f61;stop-opacity:1"/><stop offset=".93" style="stop-color:#5f5f61;stop-opacity:1"/><stop offset=".96" style="stop-color:#afafb1;stop-opacity:1"/><stop offset="1" style="stop-color:#515152;stop-opacity:1"/></linearGradient><linearGradient xlink:href="#b" id="e" x1="-267.886" x2="-211.886" y1="-16.971" y2="-16.971" gradientTransform="translate(509.502 99.231)scale(1.85714)" gradientUnits="userSpaceOnUse"/><linearGradient xlink:href="#c" id="g" x1="88.596" x2="536.596" y1="-449.394" y2="-449.394" gradientTransform="matrix(.1116 0 0 .11409 62.188 163.537)" gradientUnits="userSpaceOnUse"/><linearGradient id="c"><stop offset="0" style="stop-color:#77767b;stop-opacity:1"/><stop offset=".036" style="stop-color:#c0bfbc;stop-opacity:1"/><stop offset=".071" style="stop-color:#9a9996;stop-opacity:1"/><stop offset=".929" style="stop-color:#9a9996;stop-opacity:1"/><stop offset=".964" style="stop-color:#c0bfbc;stop-opacity:1"/><stop offset="1" style="stop-color:#77767b;stop-opacity:1"/></linearGradient><linearGradient id="d"><stop offset="0" style="stop-color:#50dbb5;stop-opacity:1"/><stop offset="1" style="stop-color:#4a86cf;stop-opacity:1"/></linearGradient><radialGradient xlink:href="#d" id="h" cx="106.667" cy="-60.348" r="225" fx="106.667" fy="-60.348" gradientTransform="matrix(.22559 0 0 .1449 58.62 91.778)" gradientUnits="userSpaceOnUse"/><clipPath id="f" clipPathUnits="userSpaceOnUse"><path d="M399.306 389.64h285.156v401.98H399.306zm216.553 258.086a73.976 73.976 0 0 0-73.975-73.975 73.976 73.976 0 0 0-73.976 73.975 73.976 73.976 0 0 0 73.976 73.976 73.976 73.976 0 0 0 73.975-73.976" class="powerclip" style="font-variation-settings:normal;display:block;opacity:1;vector-effect:none;fill:#77767b;fill-opacity:1;stroke:none;stroke-width:5.04302;stroke-linecap:round;stroke-linejoin:miter;stroke-miterlimit:4;stroke-dasharray:none;stroke-dashoffset:0;stroke-opacity:1;marker:none;marker-start:none;marker-mid:none;marker-end:none;paint-order:normal;stop-color:#000;stop-opacity:1"/></clipPath></defs><path d="m45.423 97.429-9.285-9.286H18.876v-65h90.248v65H91.852l-9.286 9.286z" style="fill:#2e2e2f;fill-opacity:1;stroke-width:2.32143"/><path d="M19.429 23.143A7.41 7.41 0 0 0 12 30.57V97.43a7.41 7.41 0 0 0 7.429 7.428h14.857l7.428 7.429h44.572l7.428-7.429h14.857A7.41 7.41 0 0 0 116 97.43V30.57a7.41 7.41 0 0 0-7.429-7.428zm-.552 7.428h90.246v65H91.85l-9.286 9.286H45.421l-9.285-9.286H18.877Z" style="fill:url(#e);fill-opacity:1;stroke-width:1.85714"/><path d="M19.429 15.714A7.41 7.41 0 0 0 12 23.143V90a7.41 7.41 0 0 0 7.429 7.429h14.857l7.428 7.428h44.572l7.428-7.428h14.857A7.41 7.41 0 0 0 116 90V23.143a7.41 7.41 0 0 0-7.429-7.429zm-.552 7.429h90.246v65H91.85l-9.286 9.286H45.421l-9.285-9.286H18.877z" style="fill:#afafb1;stroke-width:1.85714"/><path d="M-199.528 56.066h3.698v4h-3.698z" style="fill:#f8c44e;stroke-width:.961479" transform="matrix(1.85714 0 0 -1.85714 394.935 134.694)"/><path d="M-199.528 52.072h3.698v4h-3.698z" style="fill:#865f06;fill-opacity:1;stroke-width:.961479" transform="matrix(1.85714 0 0 -1.85714 394.935 134.694)"/><path d="M-193.981 56.066h3.698v4h-3.698z" style="fill:#f8c44e;stroke-width:.961479" transform="matrix(1.85714 0 0 -1.85714 394.972 134.694)"/><path d="M-193.981 52.072h3.698v4h-3.698z" style="fill:#865f06;fill-opacity:1;stroke-width:.961479" transform="matrix(1.85714 0 0 -1.85714 394.972 134.694)"/><path d="M-188.434 56.066h3.698v4h-3.698z" style="fill:#f8c44e;stroke-width:.961479" transform="matrix(1.85714 0 0 -1.85714 395.01 134.694)"/><path d="M-188.434 52.072h3.698v4h-3.698z" style="fill:#865f06;fill-opacity:1;stroke-width:.961479" transform="matrix(1.85714 0 0 -1.85714 395.01 134.694)"/><path d="M-182.888 56.066h3.698v4h-3.698z" style="fill:#f8c44e;stroke-width:.961479" transform="matrix(1.85714 0 0 -1.85714 395.046 134.694)"/><path d="M-182.888 52.072h3.698v4h-3.698z" style="fill:#865f06;fill-opacity:1;stroke-width:.961479" transform="matrix(1.85714 0 0 -1.85714 395.046 134.694)"/><path d="M-177.341 56.066h3.698v4h-3.698z" style="fill:#f8c44e;stroke-width:.961479" transform="matrix(1.85714 0 0 -1.85714 395.083 134.694)"/><path d="M-177.341 52.072h3.698v4h-3.698z" style="fill:#865f06;fill-opacity:1;stroke-width:.961479" transform="matrix(1.85714 0 0 -1.85714 395.083 134.694)"/><path d="M-171.656 56.066h3.698v4h-3.698z" style="fill:#f8c44e;stroke-width:.961479" transform="matrix(1.85714 0 0 -1.85714 394.862 134.694)"/><path d="M-171.656 52.072h3.698v4h-3.698z" style="fill:#865f06;fill-opacity:1;stroke-width:.961479" transform="matrix(1.85714 0 0 -1.85714 394.862 134.694)"/><path d="M-166.109 56.066h3.698v4h-3.698z" style="fill:#f8c44e;stroke-width:.961479" transform="matrix(1.85714 0 0 -1.85714 394.899 134.694)"/><path d="M-166.109 52.072h3.698v4h-3.698z" style="fill:#865f06;fill-opacity:1;stroke-width:.961479" transform="matrix(1.85714 0 0 -1.85714 394.899 134.694)"/><path d="M-160.562 56.066h3.698v4h-3.698z" style="fill:#f8c44e;stroke-width:.961479" transform="matrix(1.85714 0 0 -1.85714 394.935 134.694)"/><path d="M-160.562 52.072h3.698v4h-3.698z" style="fill:#865f06;fill-opacity:1;stroke-width:.961479" transform="matrix(1.85714 0 0 -1.85714 394.935 134.694)"/><g clip-path="url(#f)" style="display:inline;stroke-width:1.18792" transform="matrix(.0826 0 0 .08445 52.318 54.924)"><path d="M429.482 475.975h224.804c13.947 0 25.176 10.982 25.176 24.623v261.4c0 13.641-11.229 24.623-25.176 24.623H429.482c-13.948 0-25.176-10.982-25.176-24.623v-261.4c0-13.641 11.228-24.623 25.176-24.623" style="font-variation-settings:normal;opacity:1;vector-effect:none;fill:#9a9996;fill-opacity:1;stroke:none;stroke-width:5.99076;stroke-linecap:round;stroke-linejoin:miter;stroke-miterlimit:4;stroke-dasharray:none;stroke-dashoffset:0;stroke-opacity:1;marker:none;marker-start:none;marker-mid:none;marker-end:none;paint-order:normal;stop-color:#000;stop-opacity:1"/><path d="M404.306 394.64h275.156v310.646H404.306z" style="fill:#818084;fill-opacity:1;stroke-width:1.18792;stroke-linecap:round;stop-color:#000"/></g><rect width="50" height="34.683" x="72.076" y="77.583" rx="4.545" ry="4.545" style="display:inline;vector-effect:none;fill:url(#g);fill-opacity:1;stroke:none;stroke-width:.142045;stroke-linecap:butt;stroke-linejoin:miter;stroke-miterlimit:4;stroke-dasharray:none;stroke-dashoffset:0;stroke-opacity:1;marker:none;marker-start:none;marker-mid:none;marker-end:none;paint-order:normal"/><rect width="50" height="38.636" x="72.076" y="71.357" rx="4.545" ry="4.545" style="display:inline;vector-effect:none;fill:#deddda;fill-opacity:1;stroke:none;stroke-width:.142045;stroke-linecap:butt;stroke-linejoin:miter;stroke-miterlimit:4;stroke-dasharray:none;stroke-dashoffset:0;stroke-opacity:1;marker:none;marker-start:none;marker-mid:none;marker-end:none;paint-order:normal"/><rect width="45.455" height="32.955" x="74.349" y="73.63" rx="2.273" ry="2.273" style="display:inline;vector-effect:none;fill:#241f31;fill-opacity:1;stroke:none;stroke-width:.00641943px;stroke-linecap:butt;stroke-linejoin:miter;stroke-miterlimit:4;stroke-dasharray:none;stroke-dashoffset:0;stroke-opacity:1;marker:none;marker-start:none;marker-mid:none;marker-end:none;paint-order:normal"/><rect width="43.182" height="30.564" x="75.485" y="74.884" rx="1.019" ry="1.019" style="display:inline;vector-effect:none;fill:url(#h);fill-opacity:1;stroke:none;stroke-width:.284091;stroke-linecap:butt;stroke-linejoin:bevel;stroke-miterlimit:4;stroke-dasharray:.284091,.568181;stroke-dashoffset:0;stroke-opacity:.948819;marker:none;marker-start:none;marker-mid:none;marker-end:none;paint-order:normal"/></svg>