<svg xmlns="http://www.w3.org/2000/svg" xmlns:xlink="http://www.w3.org/1999/xlink" xml:space="preserve" width="128" height="128" viewBox="0 0 128 128"><defs><linearGradient id="a" x1="3" x2="93" y1="186.252" y2="186.252" gradientTransform="matrix(1.19998 0 0 -1.19998 181.48 335.864)" gradientUnits="userSpaceOnUse"><stop offset="0" stop-color="#456f2a" style="stop-color:#5e7a42;stop-opacity:1"/><stop offset=".069" stop-color="#456f2a" style="stop-color:#000;stop-opacity:1"/><stop offset=".439" stop-color="#456f2a" style="stop-color:#000;stop-opacity:1"/><stop offset=".5" stop-color="#5c913b" style="stop-color:#5e7a42;stop-opacity:1"/><stop offset=".562" stop-color="#5c913b" style="stop-color:#000;stop-opacity:1"/><stop offset=".928" stop-color="#5c913b" style="stop-color:#000;stop-opacity:1"/><stop offset="1" stop-color="#5c913b" style="stop-color:#5e7a42;stop-opacity:1"/></linearGradient><linearGradient xlink:href="#a" id="b" x1="156" x2="264" y1="82" y2="82" gradientTransform="translate(-146 -16)" gradientUnits="userSpaceOnUse"/><radialGradient id="c" cx="256" cy="128" r="256" gradientTransform="matrix(.43548 0 0 .32661 -47.484 -7.677)" gradientUnits="userSpaceOnUse"><stop offset="0" stop-color="#606060"/><stop offset="1" stop-color="#202020"/></radialGradient></defs><path d="M64 12c-13.035 0-48.48 38.467-54 50v4c0 13.5 40.5 54 54 54s54-40.5 54-54v-4c-5.305-11.613-40.802-50-54-50" style="fill:url(#b);stroke-width:.210938"/><path fill="url(#Gradient_1)" d="M64 8c-2.613 0-7.824 2.374-13.588 6.43s-12.239 9.667-18.277 15.705S20.486 42.648 16.43 48.412 10 59.387 10 62s2.374 7.824 6.43 13.588 9.667 12.239 15.705 18.277 12.513 11.649 18.277 15.705S61.387 116 64 116s7.824-2.374 13.588-6.43 12.239-9.667 18.277-15.705 11.649-12.513 15.705-18.277S118 64.613 118 62s-2.374-7.824-6.43-13.588-9.667-12.239-15.705-18.277S83.352 18.486 77.588 14.43 66.613 8 64 8" style="fill:url(#c);stroke-width:.217742"/><path fill="#abd582" d="M48.813 28.25V62l18.984-12.656L86.78 62 48.812 87.312v8.438L99.439 62 74.125 45.125z" style="stroke-width:.210938"/></svg>