<svg xmlns="http://www.w3.org/2000/svg" xmlns:xlink="http://www.w3.org/1999/xlink" width="128" height="128"><defs><linearGradient id="a" x1="58.666" x2="58.666" y1="117.332" y2="0" gradientTransform="translate(-208.969 8)scale(.91993)" gradientUnits="userSpaceOnUse"><stop offset="0" style="stop-color:#044367;stop-opacity:1"/><stop offset=".411" style="stop-color:#28acf6;stop-opacity:1"/><stop offset=".81" style="stop-color:#044367;stop-opacity:1"/><stop offset="1" style="stop-color:#28abf6;stop-opacity:1"/></linearGradient><linearGradient id="b" x1="58.666" x2="58.666" y1="117.332" y2="0" gradientTransform="matrix(1.02215 0 0 1.00511 4 3)" gradientUnits="userSpaceOnUse"><stop offset="0" style="stop-color:#0882c8"/><stop offset="1" style="stop-color:#26b6db"/></linearGradient><linearGradient xlink:href="#a" id="c" x1="58.666" x2="58.666" y1="0" y2="117.332" gradientTransform="matrix(1.00511 0 0 1.02215 -125 4)" gradientUnits="userSpaceOnUse"/></defs><ellipse cx="-66" cy="64" fill="url(#b)" rx="59" ry="60" style="fill:url(#c);stroke-width:1.01359" transform="rotate(-90)"/><ellipse cx="64" cy="62" fill="url(#b)" rx="60" ry="59" style="fill:url(#b);stroke-width:1.01359"/><path d="m67.225 61.412-50.9 4.701.55 5.975 50.9-4.701zM21.2 61.4c-4.3-2.5-9.8-1.1-12.3 3.1-2.5 4.3-1.1 9.8 3.1 12.3 4.3 2.5 9.8 1.1 12.3-3.1s1.1-9.7-3.1-12.3M60 69.3c2.7 4.2 8.3 5.4 12.4 2.7 4.2-2.7 5.4-8.3 2.7-12.4-2.7-4.2-8.3-5.4-12.4-2.7-4.2 2.6-5.4 8.2-2.7 12.4m9.965-6.609-4.93 3.418 19 27.4 4.93-3.42zM77.6 91c-.4 4.9 3.2 9.3 8.2 9.8 5 .4 9.3-3.2 9.8-8.2.4-4.9-3.2-9.3-8.2-9.8-5-.4-9.4 3.2-9.8 8.2m18.084-53.908-30.1 25 3.832 4.615 30.102-25zM94.7 47.8c4.7 1.6 9.8-.9 11.4-5.6s-.9-9.8-5.6-11.4-9.8.9-11.4 5.6.9 9.8 5.6 11.4m-36-36C32.944 11.8 12 32.744 12 58.5s20.944 46.7 46.7 46.7 46.7-20.943 46.7-46.7c0-25.756-20.944-46.7-46.7-46.7m0 6c22.514 0 40.7 18.187 40.7 40.7S81.214 99.2 58.7 99.2C36.187 99.2 18 81.015 18 58.5c0-22.513 18.187-40.7 40.7-40.7" style="color:#000;fill:#fff;stroke-miterlimit:10;-inkscape-stroke:none" transform="matrix(1.02215 0 0 1.00511 4 3)"/></svg>