<svg xmlns="http://www.w3.org/2000/svg" xmlns:xlink="http://www.w3.org/1999/xlink" xml:space="preserve" width="128" height="128"><defs><linearGradient id="b"><stop offset="0" style="stop-color:#13beec;stop-opacity:1"/><stop offset="1" style="stop-color:#009dd5;stop-opacity:1"/></linearGradient><linearGradient id="a"><stop offset="0" style="stop-color:#0079a3;stop-opacity:1"/><stop offset=".036" style="stop-color:#3dccff;stop-opacity:1"/><stop offset=".073" style="stop-color:#0079a3;stop-opacity:1"/><stop offset=".927" style="stop-color:#0079a3;stop-opacity:1"/><stop offset=".961" style="stop-color:#3dccff;stop-opacity:1"/><stop offset="1" style="stop-color:#0078a3;stop-opacity:1"/></linearGradient><linearGradient xlink:href="#a" id="c" x1="12" x2="116" y1="66" y2="66" gradientUnits="userSpaceOnUse"/><radialGradient xlink:href="#b" id="d" cx="64" cy="62" r="52" fx="64" fy="62" gradientTransform="matrix(1 0 0 .96154 0 2.385)" gradientUnits="userSpaceOnUse"/></defs><rect width="104" height="100" x="12" y="16" rx="8" ry="8" style="display:inline;fill:url(#c);fill-opacity:1;stroke:none;stroke-width:.25;stroke-linecap:butt;stroke-linejoin:miter;stroke-miterlimit:4;stroke-dasharray:none;stroke-dashoffset:0;stroke-opacity:1;marker:none;marker-start:none;marker-mid:none;marker-end:none;paint-order:normal"/><rect width="104" height="100" x="12" y="12" rx="8" ry="8" style="display:inline;fill:url(#d);fill-opacity:1;stroke:none;stroke-width:.25;stroke-linecap:butt;stroke-linejoin:miter;stroke-miterlimit:4;stroke-dasharray:none;stroke-dashoffset:0;stroke-opacity:1;marker:none;marker-start:none;marker-mid:none;marker-end:none;paint-order:normal"/><g style="fill:#fff"><path d="M12.017 96.366h82.6v.4h-82.6z" style="fill:#fff;stroke-width:1.07415;stroke-linecap:round;stroke-linejoin:round"/><path d="M94.617 12v84.766h-.4V12zM26.648 12v84.766h-.4V12ZM52.648 54.371v42.395h-.4V54.37zM42.648 54.371V70.79h-.4V54.371z" style="fill:#fff;stroke-width:1.07415;stroke-linecap:round;stroke-linejoin:round"/><path d="M46.448 64.216v6.573h-.2v-6.573zM44.448 64.216v2.862h-.2v-2.862z" style="fill:#fff;stroke-width:.759539;stroke-linecap:round;stroke-linejoin:round"/><path d="M52.526 64.594h-9.995v-.4h9.995z" style="fill:#fff;stroke-width:1.07415;stroke-linecap:round;stroke-linejoin:round"/><path d="M46.448 67.083h-4.193v-.2h4.193zM52.625 70.784H26.559v-.2h26.066z" style="fill:#fff;stroke-width:.759539;stroke-linecap:round;stroke-linejoin:round"/><path d="M26.45 54.373h68.105v.4H26.45z" style="fill:#fff;stroke-width:1.07415;stroke-linecap:round;stroke-linejoin:round"/></g><path d="M78.773 12c17.063 20.943 18.219 47.324 9.032 63.291-13.655 23.73-41.663 24.09-53.116 13.475-11.521-10.68-8.703-26.161-1.376-31.172 7.405-5.065 15.91-1.543 17.734 3.093 1.868 4.75-.912 8.88-3.621 9.292-2.823.428-4.567-1.674-4.46-3.135.058-.769.436-1.287.907-1.604s1.042-.399 1.389-.293q.022.006.045.01l.029.016c.279.125.514.377.605.66.014.059.002.166-.023.306a.72.72 0 0 1-.242.409c-.23.104-.468.157-.639.09-.05-.026-.128-.103-.24-.21l-.002-.003a.9.9 0 0 1-.178-.375.3.3 0 0 0-.58.15c.054.208.138.441.318.637q.007.007.016.013c.088.083.203.236.42.336l.012.006c.42.172.842.045 1.16-.107l.04-.024c.287-.196.437-.501.503-.793l.002-.013c.026-.145.075-.346.013-.582l-.003-.014a1.7 1.7 0 0 0-.793-.96.37.37 0 0 0-.248-.259c-.627-.191-1.377-.042-2.014.387a2.82 2.82 0 0 0-1.23 2.162c-.153 2.059 2.084 4.41 5.304 3.92 3.334-.507 6.21-5.175 4.197-10.291-2.056-5.23-11.085-8.736-18.838-3.434-7.831 5.357-10.534 21.361 1.291 32.323 11.896 11.025 40.388 10.457 54.258-13.649C97.832 59.345 96.682 32.862 79.523 12Z" style="baseline-shift:baseline;display:inline;overflow:visible;opacity:1;vector-effect:none;fill:#fff;stroke-linecap:round;stroke-linejoin:round;stop-color:#000;stop-opacity:1"/></svg>