<svg xmlns="http://www.w3.org/2000/svg" xmlns:xlink="http://www.w3.org/1999/xlink" xml:space="preserve" width="128" height="128"><defs><linearGradient id="e"><stop offset="0" style="stop-color:#000;stop-opacity:1"/><stop offset=".205" style="stop-color:#544d45;stop-opacity:1"/><stop offset=".515" style="stop-color:#000;stop-opacity:1"/><stop offset="1" style="stop-color:#8c8073;stop-opacity:1"/></linearGradient><linearGradient id="d"><stop offset="0" style="stop-color:#bbb;stop-opacity:1"/><stop offset="1" style="stop-color:#ededed;stop-opacity:1"/></linearGradient><linearGradient id="c"><stop offset="0" style="stop-color:#f7b56e;stop-opacity:1"/><stop offset="1" style="stop-color:#f2840d;stop-opacity:1"/></linearGradient><linearGradient id="a"><stop offset="0" style="stop-color:#2f271e;stop-opacity:1"/><stop offset=".41" style="stop-color:#bab3ab;stop-opacity:1"/><stop offset=".807" style="stop-color:#2f251e;stop-opacity:1"/><stop offset="1" style="stop-color:#aea69d;stop-opacity:1"/></linearGradient><linearGradient id="b"><stop offset="0" style="stop-color:#505050;stop-opacity:1"/><stop offset="1" style="stop-color:#000;stop-opacity:1"/></linearGradient><linearGradient xlink:href="#a" id="g" x1="-112.535" x2="-12.163" y1="55.682" y2="55.682" gradientTransform="translate(129.195 10.679)" gradientUnits="userSpaceOnUse"/><linearGradient xlink:href="#c" id="h" x1="953.275" x2="944.207" y1="350.856" y2="359.924" gradientTransform="rotate(-14.708 199.985 589.047)scale(.22786)" gradientUnits="userSpaceOnUse"/><linearGradient xlink:href="#d" id="i" x1="418.838" x2="428.919" y1="227" y2="216.919" gradientTransform="rotate(-14.708 318.779 35.218)scale(.22786)" gradientUnits="userSpaceOnUse"/><linearGradient xlink:href="#e" id="f" x1="-133.137" x2="-111.899" y1="33.159" y2="33.159" gradientTransform="translate(124.377 36.854)" gradientUnits="userSpaceOnUse"/><radialGradient xlink:href="#b" id="j" cx="450.948" cy="225.395" r="40" fx="450.948" fy="225.395" gradientTransform="rotate(-14.708 209.77 323.275)scale(.37517)" gradientUnits="userSpaceOnUse"/></defs><ellipse cx="1.86" cy="70.012" rx="10.619" ry="13.693" style="fill:url(#f);fill-opacity:1;stroke:none;stroke-width:2.55307;stroke-linecap:round;stroke-linejoin:round" transform="rotate(-11.79)skewX(-.14)"/><path d="M112.959 23.735h.354c.432.07.948.534 1.127 1.059s7.3 36.54-2.86 57.272-32.634 27.008-45.579 26.919c-21.755.318-40.65-7.448-49.34-25.15v-4c5.874 3.42 12.578-5.775 12.725-13.066.048-2.349 3.727-27.895 4.571-29.02.232-.283.571-.139.738.119 3.537 5.527 6.79 8.383 11.564 10.992 7.583 3.276 12.522 4.479 23.71 2.489 11.19-1.99 29.616-8.63 41.699-26.767.463-.595.914-.812 1.293-.855z" style="color:#000;fill:url(#g);stroke-width:4.36624;stroke-linecap:round;-inkscape-stroke:none;paint-order:stroke fill markers"/><path d="M112.959 19.735h.354c.432.07.948.534 1.127 1.059s7.3 36.54-2.86 57.272-32.634 27.008-45.579 26.919c-21.755.318-40.65-7.448-49.34-25.15 9.434-.318 12.572-9.457 12.725-17.066.048-2.349 3.727-27.895 4.571-29.02.232-.283.571-.139.738.119 3.537 5.527 6.79 8.383 11.564 10.992 7.583 3.276 12.522 4.479 23.71 2.489 11.19-1.99 29.616-8.63 41.699-26.767.463-.595.914-.812 1.293-.855z" style="color:#000;fill:#8c8073;fill-opacity:1;stroke-width:4.36624;stroke-linecap:round;-inkscape-stroke:none;paint-order:stroke fill markers"/><ellipse cx="45.98" cy="62.947" rx="12.472" ry="13.974" style="fill:#fff;fill-opacity:1;stroke:none;stroke-width:1.69821;stroke-linecap:round;stroke-linejoin:round"/><ellipse cx="48.67" cy="63.465" rx="7.504" ry="9.122" style="fill:#000;fill-opacity:1;stroke:none;stroke-width:1.75172;stroke-linecap:round;stroke-linejoin:round"/><circle cx="48.697" cy="58.424" r="3.419" style="fill:#fff;fill-opacity:1;stroke:none;stroke-width:1.69245;stroke-linecap:round;stroke-linejoin:round"/><ellipse cx="2.667" cy="66.097" rx="10.619" ry="13.693" style="fill:#000;fill-opacity:1;stroke:none;stroke-width:2.55307;stroke-linecap:round;stroke-linejoin:round" transform="rotate(-11.79)skewX(-.14)"/><circle cx="14.668" cy="57.241" r="5.78" style="fill:#fff;stroke:none;stroke-width:2.6015;stroke-linecap:round;paint-order:stroke fill markers"/><path d="M86.169 82.564c-.763-.53.148-1.357 1.795-1.415.987-.044 2.239.21 3.55.957 3.531 2.017 3.652 4.5 2.493 5.039-.811.375-3.94-1.962-3.94-1.962s-2.28-1.494-3.898-2.62" style="fill:#000;fill-opacity:1;stroke:none;stroke-width:.382825;stroke-linecap:round;stroke-linejoin:round;stroke-dasharray:none"/><path d="M89.635 83.162c-6.958 9.661-17.6 15.488-34.97 13.028-2.267-.301-3.987 2.687 6.344 3.108 12.95.527 24.124-3.334 31.73-13.893z" style="color:#000;fill:#000;stroke-width:4.36624;-inkscape-stroke:none"/><ellipse cx="73.457" cy="62.979" rx="16.373" ry="16.713" style="fill:#fff;fill-opacity:1;stroke:none;stroke-width:1.58752;stroke-linecap:round;stroke-linejoin:round"/><ellipse cx="77.418" cy="63.592" rx="10.138" ry="11.113" style="fill:#000;fill-opacity:1;stroke:none;stroke-width:2.24734;stroke-linecap:round;stroke-linejoin:round"/><ellipse cx="77.417" cy="57.536" rx="4.352" ry="4.353" style="fill:#fff;fill-opacity:1;stroke:none;stroke-width:1.64806;stroke-linecap:round;stroke-linejoin:round"/><path d="m82.464 92.99 30.05 17.554a2.735 2.735 0 1 0 2.759-4.721L89.809 90.948c-2.803-1.362-5.966-.32-7.345 2.042" style="color:#000;font-style:normal;font-variant:normal;font-weight:400;font-stretch:normal;font-size:medium;line-height:normal;font-family:sans-serif;font-variant-ligatures:normal;font-variant-position:normal;font-variant-caps:normal;font-variant-numeric:normal;font-variant-alternates:normal;font-feature-settings:normal;text-indent:0;text-align:start;text-decoration:none;text-decoration-line:none;text-decoration-style:solid;text-decoration-color:#000;letter-spacing:normal;word-spacing:normal;text-transform:none;writing-mode:lr-tb;direction:ltr;text-orientation:mixed;dominant-baseline:auto;baseline-shift:baseline;text-anchor:start;white-space:normal;shape-padding:0;clip-rule:nonzero;display:inline;overflow:visible;visibility:visible;isolation:auto;mix-blend-mode:normal;color-interpolation:sRGB;color-interpolation-filters:linearRGB;solid-color:#000;solid-opacity:1;fill:url(#h);fill-opacity:1;fill-rule:nonzero;stroke:none;stroke-width:.906262;stroke-linecap:round;stroke-linejoin:miter;stroke-miterlimit:4;stroke-dasharray:none;stroke-dashoffset:0;stroke-opacity:1;color-rendering:auto;image-rendering:auto;shape-rendering:auto;text-rendering:auto"/><path d="M97.34 95.529a3.646 3.646 0 0 0-.867 6.7l15.582 9.103a3.646 3.646 0 1 0 3.678-6.297l-15.582-9.102a3.65 3.65 0 0 0-2.81-.404" style="color:#000;font-style:normal;font-variant:normal;font-weight:400;font-stretch:normal;font-size:medium;line-height:normal;font-family:sans-serif;font-variant-ligatures:normal;font-variant-position:normal;font-variant-caps:normal;font-variant-numeric:normal;font-variant-alternates:normal;font-feature-settings:normal;text-indent:0;text-align:start;text-decoration:none;text-decoration-line:none;text-decoration-style:solid;text-decoration-color:#000;letter-spacing:normal;word-spacing:normal;text-transform:none;writing-mode:lr-tb;direction:ltr;text-orientation:mixed;dominant-baseline:auto;baseline-shift:baseline;text-anchor:start;white-space:normal;shape-padding:0;clip-rule:nonzero;display:inline;overflow:visible;visibility:visible;isolation:auto;mix-blend-mode:normal;color-interpolation:sRGB;color-interpolation-filters:linearRGB;solid-color:#000;solid-opacity:1;fill:url(#i);fill-opacity:1;fill-rule:nonzero;stroke:none;stroke-width:1.20835;stroke-linecap:round;stroke-linejoin:miter;stroke-miterlimit:4;stroke-dasharray:none;stroke-dashoffset:0;stroke-opacity:1;color-rendering:auto;image-rendering:auto;shape-rendering:auto;text-rendering:auto"/><path d="M109.354 98.067a9.114 9.114 0 0 0 4.628 17.632l8.816-2.314-2.314-8.816a9.114 9.114 0 0 0-11.13-6.502" style="fill:url(#j);fill-opacity:1;stroke:none;stroke-width:.906262;stroke-linecap:round;stroke-linejoin:miter;stroke-miterlimit:4;stroke-dasharray:none;stroke-dashoffset:0;stroke-opacity:1;marker:none;marker-start:none;marker-mid:none;marker-end:none;paint-order:normal"/><path d="M104.104 111.969q.223.324.457.62l.111.137.09.106a9 9 0 0 0 1.637 1.488c-.663-1.264-2.203-3.543-1.37-4.447.831-.903 3.668 2.855 5.278 1.328s-2.406-4.216-.89-6.104c1.59-1.902 4.754 2.037 5.998-.22 1.055-1.98-3.647-3.803-3.157-5.127.541-1.447 4.296-.346 5.301.181a9.114 9.114 0 0 0-13.455 12.037" style="fill:#8c8073;fill-opacity:1;stroke:none;stroke-width:.906262;stroke-linecap:round;stroke-linejoin:miter;stroke-miterlimit:4;stroke-dasharray:none;stroke-dashoffset:0;stroke-opacity:1;marker:none;marker-start:none;marker-mid:none;marker-end:none;paint-order:normal"/></svg>