<svg xmlns="http://www.w3.org/2000/svg" xmlns:xlink="http://www.w3.org/1999/xlink" width="128" height="128" style="display:inline" viewBox="0 0 128 128"><title>Adwaita Icon Template</title><defs><linearGradient id="d"><stop offset=".429" style="stop-color:#3b393c;stop-opacity:1"/><stop offset=".5" style="stop-color:#7c787d;stop-opacity:1"/><stop offset=".568" style="stop-color:#3b393c;stop-opacity:1"/></linearGradient><linearGradient id="c"><stop offset="0" style="stop-color:#221325;stop-opacity:1"/><stop offset=".414" style="stop-color:#9b59ab;stop-opacity:1"/><stop offset=".809" style="stop-color:#221325;stop-opacity:1"/><stop offset="1" style="stop-color:#7e468b;stop-opacity:1"/></linearGradient><linearGradient id="a"><stop offset="0" style="stop-color:#555357;stop-opacity:1"/><stop offset="1" style="stop-color:#88858a;stop-opacity:1"/></linearGradient><linearGradient xlink:href="#a" id="h" x1="194.482" x2="194.482" y1="105.051" y2="132.106" gradientTransform="matrix(.7173 0 0 1.52682 -76.059 -95.04)" gradientUnits="userSpaceOnUse"/><linearGradient id="b"><stop offset="0" style="stop-color:#5c3566;stop-opacity:1"/><stop offset="1" style="stop-color:#0a060b;stop-opacity:1"/></linearGradient><linearGradient xlink:href="#c" id="f" x1="-81.305" x2="17.164" y1="108.802" y2="108.802" gradientTransform="matrix(1.11538 0 0 1.11539 99.77 -64.876)" gradientUnits="userSpaceOnUse"/><linearGradient xlink:href="#d" id="e" x1="49.382" x2="77.515" y1="89.656" y2="89.656" gradientUnits="userSpaceOnUse"/><radialGradient xlink:href="#b" id="g" cx="68.07" cy="228.863" r="61.383" fx="68.07" fy="228.863" gradientTransform="matrix(.89014 0 0 .7515 3.408 -119.512)" gradientUnits="userSpaceOnUse"/></defs><path d="M63.444 53.308c-3.577 0-7.128 3.87-9.773 8.871s-4.444 11.109-4.279 16.232c.085 2.639.832 6.635 1.922 11.474s2.537 10.41 4.058 15.7c1.522 5.292 3.115 10.298 4.508 14.017.696 1.86 1.339 3.397 1.915 4.505.575 1.108 1.05 1.897 1.649 1.897.593 0 1.075-.764 1.666-1.851.591-1.088 1.256-2.602 1.976-4.438 1.44-3.672 3.092-8.633 4.653-13.93 1.562-5.295 3.031-10.92 4.098-15.917s1.756-9.284 1.671-12.344c-.157-5.696-1.93-11.677-4.512-16.305-2.581-4.63-6-7.91-9.552-7.91" style="color:#000;display:inline;fill:url(#e);stroke:none;stroke-width:1.40673;-inkscape-stroke:none;fill-opacity:1"/><path d="M64 10.004c-30.261 0-54.915 20.747-54.915 46.476 0 22.949 19.613 41.934 45.324 45.77l.126.018s-.108-4.488-.02-4.475c0 0 6.352 5.163 9.485 5.163 2.802 0 8.799-7.767 8.795-5.055l-.006 4.463c0 .031.062-.01.093-.013 26.06-3.59 46.033-22.712 46.033-45.87 0-25.73-24.654-46.477-54.915-46.477" style="color:#000;display:inline;fill:url(#f);fill-opacity:1;fill-rule:evenodd;stroke-width:1.40673;stroke-linejoin:round;-inkscape-stroke:none"/><path d="M64 6.004c-30.262 0-54.915 20.747-54.915 46.476 0 25.73 24.653 46.476 54.915 46.476s54.915-20.746 54.915-46.476S94.262 6.004 64 6.004" style="color:#000;fill:url(#g);fill-rule:evenodd;stroke-width:1.40672;stroke-linejoin:round;-inkscape-stroke:none"/><path d="M48.053 21.058c-11.146 0-20.099 9.618-20.099 21.342 0 11.725 8.953 21.34 20.099 21.34 6.208 0 11.72-3.023 15.39-7.691 3.673 4.671 9.196 7.692 15.407 7.692 11.144 0 20.097-9.617 20.097-21.34 0-11.726-8.953-21.343-20.097-21.343-6.21 0-11.734 3.023-15.406 7.694-3.67-4.667-9.184-7.694-15.391-7.694" style="color:#000;fill:#fff;stroke:none;stroke-width:1.40672;stroke-linecap:round;stroke-linejoin:round;-inkscape-stroke:none"/><path d="M63.444 49.308c-3.577 0-7.128 3.87-9.773 8.871s-4.444 11.109-4.279 16.232c.085 2.639.832 6.635 1.922 11.474s2.537 10.41 4.058 15.7c1.522 5.291 3.115 10.298 4.508 14.017.696 1.86 1.339 3.397 1.915 4.505.575 1.108 1.05 1.897 1.649 1.897.593 0 1.075-.764 1.666-1.851.591-1.088 1.256-2.602 1.976-4.438 1.44-3.672 3.092-8.633 4.653-13.93 1.562-5.295 3.031-10.92 4.098-15.917s1.756-9.284 1.671-12.344c-.157-5.696-1.93-11.677-4.512-16.306-2.581-4.628-6-7.91-9.552-7.91" style="color:#000;fill:url(#h);stroke:none;stroke-width:1.40672;-inkscape-stroke:none"/><path d="M52.196 35.283c-4.172 0-7.585 3.413-7.585 7.586 0 4.172 3.413 7.585 7.585 7.585s7.586-3.413 7.586-7.585-3.414-7.586-7.586-7.586M74.704 35.283c-4.172 0-7.585 3.413-7.585 7.586 0 4.172 3.413 7.585 7.585 7.585s7.586-3.413 7.586-7.585-3.414-7.586-7.586-7.586" style="color:#000;-inkscape-font-specification:sans-serif;fill:#3465a4;stroke-width:.937812;-inkscape-stroke:none"/><path d="M50.556 37.71c-1.16 0-2.111.95-2.111 2.111 0 1.16.95 2.109 2.11 2.109s2.11-.949 2.11-2.109-.95-2.11-2.11-2.11M72.643 37.71c-1.16 0-2.11.95-2.11 2.111 0 1.16.95 2.109 2.11 2.109s2.111-.949 2.111-2.109-.95-2.11-2.11-2.11" style="color:#000;fill:#729fcf;fill-rule:evenodd;stroke-width:.888454;stroke-linejoin:round;-inkscape-stroke:none"/></svg>