<svg xmlns="http://www.w3.org/2000/svg" xmlns:xlink="http://www.w3.org/1999/xlink" width="128" height="128"><defs><linearGradient id="m"><stop offset="0" style="stop-color:#180d2b;stop-opacity:1"/><stop offset=".039" style="stop-color:#3c1d67;stop-opacity:1"/><stop offset=".074" style="stop-color:#180d2b;stop-opacity:1"/><stop offset=".931" style="stop-color:#180d2b;stop-opacity:1"/><stop offset=".96" style="stop-color:#3c1d67;stop-opacity:1"/><stop offset="1" style="stop-color:#180d2b;stop-opacity:1"/></linearGradient><linearGradient xlink:href="#m" id="n" x1="-368.999" x2="-264.999" y1="-12.377" y2="-12.377" gradientTransform="translate(380.999 78.377)" gradientUnits="userSpaceOnUse"/></defs><rect width="104" height="100" x="12" y="16" rx="8" ry="8" style="display:inline;fill:url(#n);fill-opacity:1;stroke:none;stroke-width:.25;stroke-linecap:butt;stroke-linejoin:miter;stroke-miterlimit:4;stroke-dasharray:none;stroke-dashoffset:0;stroke-opacity:1;marker:none;marker-start:none;marker-mid:none;marker-end:none;paint-order:normal;enable-background:new"/><rect width="104" height="100" x="12" y="12" rx="8" ry="8" style="display:inline;fill:#3c1d66;fill-opacity:1;stroke:none;stroke-width:.25;stroke-linecap:butt;stroke-linejoin:miter;stroke-miterlimit:4;stroke-dasharray:none;stroke-dashoffset:0;stroke-opacity:1;marker:none;marker-start:none;marker-mid:none;marker-end:none;paint-order:normal;enable-background:new"/><circle cx="87.293" cy="40.061" r="16.421" fill="#3a3670" style="stroke-width:2.73685"/><path fill="#e6e6e6" d="M99.883 29.525c.55 1.639.86 3.39.86 5.213 0 9.07-7.352 16.421-16.422 16.421-5.058 0-9.576-2.288-12.587-5.884 2.182 6.511 8.318 11.208 15.562 11.208 9.07 0 16.421-7.352 16.421-16.422a16.37 16.37 0 0 0-3.834-10.536" style="stroke-width:2.73685"/><path fill="#462e7a" d="M12 37.207s53.141 2.854 68.905 50.585l-8.2 15.274-36.21-1.702L12 92.861Z" style="stroke-width:2.73685"/><path fill="#ac776d" d="M116 60.473s-33.573-7.316-60.79 34.509l34.752 9.721L116 101.788Z" style="stroke-width:2.73685"/><path fill="#b8ad99" d="M116 75.41s-33.573-7.316-60.79 34.509l60.79-8.337Z" style="stroke-width:2.73685"/><path fill="#574a5c" d="M50.576 93.757S83.158 78.784 116 83.812v20.493H50.316Z" style="stroke-width:2.73685"/><circle cx="27.047" cy="32.91" r="3.385" fill="#e5e5e5" style="stroke-width:2.73685"/><circle cx="33.254" cy="41.266" r="2.176" fill="#e5e5e5" style="stroke-width:2.73685"/><circle cx="57.886" cy="52.213" r="2.176" fill="#e5e5e5" style="stroke-width:2.73685"/><circle cx="38.974" cy="25.414" r="1.773" fill="#e5e5e5" style="stroke-width:2.73685"/><circle cx="29.787" cy="18.78" r="1.289" fill="#e5e5e5" style="stroke-width:2.73685"/><circle cx="37.997" cy="37.938" r="1.289" fill="#e5e5e5" style="stroke-width:2.73685"/><circle cx="43.471" cy="40.675" r="1.289" fill="#e5e5e5" style="stroke-width:2.73685"/><circle cx="40.734" cy="59.832" r="1.289" fill="#e5e5e5" style="stroke-width:2.73685"/><path d="M12 63.836V104a8 8 0 0 0 .162 1.617 8 8 0 0 0 .8 2.203 8 8 0 0 0 3.22 3.217q.34.186.699.338a8 8 0 0 0 2.299.584A8 8 0 0 0 20 112h88a8.1 8.1 0 0 0 2.385-.357 8 8 0 0 0 .736-.268 8 8 0 0 0 1.358-.736 8 8 0 0 0 2.16-2.159 8 8 0 0 0 .734-1.359 8 8 0 0 0 .465-1.504A8 8 0 0 0 116 104V91.441c-28.707 14.944-53.346-4.066-53.346-4.066C29.585 64.566 20.651 64.901 12 63.835" style="stroke-width:2.73684"/></svg>