<svg xmlns="http://www.w3.org/2000/svg" xmlns:xlink="http://www.w3.org/1999/xlink" xml:space="preserve" width="128" height="128" style="display:inline" viewBox="0 0 128 128"><title>Adwaita Icon Template</title><defs><linearGradient id="b"><stop offset="0" style="stop-color:#981311;stop-opacity:1"/><stop offset=".03" style="stop-color:#ea413e;stop-opacity:1"/><stop offset=".073" style="stop-color:#971311;stop-opacity:1"/><stop offset=".929" style="stop-color:#981311;stop-opacity:1"/><stop offset=".96" style="stop-color:#ea413e;stop-opacity:1"/><stop offset="1" style="stop-color:#981311;stop-opacity:1"/></linearGradient><linearGradient id="a"><stop offset="0" style="stop-color:#971211;stop-opacity:1"/><stop offset=".418" style="stop-color:#e9423f;stop-opacity:1"/><stop offset=".808" style="stop-color:#971311;stop-opacity:1"/><stop offset="1" style="stop-color:#e72a27;stop-opacity:1"/></linearGradient><linearGradient xlink:href="#a" id="d" x1="42" x2="86" y1="31.5" y2="31.5" gradientUnits="userSpaceOnUse"/><linearGradient xlink:href="#b" id="c" x1="20" x2="108" y1="64" y2="64" gradientUnits="userSpaceOnUse"/></defs><path d="M108 16.006v95.988c0 4.435-3.925 8.006-8.8 8.006H28.8c-4.875 0-8.8-3.57-8.8-8.006V16.006C20 11.571 23.925 8 28.8 8h70.4c4.875 0 8.8 3.57 8.8 8.006" style="display:inline;vector-effect:none;fill:url(#c);stroke-width:.0118544px;marker:none;marker-start:none;marker-mid:none;marker-end:none;opacity:1;fill-opacity:1"/><path fill="#cdab8f" d="M27.998 8h72.004C104.42 8 108 11.17 108 15.078v31.844c0 3.909-3.58 7.078-7.998 7.078H27.998C23.58 54 20 50.83 20 46.922V15.078C20 11.17 23.58 8 27.998 8m0 0" style="fill:#c61715;fill-opacity:1;stroke-width:.963576"/><path d="M86 31.5C86 37.851 76.15 43 64 43s-22-5.149-22-11.5v-12c0-5.434 12.196.5 22 .5 9.696 0 22-5.913 22-.5z" style="display:inline;fill:url(#d);stroke-width:5.12944;stroke-linecap:round;stroke-linejoin:round"/><path d="M86 19.5A22 11.5 0 0 1 64 31a22 11.5 0 0 1-22-11.5A22 11.5 0 0 1 64 8a22 11.5 0 0 1 22 11.5" style="display:inline;fill:#e72825;stroke-width:5.12944;stroke-linecap:round;stroke-linejoin:round"/></svg>