<svg xmlns="http://www.w3.org/2000/svg" xmlns:xlink="http://www.w3.org/1999/xlink" width="128" height="128" style="display:inline" viewBox="0 0 128 128"><title>Adwaita Icon Template</title><defs><clipPath id="d" clipPathUnits="userSpaceOnUse"><rect width="60" height="28" x="36" y="202" rx="14" ry="14" style="opacity:1;vector-effect:none;fill:#3584e4;fill-opacity:1;stroke:none;stroke-width:.85391253;stroke-linecap:square;stroke-linejoin:round;stroke-miterlimit:4;stroke-dasharray:none;stroke-dashoffset:0;stroke-opacity:1"/></clipPath><clipPath id="e" clipPathUnits="userSpaceOnUse"><rect width="60" height="28" x="36" y="202" rx="14" ry="14" style="opacity:1;vector-effect:none;fill:#3584e4;fill-opacity:1;stroke:none;stroke-width:.853913;stroke-linecap:square;stroke-linejoin:round;stroke-miterlimit:4;stroke-dasharray:none;stroke-dashoffset:0;stroke-opacity:1"/></clipPath><clipPath id="c" clipPathUnits="userSpaceOnUse"><rect width="60" height="28" x="36" y="202" rx="14" ry="14" style="opacity:1;vector-effect:none;fill:#3584e4;fill-opacity:1;stroke:none;stroke-width:.853913;stroke-linecap:square;stroke-linejoin:round;stroke-miterlimit:4;stroke-dasharray:none;stroke-dashoffset:0;stroke-opacity:1"/></clipPath><linearGradient id="a"><stop offset="0" style="stop-color:#5e5c64;stop-opacity:1"/><stop offset=".042" style="stop-color:#77767b;stop-opacity:1"/><stop offset=".083" style="stop-color:#5e5c64;stop-opacity:1"/><stop offset=".917" style="stop-color:#5e5c64;stop-opacity:1"/><stop offset=".958" style="stop-color:#77767b;stop-opacity:1"/><stop offset="1" style="stop-color:#5e5c64;stop-opacity:1"/></linearGradient><linearGradient xlink:href="#a" id="b" x1="48" x2="464" y1="44" y2="44" gradientTransform="matrix(.25 0 0 .25 0 53)" gradientUnits="userSpaceOnUse"/></defs><rect width="104" height="84" x="12" y="32" rx="8" ry="8" style="display:inline;fill:url(#b);fill-opacity:1;stroke:none;stroke-width:.25;stroke-linecap:butt;stroke-linejoin:miter;stroke-miterlimit:4;stroke-dasharray:none;stroke-dashoffset:0;stroke-opacity:1;marker:none;marker-start:none;marker-mid:none;marker-end:none;paint-order:normal"/><rect width="104" height="100" x="12" y="12" rx="8" ry="8" style="display:inline;fill:#77767b;fill-opacity:1;stroke:none;stroke-width:.25;stroke-linecap:butt;stroke-linejoin:miter;stroke-miterlimit:4;stroke-dasharray:none;stroke-dashoffset:0;stroke-opacity:1;marker:none;marker-start:none;marker-mid:none;marker-end:none;paint-order:normal"/><path d="M39.931 26c-7.756 0-14 6.244-14 14 0 .338.028.668.05 1 .512-7.284 6.532-13 13.95-13h48.111a13.956 13.956 0 0 1 13.95 13c.023-.332.05-.662.05-1 0-7.756-6.244-14-14-14z" style="vector-effect:none;fill:#1a5fb4;fill-opacity:1;stroke:none;stroke-width:.853913;stroke-linecap:square;stroke-linejoin:round;stroke-miterlimit:4;stroke-dasharray:none;stroke-dashoffset:0;stroke-opacity:1"/><rect width="76.138" height="28" x="-102.069" y="28" rx="14" ry="14" style="vector-effect:none;fill:#3584e4;fill-opacity:1;stroke:none;stroke-width:.853913;stroke-linecap:square;stroke-linejoin:round;stroke-miterlimit:4;stroke-dasharray:none;stroke-dashoffset:0;stroke-opacity:1" transform="scale(-1 1)"/><g transform="translate(128.964 -51.808)"><path d="M-40.922 77.808c7.756 0 14 6.244 14 14 0 .337-.028.668-.05 1-.512-7.284-6.532-13-13.95-13h-15.455a13.956 13.956 0 0 0-13.95 13c-.023-.332-.05-.663-.05-1 0-7.756 6.244-14 14-14z" style="display:inline;vector-effect:none;fill:#9a9996;fill-opacity:1;stroke:none;stroke-width:.853913;stroke-linecap:square;stroke-linejoin:round;stroke-miterlimit:4;stroke-dasharray:none;stroke-dashoffset:0;stroke-opacity:1"/><rect width="43.398" height="28" x="-70.32" y="79.808" rx="14" ry="14" style="display:inline;vector-effect:none;fill:#c0bfbc;fill-opacity:1;stroke:none;stroke-width:.853913;stroke-linecap:square;stroke-linejoin:round;stroke-miterlimit:4;stroke-dasharray:none;stroke-dashoffset:0;stroke-opacity:1"/></g><path d="M39.931 66c-7.756 0-14 6.244-14 14 0 .338.028.668.05 1 .512-7.284 6.532-13 13.95-13h48.111a13.956 13.956 0 0 1 13.95 13c.023-.332.05-.662.05-1 0-7.756-6.244-14-14-14z" style="display:inline;vector-effect:none;fill:#1a5fb4;fill-opacity:1;stroke:none;stroke-width:.853913;stroke-linecap:square;stroke-linejoin:round;stroke-miterlimit:4;stroke-dasharray:none;stroke-dashoffset:0;stroke-opacity:1"/><rect width="76.138" height="28" x="-102.069" y="68" rx="14" ry="14" style="display:inline;vector-effect:none;fill:#3584e4;fill-opacity:1;stroke:none;stroke-width:.853913;stroke-linecap:square;stroke-linejoin:round;stroke-miterlimit:4;stroke-dasharray:none;stroke-dashoffset:0;stroke-opacity:1" transform="scale(-1 1)"/><circle cx="50" cy="218" r="14" clip-path="url(#c)" style="display:inline;vector-effect:none;fill:#5e5c64;fill-opacity:1;stroke:none;stroke-width:1;stroke-linecap:square;stroke-linejoin:round;stroke-miterlimit:4;stroke-dasharray:none;stroke-dashoffset:0;stroke-opacity:1" transform="matrix(-1 0 0 1 105.931 -134)"/><circle cx="50" cy="218" r="14" clip-path="url(#d)" style="vector-effect:none;fill:#5e5c64;fill-opacity:1;stroke:none;stroke-width:1;stroke-linecap:square;stroke-linejoin:round;stroke-miterlimit:4;stroke-dasharray:none;stroke-dashoffset:0;stroke-opacity:1" transform="matrix(-1 0 0 1 121.931 -174)"/><circle cx="50" cy="218" r="14" clip-path="url(#e)" style="display:inline;vector-effect:none;fill:#5e5c64;fill-opacity:1;stroke:none;stroke-width:1;stroke-linecap:square;stroke-linejoin:round;stroke-miterlimit:4;stroke-dasharray:none;stroke-dashoffset:0;stroke-opacity:1" transform="translate(21.931 -174)"/><path d="M-85.931 38h28v6h-28z" style="vector-effect:none;fill:#5e5c64;fill-opacity:1;stroke:none;stroke-width:.881917;stroke-linecap:square;stroke-linejoin:round;stroke-miterlimit:4;stroke-dasharray:none;stroke-dashoffset:0;stroke-opacity:1" transform="scale(-1 1)"/><circle cx="-71.931" cy="38" r="14" style="vector-effect:none;fill:#fff;fill-opacity:1;stroke:none;stroke-width:.777778;stroke-linecap:square;stroke-linejoin:round;stroke-miterlimit:4;stroke-dasharray:none;stroke-dashoffset:0;stroke-opacity:1" transform="scale(-1 1)"/><path d="M88.069 66c7.756 0 14 6.244 14 14 0 .338-.028.668-.05 1-.512-7.284-6.532-13-13.95-13h-32a13.956 13.956 0 0 0-13.95 13c-.023-.332-.05-.662-.05-1 0-7.756 6.244-14 14-14z" style="vector-effect:none;fill:#9a9996;fill-opacity:1;stroke:none;stroke-width:.853913;stroke-linecap:square;stroke-linejoin:round;stroke-miterlimit:4;stroke-dasharray:none;stroke-dashoffset:0;stroke-opacity:1"/><rect width="60" height="28" x="42.069" y="68" rx="14" ry="14" style="vector-effect:none;fill:#c0bfbc;fill-opacity:1;stroke:none;stroke-width:.853913;stroke-linecap:square;stroke-linejoin:round;stroke-miterlimit:4;stroke-dasharray:none;stroke-dashoffset:0;stroke-opacity:1"/><g style="fill:#5e5c64;fill-opacity:1" transform="translate(5.931 -138)"><circle cx="50" cy="218" r="14" clip-path="url(#d)" style="opacity:1;vector-effect:none;fill:#5e5c64;fill-opacity:1;stroke:none;stroke-width:1;stroke-linecap:square;stroke-linejoin:round;stroke-miterlimit:4;stroke-dasharray:none;stroke-dashoffset:0;stroke-opacity:1" transform="translate(0 4)"/><path d="M36 216h28v6H36z" style="opacity:1;vector-effect:none;fill:#5e5c64;fill-opacity:1;stroke:none;stroke-width:.881917;stroke-linecap:square;stroke-linejoin:round;stroke-miterlimit:4;stroke-dasharray:none;stroke-dashoffset:0;stroke-opacity:1"/></g><circle cx="55.931" cy="78" r="14" style="vector-effect:none;fill:#fff;fill-opacity:1;stroke:none;stroke-width:.777778;stroke-linecap:square;stroke-linejoin:round;stroke-miterlimit:4;stroke-dasharray:none;stroke-dashoffset:0;stroke-opacity:1"/></svg>