<svg xmlns="http://www.w3.org/2000/svg" xmlns:xlink="http://www.w3.org/1999/xlink" width="128" height="128" style="display:inline" viewBox="0 0 128 128"><title>Adwaita Icon Template</title><defs><linearGradient id="e"><stop offset="0" stop-color="#ffd555"/><stop offset="1" stop-color="#ffcb27"/></linearGradient><linearGradient id="a" x1="215.46" x2="280.41" y1="753.18" y2="715.68" gradientTransform="translate(1555.5 -347.95)" gradientUnits="userSpaceOnUse"><stop offset="0" stop-color="#e6b636"/><stop offset=".5" stop-color="#f1cf09"/><stop offset=".563" stop-color="#f0d609"/><stop offset=".625" stop-color="#f0b10a"/><stop offset=".688" stop-color="#f0ce0b"/><stop offset=".75" stop-color="#f0aa0c"/><stop offset="1" stop-color="#ffd900"/></linearGradient><linearGradient xlink:href="#a" id="l" x1="215.46" x2="280.41" y1="753.18" y2="715.68" gradientTransform="rotate(-51.276 10.83 -19.511)scale(.10925)" gradientUnits="userSpaceOnUse"/><linearGradient id="f" x1="181.677" x2="143.246" y1="-139.479" y2="-101.048" gradientTransform="matrix(.34444 -.08423 .08423 -.34444 81.485 267.728)" gradientUnits="userSpaceOnUse" spreadMethod="pad"><stop offset="0" stop-color="#d0bb8e" style="stop-color:#ad7a4a;stop-opacity:1"/><stop offset="1" stop-color="#fff" style="stop-color:#edb096;stop-opacity:1"/></linearGradient><linearGradient xlink:href="#e" id="g" x1="146.47" x2="826.26" y1="211.9" y2="900.62" gradientTransform="matrix(.14137 -.00021 0 .11103 -44.724 11.307)" gradientUnits="userSpaceOnUse"/><linearGradient id="i" x1="115" x2="115" y1="183" y2="174" gradientTransform="rotate(-52.679 -107.022 202.2)scale(1.51994 1.47772)" gradientUnits="userSpaceOnUse"><stop offset="0" stop-color="#e01b24"/><stop offset="1" stop-color="#f66151"/></linearGradient><linearGradient xlink:href="#f" id="j" x1="128.817" x2="158.518" y1="-97.698" y2="-127.399" gradientTransform="matrix(.02188 -.29778 .28135 -.09997 96.751 109.52)" gradientUnits="userSpaceOnUse"><stop offset="0" stop-color="#d0bb8e" style="stop-color:#ad7a4a;stop-opacity:1"/><stop offset="1" stop-color="#fff" style="stop-color:#edb096;stop-opacity:1"/></linearGradient><linearGradient id="k" x1="110" x2="110" y1="182" y2="174" gradientTransform="rotate(-52.679 -120.702 174.57)scale(1.26662 1.47772)" gradientUnits="userSpaceOnUse"><stop offset="0" stop-color="#9a9996"/><stop offset=".533" stop-color="#deddda"/><stop offset="1" stop-color="#f6f5f4"/></linearGradient></defs><path d="M16 28a8 8 0 0 0-1.615.162 8 8 0 0 0-1.504.465 8 8 0 0 0-1.975 1.195 8 8 0 0 0-1.943 2.358 7.9 7.9 0 0 0-.922 3A8 8 0 0 0 8 36v72a8 8 0 0 0 .162 1.615 8 8 0 0 0 1.201 2.864A7.98 7.98 0 0 0 16 116h16l16-16 16 16h48a8 8 0 0 0 1.617-.162 8 8 0 0 0 2.862-1.201 8 8 0 0 0 1.183-.975 8 8 0 0 0 1.98-3.28 8 8 0 0 0 .317-1.562q.04-.405.041-.82V36a8.2 8.2 0 0 0-.357-2.385 8 8 0 0 0-1.98-3.277 8 8 0 0 0-1.843-1.375 7.9 7.9 0 0 0-3-.922A8 8 0 0 0 112 28H63.986L53.133 17.133l-2.179 2.275L48 21.712l-3.91 1.59L39.754 28z" style="fill:url(#g);stroke-width:1"/><path d="m70.715 29.578.566 7.16 2.121 10.211 4.948 6.155 9.896 7.535 1.766 6.603 5.373 22.92 6.928 7.65 8.234-3.138s-.31-2.504-.7-3.719c-.434-1.352-.926-2.726-1.814-3.934-.957-1.3-2.779-2.128-3.695-3.447-1.163-1.674-1.043-3.77-2.147-5.469-.95-1.462-2.834-2.466-3.767-3.935-1.29-2.032-1.95-4.305-2.403-6.549-.653-3.236.709-6.672-.425-9.824-1.193-3.316-3.485-6.485-6.502-8.985-2.696-2.232-7.131-2.8-9.897-4.98-1.673-1.319-2.875-3.004-3.816-4.713-1.581-2.872-2.953-9.1-2.953-9.1zM81.518 92.36s3.425 4.46 3.992 6.97c.367 1.628.171 3.369-.451 4.95-.625 1.584-1.53 3.277-3.196 4.298-1.87 1.145-4.464 1.674-6.828 1.557-2.791-.14-5.036-1.944-7.695-2.623-3.181-.813-6.983-1.86-10.298-2.219-1.13-.123-7.547-7.164-9.042-7.24l15.758 17.705 2.908.242h24.66l3.12-.674 2.261-14.129z" style="fill:#fff3aa;fill-opacity:1;stroke-width:1.00862"/><path d="M48 98.052V100l5.549 5.549L64 116h11.314c-3.475-2.97-8.086-6.966-15.068-7.703-4.427-.468-9.299-9.153-12.246-10.245" style="fill:#316ed9;fill-opacity:1;stroke-width:1.00862"/><path d="M48 98.052c-4.336.264-11.164 8.372-15.958 11.179-.919.538-1.762.972-2.496 1.245-3.097 1.152-5.159-3.54-10.507 5.524H32l16-16ZM73.92 28h-9.193c-1.471 2.48-3.553 6.658-3.553 10.695 0 12.213 6.088 11.404 9.896 18.86 3.807 7.451 3.64 16.508 5.655 24.418 1.413 5.549 3.785 13.475 9.896 16.084 1.755.749 5.654 7.208 5.654 10.539 0 3.082-1.632 5.196-3.824 7.404H112a8 8 0 0 0 1.617-.162 7.96 7.96 0 0 0 3.477-1.66 8 8 0 0 0 1.943-2.358 8 8 0 0 0 .922-3q.04-.405.041-.82v-4.385c-4.573-8.27-18.479-17.897-22.676-22.148-6.846-6.935-4.45-10.732-6.463-18.946-2.307-9.418-12.767-10.012-15.55-17.185C70.966 34.14 73.456 31.72 73.92 28" style="fill:#316ed9;fill-opacity:1;stroke-width:1.00862"/><path d="M53.075 19.731c.363-1.04.058-2.598.058-2.598L48 12l.01 16L48 12 32.005 28H16a8 8 0 0 0-1.617.162 7.97 7.97 0 0 0-3.477 1.66 8 8 0 0 0-1.943 2.358 8 8 0 0 0-.922 3q-.04.405-.041.82v.959c11.872-1.294 13.334-.102 19.486.4C32.951 37.805 44.4 23.157 48 21.712c2.712-.864 4.65-.763 5.075-1.981" style="fill:#009d00;fill-opacity:1;stroke-width:1.00862"/><path d="M8 48.213v33.185l17.272-1.45-4.393-32.817Z" style="fill:#8c133f;fill-opacity:1;stroke-width:1.00861;paint-order:normal"/><path d="m32.26 53.81 13.913-10.157L51.751 71 48 66.32 35.58 76.381Z" style="display:inline;fill:#33757c;stroke-width:1.00861"/><path d="M8 86.804h10.826v6.864H8ZM23.812 86.804h8.165L48 72.275l10.765 13.772v6.863l-10.85-13.77-15.923 14.528h-8.18z" style="display:inline;fill:#234868;fill-opacity:.878431;fill-rule:evenodd;stroke-width:2;stroke-linecap:round;stroke-linejoin:round;stroke-miterlimit:10"/><path d="M8 104.867V108a8 8 0 0 0 .162 1.615 8 8 0 0 0 1.201 2.864q.215.318.46.615l.06.068 18.1-20.816-5.18-4.504Z" style="display:inline;fill:#234868;fill-opacity:.878431;fill-rule:evenodd;stroke-width:2;stroke-linecap:round;stroke-linejoin:round;stroke-miterlimit:10"/><path fill="#fff" stroke="#0d4474" stroke-linecap="round" stroke-linejoin="round" stroke-opacity=".879" stroke-width="8.069" d="M27.345 89.184c.734 2.152-.892 4.367-3.633 4.948-2.741.58-5.558-.693-6.293-2.844-.734-2.152.893-4.367 3.633-4.948 2.741-.58 5.558.693 6.293 2.844M61.748 90.102c-1.028 2.028-3.75 2.41-6.079.852-2.329-1.557-3.383-4.463-2.355-6.49 1.028-2.029 3.75-2.41 6.078-.853 2.33 1.558 3.384 4.464 2.356 6.491" display="inline" style="stroke-width:2;stroke-dasharray:none;paint-order:stroke fill markers"/><path d="m486 1 .006 9.707-.006.004V89l16 16V17h-.014L491.133 6.133z" style="display:inline;opacity:.15;vector-effect:none;fill:#000;fill-opacity:1;stroke:none;stroke-width:.25px;stroke-linecap:butt;stroke-linejoin:miter;stroke-miterlimit:4;stroke-dasharray:none;stroke-dashoffset:0;stroke-opacity:1;marker:none;marker-start:none;marker-mid:none;marker-end:none;paint-order:normal" transform="translate(-438 11)"/><path d="M486 1v9.71l.006-.003z" style="display:inline;opacity:.15;vector-effect:none;fill:#000;fill-opacity:1;stroke:none;stroke-width:.25px;stroke-linecap:butt;stroke-linejoin:miter;stroke-miterlimit:4;stroke-dasharray:none;stroke-dashoffset:0;stroke-opacity:1;marker:none;marker-start:none;marker-mid:none;marker-end:none;paint-order:normal" transform="translate(-438 11)"/><path fill="url(#b)" d="m101.785 14.024 3.071-4.028a5.07 5.07 0 0 1 7.105-.958l6.043 4.607a5.07 5.07 0 0 1 .958 7.105l-3.071 4.029a5.07 5.07 0 0 1-7.105.958l-6.043-4.608a5.07 5.07 0 0 1-.958-7.105m0 0" style="fill:url(#i);stroke-width:.806065"/><path fill="url(#c)" d="m65.473 83.593-7.05-5.375.359-7.782 14.1 10.75zm0 0" style="fill:url(#j);stroke-width:.806065"/><path fill="#424048" d="m58.064 86 .359-7.782 7.05 5.375zm0 0" style="fill:#3d3d3d;fill-opacity:1;stroke-width:.806065"/><path fill="#5e5c64" d="m71.273 79.955-8.864-6.757 39.907-52.346 8.864 6.758zm0 0" style="fill:#853909;fill-opacity:1;stroke-width:.806065"/><path fill="#77767b" d="m62.81 73.508-4.029-3.076 39.932-52.379 4.009 3.104zm0 0" style="fill:#b25c28;fill-opacity:1;stroke-width:.806065"/><path fill="#3d3846" d="m68.853 78.115 4.03 3.071 39.931-52.378-4.05-3.044zm0 0" style="fill:#4d2105;fill-opacity:1;stroke-width:.806065"/><path fill="url(#d)" d="m98.713 18.053 3.072-4.029L115.89 24.78l-3.077 4.029zm0 0" style="fill:url(#k);stroke-width:.806065"/><path fill="url(#a)" stroke="#000" stroke-opacity=".134" stroke-width=".517" d="M97.074 32.157c-.272.34-.364.583-.368.774a.5.5 0 0 0 .05.23c.03.056.08.1.08.1l1.725 1.383s.054.04.115.056c.06.016.143.021.235-.001.185-.045.404-.188.676-.527.272-.34.364-.584.368-.774a.5.5 0 0 0-.05-.23c-.03-.056-.08-.1-.08-.1L98.1 31.684s-.054-.04-.115-.056a.5.5 0 0 0-.236 0c-.185.046-.403.189-.675.528zm1.54-1.922c-.271.34-.363.584-.367.774a.5.5 0 0 0 .05.23c.03.056.08.1.08.1l.492.396c.095.076.203.073.288.058.086-.016.167-.046.254-.085.173-.078.366-.19.556-.301s.377-.22.52-.283a1 1 0 0 1 .164-.058h.009l.45.361c.002.003.007.011.008.042-.002.068-.043.243-.285.544-.241.302-.403.38-.47.396-.031.009-.041.004-.044.004a.19.19 0 0 0-.216.31s.054.039.115.055c.06.017.143.022.235 0 .185-.046.404-.188.676-.528.272-.339.364-.583.368-.774a.5.5 0 0 0-.05-.23c-.03-.055-.08-.1-.08-.1l-.493-.395c-.095-.076-.203-.073-.288-.058a1 1 0 0 0-.253.085c-.174.077-.366.19-.556.301s-.378.22-.52.283a1 1 0 0 1-.164.057l-.009.001-.45-.362c-.002-.002-.007-.01-.007-.041.001-.068.043-.243.284-.545.242-.3.403-.38.47-.396.032-.008.042-.004.044-.003a.19.19 0 0 0 .217-.31s-.055-.04-.115-.056a.5.5 0 0 0-.236.001c-.185.045-.403.188-.675.527zm-2.522 3.243a.19.19 0 0 0 .033.266l1.962 1.573c.005.043.007.11-.02.145l-.396.493c-.04.05-.18.057-.18.057a.19.19 0 1 0-.034.378s.313.048.51-.198l.395-.493c.198-.246.083-.54.083-.54a.2.2 0 0 0-.063-.091l-2.02-1.62a.19.19 0 0 0-.27.03zm4.78-5.958a.19.19 0 0 0-.025.183l.57 1.46-1.55-.238a.19.19 0 0 0-.147.335l2.119 1.699a.19.19 0 1 0 .237-.296l-1.567-1.256 1.174.18a.19.19 0 0 0 .206-.255l-.432-1.107 1.567 1.256a.19.19 0 1 0 .237-.296l-2.119-1.699a.19.19 0 0 0-.27.034zm-3.502 4.874c.241-.301.403-.38.47-.396.03-.007.038-.004.041-.003l1.689 1.354c0 .002.006.01.006.041-.002.069-.043.243-.284.545-.242.301-.403.38-.47.396-.03.007-.039.004-.042.003l-1.688-1.354c-.002-.003-.006-.01-.007-.042.002-.068.043-.243.285-.544z" color="#000" display="inline" style="font-variant-ligatures:normal;font-variant-position:normal;font-variant-caps:normal;font-variant-numeric:normal;font-variant-alternates:normal;font-feature-settings:normal;text-indent:0;text-decoration-line:none;text-decoration-style:solid;text-decoration-color:#000;text-transform:none;text-orientation:mixed;white-space:normal;shape-padding:0;isolation:auto;mix-blend-mode:normal;fill:url(#l)"/><path d="m486 1-15.994 16H470v7.637V105l16-16V10.71z" style="display:inline;opacity:.3;vector-effect:none;fill:#fff;fill-opacity:1;stroke:none;stroke-width:.25px;stroke-linecap:butt;stroke-linejoin:miter;stroke-miterlimit:4;stroke-dasharray:none;stroke-dashoffset:0;stroke-opacity:1;marker:none;marker-start:none;marker-mid:none;marker-end:none;paint-order:normal" transform="translate(-438 11)"/></svg>