<svg xmlns="http://www.w3.org/2000/svg" xmlns:xlink="http://www.w3.org/1999/xlink" xml:space="preserve" width="128" height="128" viewBox="0 0 128 128"><defs><linearGradient id="d"><stop offset="0" style="stop-color:#f0c30d;stop-opacity:0"/><stop offset="1" style="stop-color:#f0c30d;stop-opacity:1"/></linearGradient><linearGradient id="c"><stop offset="0" style="stop-color:#8e7b76;stop-opacity:1"/><stop offset=".412" style="stop-color:#eae6e6;stop-opacity:1"/><stop offset=".806" style="stop-color:#8e7c76;stop-opacity:1"/><stop offset="1" style="stop-color:#eae7e6;stop-opacity:1"/></linearGradient><linearGradient id="b"><stop offset="0" style="stop-color:#c7e7f0;stop-opacity:1"/><stop offset="1" style="stop-color:#61bbd1;stop-opacity:1"/></linearGradient><linearGradient id="a"><stop offset="0" style="stop-color:#236677;stop-opacity:1"/><stop offset=".414" style="stop-color:#b0dde8;stop-opacity:1"/><stop offset=".812" style="stop-color:#236677;stop-opacity:1"/><stop offset="1" style="stop-color:#9cd4e3;stop-opacity:1"/></linearGradient><linearGradient xlink:href="#a" id="g" x1="35.28" x2="92.72" y1="71.791" y2="71.791" gradientTransform="translate(0 -3.968)" gradientUnits="userSpaceOnUse"/><linearGradient xlink:href="#c" id="e" x1="12" x2="116" y1="84.028" y2="84.028" gradientTransform="translate(0 -3.968)" gradientUnits="userSpaceOnUse"/><linearGradient xlink:href="#d" id="f" x1="57.48" x2="70.521" y1="97.387" y2="97.387" gradientUnits="userSpaceOnUse"/><radialGradient xlink:href="#b" id="h" cx="58.791" cy="49.656" r="28.72" fx="58.791" fy="49.656" gradientTransform="matrix(1 0 0 .64286 0 20.957)" gradientUnits="userSpaceOnUse"/></defs><path d="m100.897 114.016 11.316-11.322-.004-1.996-3.534-1.53-3.89 3.888L89.23 87.5l-3.535 3.535 15.556 15.557-3.884 1.883-.005 2.006z" style="fill:#73635f;fill-opacity:1;stroke:none;stroke-width:.998628px;stroke-linecap:butt;stroke-linejoin:miter;stroke-opacity:1"/><path d="m100.897 112.016 11.316-11.322-3.538-3.527-3.89 3.89L89.23 85.5l-3.535 3.535 15.556 15.557-3.889 3.889z" style="fill:#9a8984;fill-opacity:1;stroke:none;stroke-width:.998628px;stroke-linecap:butt;stroke-linejoin:miter;stroke-opacity:1"/><path d="m27.644 114.016-11.316-11.322.002-2.013 3.536-1.514 3.89 3.89L39.311 87.5l3.535 3.535-15.556 15.557 3.882 1.895.007 1.994z" style="fill:#73635f;fill-opacity:1;stroke:none;stroke-width:.998628px;stroke-linecap:butt;stroke-linejoin:miter;stroke-opacity:1"/><path d="m27.644 112.016-11.316-11.322 3.538-3.527 3.889 3.89L39.311 85.5l3.536 3.535-15.556 15.557 3.889 3.889z" style="fill:#9a8984;fill-opacity:1;stroke:none;stroke-width:.998628px;stroke-linecap:butt;stroke-linejoin:miter;stroke-opacity:1"/><path d="m52.781 66.111-17.433 36.103.003 2.007 57.298-.015-.009-1.985-18.336-36.197z" style="fill:#a59692;fill-opacity:1;stroke:none;stroke-width:1px;stroke-linecap:butt;stroke-linejoin:miter;stroke-opacity:1" transform="translate(0 11.787)"/><path d="m52.781 64.111-17.43 38.11 57.298-.015-18.345-38.182Z" style="fill:#d4cdcb;fill-opacity:1;stroke:none;stroke-width:1px;stroke-linecap:butt;stroke-linejoin:miter;stroke-opacity:1" transform="translate(0 11.787)"/><path d="m40.702 96.174 46.474.004.824 1.887-48 .005z" style="fill:#a59692;fill-opacity:1;stroke:none;stroke-width:.957534px;stroke-linecap:butt;stroke-linejoin:miter;stroke-opacity:1" transform="translate(0 11.787)"/><path d="m43.129 90.389 41.633.004.738 1.887-43 .005z" style="fill:#a59692;fill-opacity:1;stroke:none;stroke-width:.90629px;stroke-linecap:butt;stroke-linejoin:miter;stroke-opacity:1" transform="translate(0 11.787)"/><path d="m45.556 84.603 36.792.004.652 1.887-38 .005z" style="fill:#a59692;fill-opacity:1;stroke:none;stroke-width:.851971px;stroke-linecap:butt;stroke-linejoin:miter;stroke-opacity:1" transform="translate(0 11.787)"/><path d="m47.983 78.818 31.95.004.567 1.886-33 .005z" style="fill:#a59692;fill-opacity:1;stroke:none;stroke-width:.793944px;stroke-linecap:butt;stroke-linejoin:miter;stroke-opacity:1" transform="translate(0 11.787)"/><path d="M116 80.06c0 11.045-23.281 20-52 20s-52-8.955-52-20l.001-3.875C14.081 65.873 36.654 60.06 64 60.06c27.305 0 49.861 5.822 52 16.112z" style="fill:url(#e);stroke-width:.934126;stroke-linecap:round;stroke-linejoin:round;stroke-miterlimit:.5;paint-order:stroke fill markers"/><path d="M57.48 99.917a52 20 0 0 0 1.722.078 52 20 0 0 0 2.397.062 52 20 0 0 0 2.402.022 52 20 0 0 0 2.4-.022 52 20 0 0 0 2.397-.062 52 20 0 0 0 1.723-.078v-5.221H57.48z" style="fill:url(#f);fill-opacity:1;stroke:none;stroke-linecap:round;stroke-linejoin:round;stroke-miterlimit:.5;stroke-opacity:1;paint-order:stroke fill markers;opacity:1"/><path d="M116 76.06a52 20 0 0 1-52 20 52 20 0 0 1-52-20 52 20 0 0 1 52-20 52 20 0 0 1 52 20" style="fill:#d4cdcb;stroke-width:.934126;stroke-linecap:round;stroke-linejoin:round;stroke-miterlimit:.5;paint-order:stroke fill markers"/><path fill="none" d="m35.28 73.977.004-1.987S42.359 49.36 64 49.36c21.894 0 28.716 22.626 28.716 22.626l.004 1.99S88.618 86.287 64 86.287s-28.72-12.31-28.72-12.31" style="fill:url(#g);fill-opacity:1;stroke:none;stroke-width:4.10293;stroke-opacity:1"/><path fill="none" d="M35.28 71.977S39.382 47.359 64 47.359s28.72 24.618 28.72 24.618S88.618 84.286 64 84.286s-28.72-12.31-28.72-12.31" style="fill:url(#h);fill-opacity:1;stroke:none;stroke-width:4.10293;stroke-opacity:1"/><path d="M60.864-52.642a2.14 2.14 0 0 1-2.14 2.14 2.14 2.14 0 0 1-2.14-2.14 2.14 2.14 0 0 1 2.14-2.14 2.14 2.14 0 0 1 2.14 2.14" style="display:inline;overflow:visible;fill:#e1e5e9;stroke-width:.39981;marker:none" transform="scale(1 -1)"/></svg>