<svg xmlns="http://www.w3.org/2000/svg" xmlns:xlink="http://www.w3.org/1999/xlink" xml:space="preserve" width="128" height="128" style="display:inline" viewBox="0 0 128 128"><title>Adwaita Icon Template</title><defs><linearGradient id="a"><stop offset="0" style="stop-color:#00357a;stop-opacity:1"/><stop offset=".042" style="stop-color:#0061e0;stop-opacity:1"/><stop offset=".083" style="stop-color:#00357a;stop-opacity:1"/><stop offset=".917" style="stop-color:#00357a;stop-opacity:1"/><stop offset=".958" style="stop-color:#0061e0;stop-opacity:1"/><stop offset="1" style="stop-color:#00357a;stop-opacity:1"/></linearGradient><linearGradient xlink:href="#a" id="c" x1="48" x2="464" y1="44" y2="44" gradientTransform="matrix(.25 0 0 .25 0 53)" gradientUnits="userSpaceOnUse"/><linearGradient id="b" x1="0" x2="1" y1="0" y2="0" gradientTransform="rotate(225 -16.71 67.688)scale(126.04804)" gradientUnits="userSpaceOnUse" spreadMethod="pad"><stop offset="0" style="stop-opacity:1;stop-color:#004caf"/><stop offset="1" style="stop-opacity:1;stop-color:#1f95f8"/></linearGradient><linearGradient xlink:href="#b" id="d" x1="116" x2="12" y1="112" y2="12" gradientUnits="userSpaceOnUse"/></defs><rect width="104" height="84" x="12" y="32" rx="8" ry="8" style="display:inline;fill:url(#c);fill-opacity:1;stroke:none;stroke-width:.25;stroke-linecap:butt;stroke-linejoin:miter;stroke-miterlimit:4;stroke-dasharray:none;stroke-dashoffset:0;stroke-opacity:1;marker:none;marker-start:none;marker-mid:none;marker-end:none;paint-order:normal"/><rect width="104" height="100" x="12" y="12" rx="8" ry="8" style="display:inline;fill:url(#d);fill-opacity:1;stroke:none;stroke-width:.25;stroke-linecap:butt;stroke-linejoin:miter;stroke-miterlimit:4;stroke-dasharray:none;stroke-dashoffset:0;stroke-opacity:1;marker:none;marker-start:none;marker-mid:none;marker-end:none;paint-order:normal"/><path d="M92.47 21.08H64.207a.483.483 0 0 0-.483.484v8.975c0 .302.244.546.546.546h3.875a2.99 2.99 0 0 1 2.975 2.738v42.465h-.001a8 8 0 0 1-.037 1.01q-.007.072-.016.143a7 7 0 0 1-.085.575c-.02.107-.05.212-.075.318-.035.14-.063.284-.106.421A6.5 6.5 0 0 1 69.58 81c-.02.024-.046.046-.066.07q-.253.297-.547.57-.3.27-.634.507c-1.582 1.12-3.71 1.613-6.087 1.385-3.032-.285-6.04-1.66-8.471-3.872s-3.943-4.948-4.255-7.707c-.282-2.467.458-4.638 2.08-6.115l.011-.01c.063-.056.132-.105.197-.16 1.16-.972 2.674-1.561 4.402-1.724l.056-.006q.273-.023.554-.03.146-.008.293-.012.049-.002.098-.004c.058 0 .12.008.179.009q.407.004.826.04.052.001.105.004.039.006.077.011c1.585.16 3.153.632 4.642 1.349a.25.25 0 0 1 .112.036c.454.25.54-.019.554-.196V51.636c0-.387-.269-.73-.646-.813-8.019-1.764-15.886.073-21.438 5.126-4.85 4.412-7.195 10.777-6.435 17.465.678 5.956 3.735 11.678 8.61 16.114 4.75 4.322 10.8 7.025 17.04 7.613.86.08 1.723.12 2.566.12 5.96 0 11.49-2.043 15.57-5.755 3.867-3.52 6.183-8.354 6.523-13.613l.031-34.489h.004v-9.381a3 3 0 0 1 2.999-2.938h3.875a.547.547 0 0 0 .547-.546v-8.975a.483.483 0 0 0-.483-.483" style="fill:#fff;fill-opacity:1;fill-rule:nonzero;stroke:none;stroke-width:.0203125"/></svg>