<svg xmlns="http://www.w3.org/2000/svg" xmlns:xlink="http://www.w3.org/1999/xlink" width="128" height="128" style="display:inline" viewBox="0 0 128 128"><title>Adwaita Icon Template</title><defs><linearGradient id="d"><stop offset="0" style="stop-color:#167088;stop-opacity:1"/><stop offset=".03" style="stop-color:#54c5e3;stop-opacity:1"/><stop offset=".07" style="stop-color:#167088;stop-opacity:1"/></linearGradient><linearGradient id="c"><stop offset="0" style="stop-color:#64419b;stop-opacity:1"/><stop offset=".034" style="stop-color:#b49ed6;stop-opacity:1"/><stop offset=".07" style="stop-color:#64419b;stop-opacity:1"/><stop offset=".927" style="stop-color:#64419b;stop-opacity:1"/><stop offset=".971" style="stop-color:#b49ed6;stop-opacity:1"/><stop offset="1" style="stop-color:#64419b;stop-opacity:1"/></linearGradient><linearGradient id="b"><stop offset=".932" style="stop-color:#1fa3b7;stop-opacity:1"/><stop offset=".968" style="stop-color:#85ddea;stop-opacity:1"/><stop offset="1" style="stop-color:#1fa3b7;stop-opacity:1"/></linearGradient><linearGradient id="a"><stop offset="0" style="stop-color:#3c3795;stop-opacity:1"/><stop offset=".034" style="stop-color:#938fd6;stop-opacity:1"/><stop offset=".069" style="stop-color:#3c3795;stop-opacity:1"/></linearGradient><linearGradient xlink:href="#a" id="e" x1="-75.996" x2="-12.337" y1="43.079" y2="43.079" gradientTransform="translate(108.166)" gradientUnits="userSpaceOnUse"/><linearGradient xlink:href="#b" id="g" x1="-75.996" x2="-12.337" y1="49.302" y2="49.302" gradientTransform="translate(108.166)" gradientUnits="userSpaceOnUse"/><linearGradient xlink:href="#c" id="h" x1="-75.996" x2="-12.337" y1="80.035" y2="80.035" gradientTransform="translate(108.166)" gradientUnits="userSpaceOnUse"/><linearGradient xlink:href="#d" id="f" x1="-75.996" x2="-12.337" y1="88.921" y2="88.921" gradientTransform="translate(108.166)" gradientUnits="userSpaceOnUse"/></defs><path d="m32.17 16 61.024 35.232a5.27 5.27 0 0 1 2.635 4.567V67.52c0 .942-.25 1.848-.706 2.637l-60.34-34.837a5.23 5.23 0 0 1-2.613-4.528z" style="clip-rule:evenodd;fill:url(#e);fill-opacity:1;fill-rule:evenodd;stroke-width:.110654;stroke-linejoin:round;stroke-miterlimit:2"/><path d="m32.17 12 61.024 35.232a5.27 5.27 0 0 1 2.635 4.567V63.52c0 .942-.25 1.848-.706 2.637l-60.34-34.837a5.23 5.23 0 0 1-2.613-4.528z" style="clip-rule:evenodd;fill:#706bc8;fill-rule:evenodd;stroke-width:.110654;stroke-linejoin:round;stroke-miterlimit:2"/><path d="M93.216 96.68a5.23 5.23 0 0 1 2.613 4.527V116L34.807 80.769a5.27 5.27 0 0 1-2.637-4.567V64.48c0-.943.251-1.85.706-2.637z" style="clip-rule:evenodd;fill:url(#f);fill-opacity:1;fill-rule:evenodd;stroke-width:.110654;stroke-linejoin:round;stroke-miterlimit:2"/><path d="M93.216 92.68a5.23 5.23 0 0 1 2.613 4.527V112L34.807 76.769a5.27 5.27 0 0 1-2.637-4.567V60.48c0-.943.251-1.85.706-2.637z" style="clip-rule:evenodd;fill:#55c5e4;fill-rule:evenodd;stroke-width:.110654;stroke-linejoin:round;stroke-miterlimit:2"/><path d="M38.042 75.856a3.9 3.9 0 0 0-1.427 1.428s-1.83-1.088 0 0c-1.632-.942-4.445-4.105-4.445-5.99V64.48a5.27 5.27 0 0 1 2.637-4.567l55.152-31.838.026-.016a3.87 3.87 0 0 0 1.4-1.411c1.068-1.849.447-4.238-1.382-5.327h.001l3.189 1.842a5.27 5.27 0 0 1 2.637 4.567v11.722a5.27 5.27 0 0 1-2.637 4.567l-3.279 1.893.045-.028z" style="clip-rule:evenodd;fill:url(#g);fill-opacity:1;fill-rule:evenodd;stroke-width:.110654;stroke-linejoin:round;stroke-miterlimit:2"/><path d="M38.042 71.856a3.9 3.9 0 0 0-1.427 1.428c-1.068 1.848-.447 4.238 1.382 5.326l-3.19-1.842a5.27 5.27 0 0 1-2.637-4.566V60.479a5.27 5.27 0 0 1 2.637-4.567l55.152-31.838.026-.016a3.87 3.87 0 0 0 1.4-1.411c1.068-1.849.447-4.238-1.382-5.327h.001l3.189 1.842a5.27 5.27 0 0 1 2.637 4.567v11.722a5.27 5.27 0 0 1-2.637 4.567l-3.279 1.893.045-.028z" style="clip-rule:evenodd;fill:#84ddea;fill-rule:evenodd;stroke-width:.110654;stroke-linejoin:round;stroke-miterlimit:2"/><path d="M38.042 103.927a3.9 3.9 0 0 0-1.427 1.426c-.213.407 1.381 1.327 1.381 1.327l.001 4-3.19-1.841a5.27 5.27 0 0 1-2.637-4.567V92.55a5.27 5.27 0 0 1 2.637-4.567l55.152-31.838.026-.016a3.9 3.9 0 0 0 1.4-1.412c1.068-1.849.447-4.238-1.382-5.327h.001l3.189 1.843a5.27 5.27 0 0 1 2.637 4.566v11.723a5.27 5.27 0 0 1-2.637 4.567l-3.279 1.892.045-.028z" style="clip-rule:evenodd;fill:url(#h);fill-opacity:1;fill-rule:evenodd;stroke-width:.110654;stroke-linejoin:round;stroke-miterlimit:2"/><path d="M38.042 99.927a3.9 3.9 0 0 0-1.427 1.426c-1.068 1.85-.447 4.238 1.382 5.327l-3.19-1.841a5.27 5.27 0 0 1-2.637-4.567V88.55a5.27 5.27 0 0 1 2.637-4.567l55.152-31.838.026-.016a3.9 3.9 0 0 0 1.4-1.412c1.068-1.849.447-4.238-1.382-5.327h.001l3.189 1.843a5.27 5.27 0 0 1 2.637 4.566v11.723a5.27 5.27 0 0 1-2.637 4.567l-3.279 1.892.045-.028z" style="clip-rule:evenodd;fill:#997bc8;fill-rule:evenodd;stroke-width:.110654;stroke-linejoin:round;stroke-miterlimit:2"/></svg>