<svg xmlns="http://www.w3.org/2000/svg" xmlns:xlink="http://www.w3.org/1999/xlink" width="128" height="128" style="display:inline" viewBox="0 0 128 128"><title>Adwaita Icon Template</title><defs><linearGradient id="f"><stop offset="0" style="stop-color:#555652;stop-opacity:1"/><stop offset=".41" style="stop-color:#babcb9;stop-opacity:1"/><stop offset=".81" style="stop-color:#555652;stop-opacity:1"/><stop offset="1" style="stop-color:#aeafac;stop-opacity:1"/></linearGradient><linearGradient id="c"><stop offset="0" stop-color="#fff"/><stop offset=".65" stop-color="#fff" stop-opacity="0"/></linearGradient><linearGradient id="d" x1="29" x2="19" y1="33" y2="27" gradientTransform="matrix(1.55133 0 0 1.52935 -5.232 -3.863)" gradientUnits="userSpaceOnUse"><stop offset="0" stop-color="#fff" style="stop-color:#383838;stop-opacity:1"/><stop offset=".45" stop-color="#fff" style="stop-color:#b2b2b2;stop-opacity:1"/><stop offset="1" stop-color="#373737"/></linearGradient><linearGradient xlink:href="#c" id="l" x1="17.605" x2="23" y1="18.312" y2="18.312" gradientTransform="matrix(3.5486 0 0 3.49833 -18.133 -21.494)" gradientUnits="userSpaceOnUse"/><linearGradient xlink:href="#d" id="i" x1="-58.068" x2="-42.66" y1="79.4" y2="79.4" gradientTransform="translate(129.472 -14.811)scale(1.30002)" gradientUnits="userSpaceOnUse"/><linearGradient xlink:href="#e" id="k" x1="-34.656" x2="-57.747" y1="50.326" y2="47.438" gradientTransform="translate(129.472 -14.811)scale(1.30002)" gradientUnits="userSpaceOnUse"/><linearGradient xlink:href="#f" id="g" x1="43.323" x2="84.67" y1="105.8" y2="105.8" gradientTransform="translate(0 2)" gradientUnits="userSpaceOnUse"/><radialGradient xlink:href="#a" id="h" cx="27.5" cy="22.614" r="6.5" gradientTransform="matrix(5.4594 -.2691 .34079 6.71916 -81.422 -79.751)" gradientUnits="userSpaceOnUse"/><radialGradient id="a" cx="27.5" cy="22.614" r="6.5" gradientTransform="matrix(2.38666 -.11764 .14898 2.93739 -31.573 -30.35)" gradientUnits="userSpaceOnUse"><stop offset="0" stop-color="#737373"/><stop offset="1" stop-opacity="0"/></radialGradient><radialGradient xlink:href="#b" id="j" cx="26.625" cy="26.577" r="12.5" gradientTransform="matrix(3.3665 -1.10627 .40809 1.20692 -27.166 65.453)" gradientUnits="userSpaceOnUse"/><radialGradient id="b" cx="26.625" cy="26.577" r="12.5" gradientTransform="matrix(1.47172 -.48362 .1784 .52763 -7.854 33.129)" gradientUnits="userSpaceOnUse"><stop offset="0" stop-color="#e40000"/><stop offset="1" stop-color="#490000"/></radialGradient><radialGradient id="e" cx="25.017" cy="13.192" r="9.751" gradientTransform="matrix(1.92277 0 0 .69781 -12.224 17.519)" gradientUnits="userSpaceOnUse"><stop offset="0" stop-color="#fd0000"/><stop offset="1" stop-color="#6a0000"/></radialGradient></defs><path d="M63.992 99.6c-4.973 0-9.933.587-13.77 1.818-1.918.616-3.563 1.385-4.804 2.41-1.24 1.024-2.096 2.401-2.095 3.976.001 1.405.794 2.64 1.94 3.618s2.688 1.779 4.543 2.448c3.708 1.338 8.69 2.13 14.19 2.13 5.502 0 10.483-.792 14.192-2.13 1.854-.67 3.396-1.47 4.542-2.448 1.146-.977 1.939-2.213 1.94-3.618v-.003c-.001-1.575-.858-2.95-2.1-3.974s-2.887-1.794-4.806-2.41c-3.839-1.23-8.8-1.817-13.772-1.817z" style="baseline-shift:baseline;display:inline;overflow:visible;vector-effect:none;fill:url(#g);stroke-width:1.30002;stroke-linecap:round;stroke-linejoin:round;stroke-miterlimit:0;stop-color:#000"/><path d="M81.742 17.568c-1.775-3.498-33.713-3.498-35.486 0 0 5.248-5.323 20.99-5.323 34.982 0 13.994 17.743 22.74 23.067 22.74 5.323 0 23.067-8.746 23.067-22.74s-5.323-29.734-5.323-34.982z" style="fill:url(#h);fill-rule:evenodd;stroke-width:2.28745"/><path stroke-miterlimit="0" d="M81.742 16.72a17.743 3.545 0 0 1-35.486 0 17.743 3.545 0 1 1 35.486 0" style="fill:none;stroke:#919191;stroke-width:2.31258;stroke-linecap:round;stroke-linejoin:round;stroke-miterlimit:0;stroke-dasharray:none"/><path d="M63.992 97.6c-4.973 0-9.933.587-13.77 1.818-1.918.616-3.563 1.385-4.804 2.41-1.24 1.024-2.096 2.401-2.095 3.976.001 1.405.794 2.64 1.94 3.618s2.688 1.779 4.543 2.448c3.708 1.338 8.69 2.13 14.19 2.13 5.502 0 10.483-.792 14.192-2.13 1.854-.67 3.396-1.47 4.542-2.448 1.146-.977 1.939-2.213 1.94-3.618v-.003c-.001-1.575-.858-2.95-2.1-3.974s-2.887-1.794-4.806-2.41c-3.839-1.23-8.8-1.817-13.772-1.817z" style="baseline-shift:baseline;display:inline;overflow:visible;vector-effect:none;fill:#888a85;stroke-width:1.30002;stroke-linecap:round;stroke-linejoin:round;stroke-miterlimit:0;stop-color:#000"/><path d="M54.323 72.607c1.706 1.682 3.317 3.64 4.593 7.625s2.163 9.998 2.163 19.548c.032 2.149.36 4.314 1.303 6.391h3.232c.855-2.325 1.274-4.218 1.303-6.39 0-9.55.887-15.565 2.163-19.549s2.887-5.942 4.593-7.625c.45-.444-19.8-.444-19.35 0" style="baseline-shift:baseline;display:inline;overflow:visible;vector-effect:none;fill:url(#i);fill-rule:evenodd;stroke-width:1.30002;stroke-linecap:round;stop-color:#000"/><path d="M41.123 46.86c0 20.586 17.552 28.43 22.875 28.43s22.874-7.844 22.874-28.43" style="fill:url(#j);fill-rule:evenodd;stroke-width:2.28745"/><path d="M63.997 40.901c-5.496 0-10.98.434-15.184 1.336-2.102.451-3.88 1.01-5.238 1.76s-2.467 1.837-2.466 3.31c.002 1.473 1.11 2.557 2.468 3.306 1.359.75 3.14 1.307 5.241 1.758 4.203.902 9.685 1.338 15.179 1.338s10.978-.436 15.18-1.338c2.103-.451 3.883-1.008 5.242-1.758 1.358-.749 2.464-1.833 2.465-3.305.001-1.474-1.105-2.561-2.463-3.311s-3.136-1.309-5.238-1.76c-4.204-.902-9.69-1.336-15.186-1.336" style="baseline-shift:baseline;display:inline;overflow:visible;vector-effect:none;fill:url(#k);stroke-width:1.30002;stroke-linecap:round;stroke-linejoin:round;stroke-miterlimit:0;stop-color:#000"/><path d="M51.064 23.985H61.71s-5.323 20.99-5.323 29.734c0 5.248 3.549 8.746 1.775 10.495-1.775 1.75-10.646-5.074-10.646-13.993 0-3.498 1.774-13.993 3.548-26.237z" style="fill:url(#l);fill-rule:evenodd;stroke-width:2.28745"/><path d="M81.742 17.568c-1.775-5.247-33.713-5.247-35.486 0 0 5.248-5.323 20.99-5.323 34.982 0 13.994 17.743 22.74 23.067 22.74 5.323 0 23.067-8.746 23.067-22.74s-5.323-29.734-5.323-34.982z" style="fill:none;stroke:#919191;stroke-width:2.28745px;stroke-linecap:round;stroke-linejoin:miter"/></svg>