<svg xmlns="http://www.w3.org/2000/svg" xmlns:xlink="http://www.w3.org/1999/xlink" xml:space="preserve" width="128" height="128" viewBox="0 0 128 128"><defs><linearGradient id="e"><stop offset="0" style="stop-color:#000;stop-opacity:1"/><stop offset=".409" style="stop-color:#fff;stop-opacity:1"/><stop offset=".805" style="stop-color:#000;stop-opacity:1"/><stop offset="1" style="stop-color:#fff;stop-opacity:1"/></linearGradient><linearGradient id="c"><stop offset="0" style="stop-color:#c24d00;stop-opacity:1"/><stop offset=".097" style="stop-color:#ff9d5c;stop-opacity:1"/><stop offset=".243" style="stop-color:#c24d00;stop-opacity:1"/></linearGradient><linearGradient id="b"><stop offset="0" style="stop-color:#c24d00;stop-opacity:1"/><stop offset=".063" style="stop-color:#ff9d5c;stop-opacity:1"/><stop offset=".162" style="stop-color:#c24d00;stop-opacity:1"/></linearGradient><linearGradient id="d"><stop offset=".761" style="stop-color:#c24d00;stop-opacity:1"/><stop offset=".905" style="stop-color:#ff9d5c;stop-opacity:1"/><stop offset="1" style="stop-color:#c24d00;stop-opacity:1"/></linearGradient><linearGradient id="a"><stop offset="0" style="stop-color:#008cbe;stop-opacity:1"/><stop offset="1" style="stop-color:#b2ffff;stop-opacity:1"/></linearGradient><linearGradient xlink:href="#b" id="j" x1="-159.838" x2="-120.512" y1="64.765" y2="64.765" gradientTransform="translate(163.838 -.14)" gradientUnits="userSpaceOnUse"/><linearGradient xlink:href="#c" id="h" x1="-72.277" x2="-54.06" y1="34.112" y2="34.112" gradientTransform="translate(163.838 -.14)" gradientUnits="userSpaceOnUse"/><linearGradient xlink:href="#d" id="i" x1="-64.98" x2="-40.175" y1="104.745" y2="104.745" gradientTransform="translate(163.838 -.14)" gradientUnits="userSpaceOnUse"/><linearGradient xlink:href="#e" id="g" x1="13.566" x2="124" y1="66" y2="66" gradientUnits="userSpaceOnUse"/><radialGradient xlink:href="#a" id="k" cx="182.984" cy="395.049" r="148.953" fx="182.984" fy="395.049" gradientTransform="matrix(.82046 -.87667 2.73683 2.92433 -1189.801 -890.173)" gradientUnits="userSpaceOnUse"/><radialGradient xlink:href="#a" id="f" cx="182.984" cy="395.049" r="148.953" fx="182.984" fy="395.049" gradientTransform="matrix(.82046 -.87667 2.73683 2.92433 -1189.801 -886.173)" gradientUnits="userSpaceOnUse"/></defs><path d="M25.033 19.256C6.43 39.135 10.938 76.18 35.098 101.996s58.825 30.627 77.43 10.748c18.604-19.878 14.108-56.925-10.053-82.74C78.315 4.187 43.637-.624 25.033 19.255m16.87 8.258c14.618-15.62 41.495-12.222 60.037 7.59s21.721 48.53 7.103 64.15C94.425 114.873 67.541 111.483 49 91.67s-21.714-48.538-7.096-64.157" style="fill:url(#f);fill-opacity:1;stroke:none;stroke-width:3.55043"/><path d="M25.033 19.256C6.43 39.135 10.938 76.18 35.098 101.996s58.825 30.627 77.43 10.748c18.604-19.878 14.108-56.925-10.053-82.74C78.315 4.187 43.637-.624 25.033 19.255m16.87 8.258c14.618-15.62 41.495-12.222 60.037 7.59s21.721 48.53 7.103 64.15C94.425 114.873 67.541 111.483 49 91.67s-21.714-48.538-7.096-64.157" style="fill:url(#g);fill-opacity:1;stroke:none;stroke-width:3.55043;opacity:.6"/><path d="M95.638 24.995c-2.224 0-4.077 1.808-4.077 4.03v9.894c0 2.222 1.853 4.032 4.077 4.032h10.065c.767 0 1.318.017 2.107-.588 0-.828-.029-4.02-.029-4.02-.005-.752 1.997 1.377 1.997.576v-9.894c0-2.222-1.85-4.03-4.075-4.03z" style="fill:url(#h);fill-opacity:1;stroke:none;stroke-width:1.00005"/><path d="M104.049 92.39a5.183 5.183 0 0 0-5.19 5.176v14.08c0 2.857 9.161-1.693 9.198 1.176l.05 4h10.314c2.869 0 5.253-2.32 5.242-5.176l-.052-14.08c-.01-2.857-2.373-5.176-5.242-5.176z" style="fill:url(#i);fill-opacity:1;stroke:none;stroke-width:1.00005"/><path d="M11.811 45.17C7.52 45.17 4 48.615 4 52.871V76.18c0 4.256 3.519 7.701 7.811 7.701H22.18l.011-4 13.324 4c4.111 1.235 7.811-3.445 7.811-7.7V52.871c0-4.256-3.518-7.703-7.811-7.703z" style="fill:url(#j);fill-opacity:1;stroke:none;stroke-width:1.00005"/><path d="M25.033 15.256C6.43 35.135 10.938 72.18 35.098 97.996s58.825 30.627 77.43 10.748c18.604-19.878 14.108-56.925-10.053-82.74C78.315.187 43.637-4.624 25.033 15.255m16.87 8.258c14.618-15.62 41.495-12.222 60.037 7.59s21.721 48.53 7.103 64.15C94.425 110.873 67.541 107.483 49 87.67s-21.714-48.538-7.096-64.157" style="fill:url(#k);fill-opacity:1;stroke:none;stroke-width:3.55043"/><path d="M95.638 20.995c-2.224 0-4.077 1.808-4.077 4.03v9.894c0 2.222 1.853 4.032 4.077 4.032h10.065c2.224 0 4.075-1.81 4.075-4.032v-9.894c0-2.222-1.851-4.03-4.075-4.03zM11.811 41.17C7.52 41.17 4 44.615 4 48.871V72.18c0 4.256 3.519 7.701 7.811 7.701h23.704c4.293 0 7.811-3.445 7.811-7.7V48.871c0-4.256-3.518-7.703-7.811-7.703zM104.049 88.39c-2.87 0-5.243 2.319-5.243 5.176v14.08c0 2.857 2.373 5.176 5.243 5.176h14.32c2.869 0 5.242-2.32 5.242-5.176v-14.08c0-2.857-2.373-5.176-5.242-5.176z" style="fill:#ff7f2a;stroke:none;stroke-width:1.00005;fill-opacity:1"/></svg>