<svg xmlns="http://www.w3.org/2000/svg" xmlns:xlink="http://www.w3.org/1999/xlink" xml:space="preserve" width="128" height="128" style="display:inline" viewBox="0 0 128 128"><title>Adwaita Icon Template</title><defs><linearGradient id="d"><stop offset="0" style="stop-color:#e7e7e7;stop-opacity:1"/><stop offset="1" style="stop-color:#c8c8c8;stop-opacity:1"/></linearGradient><linearGradient id="b"><stop offset="0" style="stop-color:#325f83;stop-opacity:1"/><stop offset="1" style="stop-color:#224763;stop-opacity:1"/></linearGradient><linearGradient id="a"><stop offset="0" style="stop-color:#1b3950;stop-opacity:1"/><stop offset=".042" style="stop-color:#4583b5;stop-opacity:1"/><stop offset=".083" style="stop-color:#1b3950;stop-opacity:1"/><stop offset=".917" style="stop-color:#1b3950;stop-opacity:1"/><stop offset=".958" style="stop-color:#4583b5;stop-opacity:1"/><stop offset="1" style="stop-color:#1b3950;stop-opacity:1"/></linearGradient><linearGradient xlink:href="#a" id="e" x1="48" x2="464" y1="44" y2="44" gradientTransform="matrix(.25 0 0 .25 0 53)" gradientUnits="userSpaceOnUse"/><linearGradient xlink:href="#b" id="f" x1="64" x2="64" y1="10" y2="114" gradientUnits="userSpaceOnUse"/><linearGradient xlink:href="#c" id="g" x1="8" x2="120" y1="264" y2="264" gradientTransform="translate(24.455 -100.323)scale(.61789)" gradientUnits="userSpaceOnUse"/><linearGradient id="c" x1="9.197" x2="119.482" y1="112.655" y2="112.655" gradientTransform="translate(-147 5)" gradientUnits="userSpaceOnUse"><stop offset="0" stop-color="#5e5c64" style="stop-color:#606060;stop-opacity:1"/><stop offset=".038" stop-color="#77767b" style="stop-color:#797979;stop-opacity:1"/><stop offset=".073" stop-color="#3d3846" style="stop-color:#333;stop-opacity:1"/><stop offset=".929" stop-color="#241f31" style="stop-color:#000;stop-opacity:1"/><stop offset=".971" stop-color="#5e5c64" style="stop-color:#606060;stop-opacity:1"/><stop offset="1" stop-color="#5e5c64" style="stop-color:#606060;stop-opacity:1"/></linearGradient><linearGradient xlink:href="#d" id="i" x1="142.637" x2="142.637" y1="89.051" y2="98.818" gradientTransform="translate(-108.99)" gradientUnits="userSpaceOnUse"/><linearGradient xlink:href="#d" id="j" x1="142.637" x2="142.637" y1="98.818" y2="89.051" gradientTransform="translate(-77.504 20.736)scale(.77926)" gradientUnits="userSpaceOnUse"/><linearGradient xlink:href="#d" id="k" x1="142.637" x2="142.637" y1="89.051" y2="98.818" gradientTransform="translate(-88.593 -5.563)" gradientUnits="userSpaceOnUse"/><linearGradient xlink:href="#d" id="l" x1="142.637" x2="142.637" y1="98.818" y2="89.051" gradientTransform="translate(-57.106 15.173)scale(.77926)" gradientUnits="userSpaceOnUse"/><linearGradient xlink:href="#d" id="m" x1="142.637" x2="142.637" y1="89.051" y2="98.818" gradientTransform="translate(-68.77 -2.813)" gradientUnits="userSpaceOnUse"/><linearGradient xlink:href="#d" id="n" x1="142.637" x2="142.637" y1="98.818" y2="89.051" gradientTransform="translate(-37.283 17.923)scale(.77926)" gradientUnits="userSpaceOnUse"/><linearGradient xlink:href="#d" id="o" x1="142.637" x2="142.637" y1="89.051" y2="98.818" gradientTransform="translate(-48.283 -8.438)" gradientUnits="userSpaceOnUse"/><linearGradient xlink:href="#d" id="p" x1="142.637" x2="142.637" y1="98.818" y2="89.051" gradientTransform="translate(-16.797 12.298)scale(.77926)" gradientUnits="userSpaceOnUse"/><clipPath id="h" clipPathUnits="userSpaceOnUse"><path d="M208 4h96v48h-96z" style="opacity:1;fill:#949390;fill-opacity:1;stroke:none;stroke-width:16;stroke-linecap:round;stroke-linejoin:round;stroke-miterlimit:4;stroke-dasharray:none;stroke-dashoffset:11.2;stroke-opacity:1"/></clipPath></defs><rect width="104" height="84" x="12" y="32" rx="8" ry="8" style="display:inline;fill:url(#e);fill-opacity:1;stroke:none;stroke-width:.25;stroke-linecap:butt;stroke-linejoin:miter;stroke-miterlimit:4;stroke-dasharray:none;stroke-dashoffset:0;stroke-opacity:1;marker:none;marker-start:none;marker-mid:none;marker-end:none;paint-order:normal"/><rect width="104" height="100" x="12" y="12" rx="8" ry="8" style="display:inline;fill:url(#f);fill-opacity:1;stroke:none;stroke-width:.25;stroke-linecap:butt;stroke-linejoin:miter;stroke-miterlimit:4;stroke-dasharray:none;stroke-dashoffset:0;stroke-opacity:1;marker:none;marker-start:none;marker-mid:none;marker-end:none;paint-order:normal"/><rect width="69.204" height="14.829" x="29.398" y="55.385" rx="4.943" ry="4.943" style="display:inline;fill:url(#g);fill-opacity:1;stroke:none;stroke-width:.154472;stroke-linejoin:round;stroke-miterlimit:4;stroke-dasharray:.617889,.308944;stroke-dashoffset:0;stroke-opacity:1"/><rect width="69.204" height="41.795" x="29.398" y="26.422" rx="4.943" ry="5.463" style="display:inline;fill:#dfdfdf;fill-opacity:1;stroke:none;stroke-width:.162399;stroke-linejoin:round;stroke-miterlimit:4;stroke-dasharray:.649593,.324798;stroke-dashoffset:0;stroke-opacity:1"/><path d="M49.17 58.6a2.47 2.47 0 0 0-2.295 1.554l-2.47 6.178a2.5 2.5 0 0 0-.175.918 2.47 2.47 0 0 0 .833 1.854h37.875a2.47 2.47 0 0 0 .832-1.854 2.5 2.5 0 0 0-.174-.918l-2.471-6.178A2.47 2.47 0 0 0 78.83 58.6z" style="baseline-shift:baseline;display:inline;overflow:visible;fill:#eee;stroke-linecap:round;stroke-linejoin:round;stop-color:#000;stroke-width:.3;stroke-dasharray:none;stroke:#000;stroke-opacity:1"/><path d="M39.284 31.366h49.432l4.943 4.943v21.494H34.34V36.31z" style="display:inline;fill:#dfdfdf;fill-opacity:1;stroke:none;stroke-width:.154472;stroke-linejoin:round;stroke-miterlimit:4;stroke-dasharray:.617889,.308944;stroke-dashoffset:0;stroke-opacity:1"/><path d="M34.341 40.719h59.317v5.68H34.341z" style="display:inline;fill:#3f3f3f;fill-opacity:1;stroke:none;stroke-width:.660548;stroke-linecap:butt;stroke-linejoin:round;stroke-miterlimit:4;stroke-dasharray:none;stroke-dashoffset:0;stroke-opacity:1"/><circle cx="78.829" cy="46.385" r="3.707" style="display:inline;fill:#f6f5f4;fill-opacity:1;stroke:none;stroke-width:.154472;stroke-linejoin:round;stroke-miterlimit:4;stroke-dasharray:.617889,.308944;stroke-dashoffset:0;stroke-opacity:1"/><path d="M56.585 40.721h17.04v5.678h-17.04z" style="display:inline;fill:#626262;fill-opacity:1;stroke:none;stroke-width:2.16275;stroke-linecap:round;stroke-linejoin:round;stroke-miterlimit:4;stroke-dasharray:none;stroke-dashoffset:11.2;stroke-opacity:1"/><path d="m254.897 4-46.893-.005v36.756h63.282c.475-4.186-.79-15.332-3.924-22.043C264.609 12.816 256.585 4 254.897 4" clip-path="url(#h)" style="display:inline;opacity:1;fill:#545454;fill-opacity:1;stroke:none;stroke-width:1;stroke-linejoin:round;stroke-miterlimit:4;stroke-dasharray:4,2;stroke-dashoffset:0;stroke-opacity:1" transform="matrix(-.16217 0 0 .15447 114.961 40.104)"/><path d="m269.008 3.984-61.004.011v36.756h63.282c.475-4.186.708-8.433.708-12.745 0-8.238-1.298-16.29-2.986-24.022" clip-path="url(#h)" style="display:inline;opacity:1;fill:#545454;fill-opacity:1;stroke:none;stroke-width:1;stroke-linejoin:round;stroke-miterlimit:4;stroke-dasharray:4,2;stroke-dashoffset:0;stroke-opacity:1" transform="matrix(.22355 0 0 .15447 5.666 40.104)"/><path d="M52.447 40.719H45.77a6.59 6.59 0 0 0-3.247 5.676v.003h13.17v-.003a6.59 6.59 0 0 0-3.246-5.676" style="opacity:1;fill:#f6f5f4;fill-opacity:1;stroke:none;stroke-opacity:1"/><circle cx="49.171" cy="46.385" r="3.707" style="display:inline;fill:#f6f5f4;fill-opacity:1;stroke:none;stroke-width:.154472;stroke-linejoin:round;stroke-miterlimit:4;stroke-dasharray:.617889,.308944;stroke-dashoffset:0;stroke-opacity:1"/><path d="M44.228 67.251h39.545v2.963H44.228z" style="display:inline;opacity:1;fill:#111113;fill-opacity:1;stroke:none;stroke-width:.436835;stroke-linecap:butt;stroke-linejoin:round;stroke-miterlimit:4;stroke-dasharray:none;stroke-dashoffset:0;stroke-opacity:1"/><path d="m48.348 43.306.07 1.902-1.607-1.025-.759 1.342 1.683.878-1.684.877.762 1.327 1.606-1.024-.071 1.901h1.521l-.072-1.9 1.607 1.023.762-1.327-1.686-.878 1.683-.877-.758-1.342-1.608 1.025.072-1.902z" style="-inkscape-font-specification:Inter;fill:#313131;stroke-width:.561717"/><path d="M82.168 40.719H75.49a6.59 6.59 0 0 0-3.246 5.676v.003h13.17v-.003a6.59 6.59 0 0 0-3.246-5.676" style="opacity:1;fill:#f6f5f4;fill-opacity:1;stroke:none;stroke-opacity:1"/><path d="m78.068 43.313.072 1.902-1.609-1.025-.758 1.342 1.683.878-1.684.878.762 1.326 1.606-1.024-.072 1.902h1.522l-.072-1.902 1.607 1.024.761-1.326-1.685-.88 1.683-.876-.758-1.342-1.608 1.025.072-1.902z" style="-inkscape-font-specification:Inter;fill:#313131;stroke-width:.561717"/><circle cx="32.73" cy="29.921" r="1" style="opacity:1;fill:#626262;fill-opacity:1;stroke:none;stroke-width:.5;stroke-opacity:1"/><circle cx="95.247" cy="29.921" r="1" style="opacity:1;fill:#626262;fill-opacity:1;stroke:none;stroke-width:.5;stroke-opacity:1"/><circle cx="32.73" cy="64.796" r="1" style="opacity:1;fill:#626262;fill-opacity:1;stroke:none;stroke-width:.5;stroke-opacity:1"/><circle cx="95.247" cy="64.796" r="1" style="opacity:1;fill:#626262;fill-opacity:1;stroke:none;stroke-width:.5;stroke-opacity:1"/><path d="M47.403 39.82v-3.054h.711l1.186 2.147.008.025.008.005v-2.177h.703v3.053h-.728l-1.169-1.99-.016-.034v2.024zm3.99-2.719h-.883v-.335h2.477v.335h-.89v2.718h-.704zm3.205 2.743q-.392 0-.67-.06-.27-.058-.41-.181-.138-.128-.138-.33v-.374l.67.039v.207q0 .182.131.27.131.084.417.084.31 0 .433-.083.131-.089.131-.271v-.69q-.04.104-.237.178-.196.073-.597.073-.368 0-.58-.083-.205-.084-.295-.222t-.09-.3v-.606q0-.251.09-.399.099-.148.27-.222.172-.078.393-.103.229-.025.498-.025.254 0 .475.025.229.025.4.103.172.074.262.227.098.148.098.394v1.684q0 .237-.123.384-.122.143-.4.212-.27.069-.728.069m.008-1.403q.294 0 .425-.104.131-.108.131-.3v-.439q0-.206-.073-.315-.066-.108-.189-.148-.114-.039-.278-.039-.188 0-.318.04-.123.039-.188.147-.066.109-.066.315v.439q0 .108.04.202.042.088.164.147.123.055.352.055zm1.807.472v-1.516q0-.202.098-.33t.27-.197q.18-.074.409-.099.237-.025.507-.025t.507.025.408.099q.18.069.278.201.107.129.107.33v1.512h-.703V37.48q0-.167-.082-.25-.082-.085-.22-.11-.132-.029-.295-.029-.14 0-.278.03-.131.03-.213.113-.082.084-.082.241v1.438zm1.284.936q-.27 0-.507-.025-.23-.024-.409-.093-.172-.074-.27-.202t-.098-.33v-1.517h.711v1.433q0 .163.082.246.082.084.213.114.139.03.278.03.163 0 .294-.025.14-.03.22-.114.083-.088.083-.256v-1.428h.703v1.512q0 .202-.106.335-.099.128-.278.202-.172.069-.41.093-.236.025-.506.025" aria-label="NT90" style="font-weight:600;font-size:6.34549px;line-height:1;font-family:&quot;Smooch Sans&quot;;-inkscape-font-specification:&quot;Smooch Sans Semi-Bold&quot;;letter-spacing:0;fill:#3f3f3f;stroke-width:.793189"/><circle cx="49.724" cy="61.715" r="1.342" style="fill:#3f3f3f;fill-opacity:1;stroke:none;stroke-width:.343867;stroke-dasharray:none;stroke-opacity:1"/><circle cx="78.151" cy="61.715" r="1.342" style="fill:#3f3f3f;fill-opacity:1;stroke:none;stroke-width:.343867;stroke-dasharray:none;stroke-opacity:1"/><circle cx="71.612" cy="64.41" r="1.046" style="fill:#3f3f3f;fill-opacity:1;stroke:none;stroke-width:.26782;stroke-dasharray:none;stroke-opacity:1"/><circle cx="56.347" cy="64.41" r="1.046" style="fill:#3f3f3f;fill-opacity:1;stroke:none;stroke-width:.26782;stroke-dasharray:none;stroke-opacity:1"/><rect width="2.762" height="34.383" x="32.265" y="72.611" ry="1.193" style="fill:#262a2e;fill-opacity:1;stroke:none;stroke-width:.3;stroke-dasharray:none;stroke-opacity:1"/><rect width="2.762" height="34.383" x="52.663" y="72.611" ry="1.193" style="fill:#262a2e;fill-opacity:1;stroke:none;stroke-width:.3;stroke-dasharray:none;stroke-opacity:1"/><rect width="2.762" height="34.383" x="72.486" y="72.611" ry="1.193" style="fill:#262a2e;fill-opacity:1;stroke:none;stroke-width:.3;stroke-dasharray:none;stroke-opacity:1"/><rect width="2.762" height="34.383" x="92.972" y="72.611" ry="1.193" style="fill:#262a2e;fill-opacity:1;stroke:none;stroke-width:.3;stroke-dasharray:none;stroke-opacity:1"/><path d="M29.514 84.588h8.377l.639 8.706v1.003l-.64 8.985h-8.376l-.751-8.985v-1.003" style="fill:url(#i);stroke:none;stroke-width:.3;stroke-dasharray:none;stroke-opacity:1"/><path d="M30.426 86.651h6.528l.498 6.784v.782l-.498 7.001h-6.528l-.585-7v-.783" style="fill:url(#j);stroke:none;stroke-width:.233776;stroke-dasharray:none;stroke-opacity:1"/><path d="M28.763 93.294h9.767v1.003h-9.767z" style="fill:#878787;stroke-width:.303686"/><path d="M49.912 79.025h8.376l.64 8.706v1.004l-.64 8.984h-8.376l-.751-8.984V87.73" style="fill:url(#k);stroke:none;stroke-width:.3;stroke-dasharray:none;stroke-opacity:1"/><path d="M50.824 81.088h6.528l.498 6.785v.782l-.498 7.001h-6.528l-.585-7.001v-.782" style="fill:url(#l);stroke:none;stroke-width:.233776;stroke-dasharray:none;stroke-opacity:1"/><path d="M49.16 87.731h9.768v1.004H49.16z" style="fill:#878787;stroke-width:.303686"/><path d="M69.735 81.775h8.377l.639 8.706v1.004l-.64 8.984h-8.376l-.751-8.984V90.48" style="fill:url(#m);stroke:none;stroke-width:.3;stroke-dasharray:none;stroke-opacity:1"/><path d="M70.647 83.838h6.528l.498 6.785v.782l-.498 7.001h-6.528l-.585-7.001v-.782" style="fill:url(#n);stroke:none;stroke-width:.233776;stroke-dasharray:none;stroke-opacity:1"/><path d="M68.984 90.481h9.767v1.004h-9.767z" style="fill:#878787;stroke-width:.303686"/><path d="M90.221 76.15h8.377l.639 8.706v1.004l-.64 8.984h-8.376l-.75-8.984v-1.004" style="fill:url(#o);stroke:none;stroke-width:.3;stroke-dasharray:none;stroke-opacity:1"/><path d="M91.134 78.213h6.527l.498 6.785v.782l-.498 7.001h-6.527l-.586-7.001v-.782" style="fill:url(#p);stroke:none;stroke-width:.233776;stroke-dasharray:none;stroke-opacity:1"/><path d="M89.47 84.856h9.767v1.004H89.47z" style="fill:#878787;stroke-width:.303686"/></svg>