<svg xmlns="http://www.w3.org/2000/svg" xmlns:xlink="http://www.w3.org/1999/xlink" width="128" height="128"><defs><linearGradient id="c"><stop offset=".238" style="stop-color:#964100;stop-opacity:1"/><stop offset="1" style="stop-color:#190000;stop-opacity:1"/></linearGradient><linearGradient id="b"><stop offset="0" style="stop-color:#ffe7cf;stop-opacity:1"/><stop offset="1" style="stop-color:#fff8f1;stop-opacity:1"/></linearGradient><linearGradient xlink:href="#a" id="d" x1="9.964" x2="118.036" y1="65.964" y2="65.964" gradientTransform="matrix(1.11038 0 0 1.09187 -7.064 -6.025)" gradientUnits="userSpaceOnUse"/><linearGradient id="a"><stop offset="0" style="stop-color:#664c00;stop-opacity:1"/><stop offset=".407" style="stop-color:#ffd557;stop-opacity:1"/><stop offset=".81" style="stop-color:#664d00;stop-opacity:1"/><stop offset="1" style="stop-color:#ffd34c;stop-opacity:1"/></linearGradient><linearGradient xlink:href="#b" id="f" x1="64" x2="64" y1="34.712" y2="87.79" gradientUnits="userSpaceOnUse"/><radialGradient xlink:href="#c" id="e" cx="64" cy="97.34" r="51" fx="64" fy="97.34" gradientTransform="matrix(1.61317 0 0 .9804 -39.243 1.216)" gradientUnits="userSpaceOnUse"/></defs><path fill="#1ed760" d="M124 66c0-32.66-26.786-59-60-59S4 33.34 4 66s26.786 59 60 59 60-26.34 60-59" style="fill:url(#d);fill-opacity:1;stroke-width:2.12492"/><path fill="#1ed760" d="M124 62c0-32.66-26.786-59-60-59S4 29.34 4 62s26.786 59 60 59 60-26.34 60-59" style="fill:#e7ad00;fill-opacity:1;stroke-width:2.12492"/><ellipse cx="64" cy="62" rx="51" ry="50" style="opacity:1;fill:url(#e);fill-opacity:1;stroke-width:2.79965;stroke-opacity:.1"/><path fill="url(#g)" d="M37.46 96.647v-21.62q.001-1.825.79-3.467.791-1.642 2.197-2.646l3.649-2.645q.58 7.663 1.824 13.045t3.898 11.951zm17.334-7.298q-2.902-6.022-4.312-12.772t-1.41-13.957q0-11.404 4.107-21.483Q57.285 31.057 64 25.855q6.717 5.2 10.824 15.282t4.104 21.483q0 7.115-1.41 13.823a59 59 0 0 1-4.312 12.906zM64 63.806q2.736 0 4.687-2.143t1.948-5.155q-.004-3.015-1.948-5.154Q66.742 49.217 64 49.21t-4.684 2.145q-1.941 2.153-1.95 5.154-.011 2.999 1.95 5.155T64 63.806m26.539 32.841-12.357-5.382q2.653-6.569 3.898-11.95 1.244-5.384 1.824-13.046l3.65 2.645q1.41 1.003 2.199 2.646a7.9 7.9 0 0 1 .786 3.467z" class="fills" style="fill:url(#f);stroke-width:.991597"/></svg>