<svg xmlns="http://www.w3.org/2000/svg" xmlns:xlink="http://www.w3.org/1999/xlink" width="128" height="128" style="display:inline" viewBox="0 0 128 128"><title>Adwaita Icon Template</title><defs><linearGradient id="a"><stop offset="0" style="stop-color:#2b2f6c;stop-opacity:1"/><stop offset=".042" style="stop-color:#9b9dba;stop-opacity:1"/><stop offset=".083" style="stop-color:#2b2f6c;stop-opacity:1"/><stop offset=".917" style="stop-color:#2b2f6c;stop-opacity:1"/><stop offset=".958" style="stop-color:#9b9dba;stop-opacity:1"/><stop offset="1" style="stop-color:#2b2f6c;stop-opacity:1"/></linearGradient><linearGradient xlink:href="#a" id="b" x1="48" x2="464" y1="44" y2="44" gradientTransform="matrix(.25 0 0 .25 0 53)" gradientUnits="userSpaceOnUse"/></defs><rect width="104" height="84" x="12" y="32" rx="8" ry="8" style="display:inline;fill:url(#b);fill-opacity:1;stroke:none;stroke-width:.25;stroke-linecap:butt;stroke-linejoin:miter;stroke-miterlimit:4;stroke-dasharray:none;stroke-dashoffset:0;stroke-opacity:1;marker:none;marker-start:none;marker-mid:none;marker-end:none;paint-order:normal"/><rect width="104" height="100" x="12" y="12" rx="8" ry="8" style="display:inline;fill:#050a52;fill-opacity:1;stroke:none;stroke-width:.25;stroke-linecap:butt;stroke-linejoin:miter;stroke-miterlimit:4;stroke-dasharray:none;stroke-dashoffset:0;stroke-opacity:1;marker:none;marker-start:none;marker-mid:none;marker-end:none;paint-order:normal"/><path d="M64 101.991c-22.091 0-40-17.909-40-40S41.909 22 64 22s40 17.909 40 40-17.909 40-40 40Z" style="fill:#fff;stroke-width:.893655"/><path d="m43.47 49.83 3.17-9.95-28.88 15.79 28.88 15.79-3.17-9.96h24.4l-3.18 9.96 28.88-15.8-28.88-15.78 3.18 9.95z" class="cls-1" style="display:inline;fill:#050a52" transform="translate(14.07 12.065)scale(.89698)"/></svg>