<svg xmlns="http://www.w3.org/2000/svg" width="128" height="128" viewBox="0 0 128 128"><defs><linearGradient id="b" x1="0" x2="118.926" y1="269.463" y2="269.463" gradientTransform="matrix(1 0 0 .98333 0 -168.033)" gradientUnits="userSpaceOnUse"><stop offset="0" stop-color="#e5a50a" style="stop-color:#787878;stop-opacity:1"/><stop offset=".414" stop-color="#fbdf9b" style="stop-color:#cbcbcb;stop-opacity:1"/><stop offset=".813" stop-color="#e5a50a" style="stop-color:#787878;stop-opacity:1"/><stop offset="1" stop-color="#f8ca5b" style="stop-color:#a9a9a9;stop-opacity:1"/></linearGradient><linearGradient id="c" x1="11" x2="52.605" y1="36.417" y2="32.821" gradientTransform="translate(5 3)scale(1.84375)" gradientUnits="userSpaceOnUse"><stop offset=".3" stop-color="#ff6a16"/><stop offset=".543" stop-color="#ff3227"/><stop offset=".89" stop-color="#f6d"/></linearGradient></defs><path fill="url(#a)" d="M124 66c0 32.585-26.863 59-60 59S4 98.585 4 66 30.863 7 64 7s60 26.415 60 59m0 0" style="fill:url(#b);stroke-width:.991632"/><path d="M124 62c0 32.585-26.863 59-60 59S4 94.585 4 62 30.863 3 64 3s60 26.415 60 59" style="fill:#fff;fill-opacity:1;fill-rule:evenodd;stroke:none;stroke-width:11.1733;stroke-linecap:square;stroke-linejoin:bevel"/><path fill="url(#c)" fill-rule="evenodd" d="M102.523 38.814c-.173-.45-.473-.998-.863-1.591-.78-1.193-1.959-2.656-3.264-4.037v-.007c-1.396-1.404-2.821-2.62-3.977-3.422-.578-.398-1.103-.713-1.538-.885a2.1 2.1 0 0 0-.645-.166c-.203-.014-.458.023-.653.218L64.525 55.277a.784.784 0 0 1-1.088 0L36.38 28.924c-.195-.187-.45-.225-.653-.218a2.2 2.2 0 0 0-.645.166c-.436.172-.968.487-1.539.885-1.155.803-2.58 2.026-3.976 3.422v.007c-1.306 1.38-2.484 2.844-3.264 4.037-.39.593-.698 1.14-.863 1.59a2.5 2.5 0 0 0-.158.654c-.007.202.03.465.233.66l30.231 29.421c.27.263.42.623.42.998l-.03 35.987c0 .27.158.473.293.6.142.136.33.248.54.346.42.202.998.39 1.68.547 1.382.316 3.265.54 5.351.54s3.97-.224 5.35-.54c.683-.157 1.26-.345 1.68-.547.21-.098.398-.218.54-.346.136-.127.294-.33.294-.6l-.03-35.987c0-.375.15-.735.42-.998l30.231-29.421c.203-.195.24-.458.233-.66a2.1 2.1 0 0 0-.158-.653z" clip-rule="evenodd" style="fill:url(#c);stroke-width:1.84375"/></svg>