<svg xmlns="http://www.w3.org/2000/svg" xmlns:xlink="http://www.w3.org/1999/xlink" xml:space="preserve" width="128" height="128" style="display:inline" viewBox="0 0 128 128"><title>Adwaita Icon Template</title><defs><linearGradient id="b"><stop offset="0" style="stop-color:#016bd1;stop-opacity:1"/><stop offset="1" style="stop-color:#339cff;stop-opacity:1"/></linearGradient><linearGradient id="a"><stop offset="0" style="stop-color:#014483;stop-opacity:1"/><stop offset=".042" style="stop-color:#399efe;stop-opacity:1"/><stop offset=".083" style="stop-color:#014483;stop-opacity:1"/><stop offset=".917" style="stop-color:#014483;stop-opacity:1"/><stop offset=".958" style="stop-color:#399efe;stop-opacity:1"/><stop offset="1" style="stop-color:#014483;stop-opacity:1"/></linearGradient><linearGradient xlink:href="#a" id="c" x1="48" x2="464" y1="44" y2="44" gradientTransform="matrix(.25 0 0 .25 0 53)" gradientUnits="userSpaceOnUse"/><linearGradient xlink:href="#b" id="d" x1="12" x2="116" y1="112" y2="12" gradientUnits="userSpaceOnUse"/></defs><rect width="104" height="84" x="12" y="32" rx="8" ry="8" style="display:inline;fill:url(#c);fill-opacity:1;stroke:none;stroke-width:.25;stroke-linecap:butt;stroke-linejoin:miter;stroke-miterlimit:4;stroke-dasharray:none;stroke-dashoffset:0;stroke-opacity:1;marker:none;marker-start:none;marker-mid:none;marker-end:none;paint-order:normal"/><rect width="104" height="100" x="12" y="12" rx="8" ry="8" style="display:inline;fill:url(#d);fill-opacity:1;stroke:none;stroke-width:.25;stroke-linecap:butt;stroke-linejoin:miter;stroke-miterlimit:4;stroke-dasharray:none;stroke-dashoffset:0;stroke-opacity:1;marker:none;marker-start:none;marker-mid:none;marker-end:none;paint-order:normal"/><path d="M42.097 112s-1.463-5.117-2.623-9.505-1.974-9.308-2.108-10.921c-.135-1.619.15-2.981.577-4.396 1.322-4.383 11.528-10.872 24.911-22.384s25.795-21.685 27.58-22.606c2.552-1.317 5.623-1.645 14.405-1.538l11.161.136v.558h-10.2c-6.865.173-11.012 1.076-12.682 2.138-1.366.87-8.665 7.266-16.22 14.216a5328 5328 0 0 1-22.069 20.19c-7.236 6.56-8.331 7.987-8.331 10.856 0 1.816 1.149 7.02 2.553 11.564A4688 4688 0 0 1 52.64 112Zm30.972 0-3.21-6.618c-1.766-3.64-3.312-7.854-3.767-9.277-.46-1.441-.802-3.668.086-5.129 3.491-5.744 6.8-7.83 16.606-16.37 9.72-8.464 17.95-14.796 21.04-16.186 2.79-1.256 6.671-2.224 8.625-2.224H116v.611s-3.036.147-3.58.285c-.658.166-.775.143-1.833.52-2.992 1.065-6.847 3.565-8.977 5.346-2.13 1.78-8.78 7.777-14.778 13.325S75.689 87.57 74.96 88.825c-1.08 1.859-.604 3.67-.145 5.217.452 1.519 2.484 5.95 4.515 9.845A714 714 0 0 1 83.482 112ZM17.106 81.608H12v-1.795h3.607c2.009 0 5.168-.84 6.966-1.665s11-8.564 20.446-17.198 19.573-18.068 22.503-20.964c3.95-3.903 5.327-6 5.327-8.108 0-1.564-1.341-6.676-2.98-11.36L64.89 12h9.723l2.18 7.108c1.2 3.91 2.179 8.52 2.177 10.248-.002 2.452-1.172 4.318-5.33 8.505-2.93 2.95-14.194 13.393-25.032 23.205s-21.21 18.448-23.05 19.191-5.643 1.35-8.451 1.35m-3.044-29.412H12v-.969h.65c1.369 0 2.92-.578 4.01-1.111 1.751-.856 8.616-8.022 17.027-15.841 0 0 9.85-8.606 14.093-14.53a8 8 0 0 0 1.432-3.623c.192-1.367-.76-4.122-.76-4.122h7.969s.206 1.626.196 2.696c-.015 1.488-1.266 4.092-2.79 5.811-1.52 1.713-9.156 8.938-16.968 16.055-7.813 7.118-15.9 13.145-17.47 14.288-1.234.896-2.506 1.346-5.327 1.346" style="fill:#000;stroke-width:1.49604"/><path d="M42.097 112h10.538v4H42.097Zm30.972 0h10.414v4H73.069Z" style="opacity:.4;stroke-width:4;fill:#000;fill-opacity:1"/></svg>