<svg xmlns="http://www.w3.org/2000/svg" xmlns:xlink="http://www.w3.org/1999/xlink" xml:space="preserve" width="128" height="128" style="display:inline" viewBox="0 0 128 128"><title>Adwaita Icon Template</title><defs><linearGradient id="b"><stop offset="0" style="stop-color:#cd0000;stop-opacity:1"/><stop offset="1" style="stop-color:#a40000;stop-opacity:1"/></linearGradient><linearGradient id="a"><stop offset="0" style="stop-color:#700000;stop-opacity:1"/><stop offset=".042" style="stop-color:#e50000;stop-opacity:1"/><stop offset=".083" style="stop-color:#700000;stop-opacity:1"/><stop offset=".917" style="stop-color:#700000;stop-opacity:1"/><stop offset=".958" style="stop-color:#e50000;stop-opacity:1"/><stop offset="1" style="stop-color:#700000;stop-opacity:1"/></linearGradient><linearGradient xlink:href="#a" id="c" x1="48" x2="464" y1="44" y2="44" gradientTransform="matrix(.25 0 0 .25 0 53)" gradientUnits="userSpaceOnUse"/><linearGradient xlink:href="#b" id="d" x1="64" x2="64" y1="10" y2="114" gradientUnits="userSpaceOnUse"/><radialGradient id="f" cx="0" cy="0" r="1" gradientTransform="rotate(45 -90.333 -25.438)scale(31.32432 35.72783)" gradientUnits="userSpaceOnUse"><stop offset=".579" stop-color="#fff"/><stop offset=".873" stop-color="#e6e6e6"/></radialGradient><clipPath id="e" clipPathUnits="userSpaceOnUse"><rect width="100" height="100" x="-88" y="12" fill="#fff" rx="18.066" style="stroke-width:.0976562"/></clipPath></defs><rect width="104" height="84" x="12" y="32" rx="8" ry="8" style="display:inline;fill:url(#c);fill-opacity:1;stroke:none;stroke-width:.25;stroke-linecap:butt;stroke-linejoin:miter;stroke-miterlimit:4;stroke-dasharray:none;stroke-dashoffset:0;stroke-opacity:1;marker:none;marker-start:none;marker-mid:none;marker-end:none;paint-order:normal"/><rect width="104" height="100" x="12" y="12" rx="8" ry="8" style="display:inline;fill:url(#d);fill-opacity:1;stroke:none;stroke-width:.25;stroke-linecap:butt;stroke-linejoin:miter;stroke-miterlimit:4;stroke-dasharray:none;stroke-dashoffset:0;stroke-opacity:1;marker:none;marker-start:none;marker-mid:none;marker-end:none;paint-order:normal"/><path d="M-14.758 62.049A23.193 23.193 0 0 1-37.95 85.242 23.193 23.193 0 0 1-61.145 62.05 23.193 23.193 0 0 1-37.95 38.855 23.193 23.193 0 0 1-14.758 62.05M-38 23.426c-21.262 0-38.574 17.312-38.574 38.574S-59.262 100.574-38 100.574.574 83.262.574 62-16.738 23.426-38 23.426m0 7.031c17.462 0 31.543 14.08 31.543 31.543 0 17.462-14.08 31.543-31.543 31.543-17.462 0-31.543-14.08-31.543-31.543 0-17.462 14.08-31.543 31.543-31.543" clip-path="url(#e)" style="opacity:1;fill:url(#f);stroke-width:.0976562" transform="translate(102)"/></svg>