<svg xmlns="http://www.w3.org/2000/svg" xmlns:xlink="http://www.w3.org/1999/xlink" xml:space="preserve" width="128" height="128" viewBox="0 0 128 128"><defs><radialGradient id="c" cx="0" cy="0" r="1" gradientTransform="matrix(-6.11707 -39.86645 26.57763 -4.00774 25.332 113.458)" gradientUnits="userSpaceOnUse"><stop offset="0" stop-color="#fff" stop-opacity=".4"/><stop offset="1" stop-opacity=".1"/></radialGradient><radialGradient id="d" cx="0" cy="0" r="1" gradientTransform="matrix(10.54668 -79.94383 59.0614 7.80454 119.954 61.813)" gradientUnits="userSpaceOnUse"><stop offset="0" stop-color="#fff" stop-opacity=".6"/><stop offset="1" stop-color="#fff" stop-opacity=".1"/></radialGradient><radialGradient id="e" cx="0" cy="0" r="1" gradientTransform="matrix(-11.81228 -60.74887 31.4291 -6.11707 72.392 53.474)" gradientUnits="userSpaceOnUse"><stop offset="0" stop-color="#fff" stop-opacity=".8"/><stop offset="1" stop-color="#fff" stop-opacity=".4"/></radialGradient><radialGradient id="f" cx="0" cy="0" r="1" gradientTransform="matrix(-16.24189 -33.11657 37.96805 -18.77309 67.464 129.067)" gradientUnits="userSpaceOnUse"><stop offset="0" stop-color="#fff" stop-opacity=".3"/><stop offset="1" stop-opacity=".3"/></radialGradient><linearGradient id="a"><stop offset="0" style="stop-color:#8858e8;stop-opacity:1"/><stop offset=".039" style="stop-color:#381976;stop-opacity:1"/><stop offset=".237" style="stop-color:#381976;stop-opacity:1"/><stop offset=".266" style="stop-color:#8858e8;stop-opacity:1"/><stop offset=".308" style="stop-color:#381976;stop-opacity:1"/><stop offset=".719" style="stop-color:#381976;stop-opacity:1"/><stop offset=".771" style="stop-color:#8858e8;stop-opacity:1"/><stop offset=".821" style="stop-color:#381976;stop-opacity:1"/><stop offset=".972" style="stop-color:#381976;stop-opacity:1"/><stop offset="1" style="stop-color:#8858e8;stop-opacity:1"/></linearGradient><linearGradient xlink:href="#a" id="b" x1="-96.529" x2="-12.851" y1="189.019" y2="189.019" gradientTransform="translate(118.678 -125.021)scale(1.00002)" gradientUnits="userSpaceOnUse"/></defs><path fill="#6c31e3" d="M90.637 110.288c-.654 4.936-5.484 8.775-10.273 7.446-6.834-1.877-14.744-4.81-21.853-5.358l-10.906-.843a7.17 7.17 0 0 1-4.64-2.152L24.19 90.038A7.17 7.17 0 0 1 22.15 85.2c-.013-.52-.001-4.051-.001-4.051.104-.527.402 1.44.629.936 0 0 11.601-25.524 12.044-26.852.422-1.33 2.025-12.91 2.954-19.112a7.08 7.08 0 0 1 2.32-4.282l22.212-19.997a7.193 7.193 0 0 1 10.463.907l18.647 23.71a7.8 7.8 0 0 1 1.603 4.725c0 4.493.38 13.711 2.869 19.66 2.426 5.758 6.855 12.023 9.176 15.082.234.303.668-2.06.794-1.712 0 0-.039 3.492-.034 3.902a3.64 3.64 0 0 1-.486 1.86 315 315 0 0 1-9.45 14.892c-3.164 4.704-4.62 10.526-5.274 15.42z" style="fill:url(#b);stroke-width:.210941"/><path fill="#6c31e3" d="M90.65 106.288c-.654 4.936-5.484 8.775-10.272 7.446-6.835-1.877-14.745-4.81-21.854-5.358l-10.906-.843a7.17 7.17 0 0 1-4.64-2.152L24.204 86.038a7.17 7.17 0 0 1-1.413-7.953s11.601-25.524 12.044-26.853c.422-1.328 2.025-12.91 2.954-19.11a7.08 7.08 0 0 1 2.32-4.283L62.32 7.842a7.193 7.193 0 0 1 10.463.907l18.647 23.71a7.8 7.8 0 0 1 1.603 4.725c0 4.493.38 13.71 2.869 19.66 2.426 5.758 6.855 12.023 9.176 15.082a3.65 3.65 0 0 1 .274 4.05 315 315 0 0 1-9.45 14.892c-3.164 4.704-4.62 10.526-5.274 15.42z" style="stroke-width:.210942"/><path fill="url(#c)" d="M44.99 106.844c8.732-17.718 8.48-30.416 4.767-39.444-3.417-8.353-9.766-13.606-14.766-16.875a9.5 9.5 0 0 1-.464 1.371L22.778 78.094a7.17 7.17 0 0 0 1.393 7.952l18.794 19.343a7.2 7.2 0 0 0 2.025 1.476z" style="fill:url(#c);stroke-width:.210934"/><path fill="url(#d)" d="M68.72 70.88c2.362.253 4.682.76 6.918 1.603 7.172 2.679 13.711 8.69 19.09 20.313.38-.654.76-1.308 1.181-1.94a324 324 0 0 0 9.45-14.892 3.59 3.59 0 0 0-.274-4.05c-2.32-3.08-6.75-9.324-9.176-15.082-2.489-5.948-2.848-15.187-2.869-19.66a7.66 7.66 0 0 0-1.603-4.724L72.77 8.739a7 7 0 0 0-.317-.359 20.25 20.25 0 0 1 .422 11.39 41.8 41.8 0 0 1-3.712 8.712l-1.519 2.996a36.1 36.1 0 0 0-4.092 14.976c-.253 6.201 1.012 14.006 5.168 24.426" style="fill:url(#d);stroke-width:.210934"/><path fill="url(#e)" d="M68.72 70.88c-4.156-10.42-5.442-18.225-5.168-24.447a36.1 36.1 0 0 1 4.092-14.976c.485-1.013 1.012-2.004 1.519-2.975 1.497-2.932 2.953-5.695 3.712-8.732a20.25 20.25 0 0 0-.422-11.39 7.193 7.193 0 0 0-10.146-.507L40.075 27.85a7.2 7.2 0 0 0-2.3 4.282l-2.7 17.929-.105.485c5.02 3.27 11.39 8.522 14.787 16.875a31 31 0 0 1 1.645 5.23c5.906-1.433 11.75-2.32 17.318-1.75Z" style="fill:url(#e);stroke-width:.210934"/><path fill="url(#f)" d="M80.363 113.742c4.788 1.308 9.619-2.531 10.273-7.467a39.5 39.5 0 0 1 4.092-13.479c-5.4-11.601-11.918-17.634-19.069-20.313-7.593-2.826-15.862-1.898-24.257.148 1.877 8.522.76 19.68-6.412 34.213.843.38 1.708.633 2.636.696 0 0 5.147.422 11.306.865 6.117.422 15.272 3.607 21.431 5.316z" style="fill:url(#f);stroke-width:.210934"/></svg>