<svg xmlns="http://www.w3.org/2000/svg" xmlns:xlink="http://www.w3.org/1999/xlink" xml:space="preserve" width="128" height="128"><defs><radialGradient id="b" cx="0" cy="0" r="1" gradientTransform="matrix(0 373 -432 0 256 -9)" gradientUnits="userSpaceOnUse"><stop stop-color="#0083ff"/><stop offset=".78" stop-color="#19181a"/></radialGradient><radialGradient xlink:href="#b" id="d" cx="28.299" cy="47.701" r="52" fx="28.299" fy="47.701" gradientTransform="matrix(0 1.37313 -1.66508 0 143.427 -26.858)" gradientUnits="userSpaceOnUse"/><linearGradient id="a"><stop offset="0" style="stop-color:#003466;stop-opacity:1"/><stop offset=".036" style="stop-color:#008eff;stop-opacity:1"/><stop offset=".073" style="stop-color:#003966;stop-opacity:1"/><stop offset=".927" style="stop-color:#003966;stop-opacity:1"/><stop offset=".961" style="stop-color:#008eff;stop-opacity:1"/><stop offset="1" style="stop-color:#003966;stop-opacity:1"/></linearGradient><linearGradient xlink:href="#a" id="c" x1="12" x2="116" y1="66" y2="66" gradientUnits="userSpaceOnUse"/><filter id="e" width="452.076" height="182.684" x="23.962" y="154" color-interpolation-filters="sRGB" filterUnits="userSpaceOnUse"><feFlood flood-opacity="0" result="BackgroundImageFix"/><feColorMatrix in="SourceAlpha" result="hardAlpha" values="0 0 0 0 0 0 0 0 0 0 0 0 0 0 0 0 0 0 127 0"/><feOffset dy="12"/><feGaussianBlur stdDeviation="4.2"/><feColorMatrix values="0 0 0 0 0.0588235 0 0 0 0 0.0588235 0 0 0 0 0.0588235 0 0 0 0.75 0"/><feBlend in2="BackgroundImageFix" result="effect1_dropShadow_3_44"/><feBlend in="SourceGraphic" in2="effect1_dropShadow_3_44" result="shape"/></filter></defs><rect width="104" height="100" x="12" y="16" rx="8" ry="8" style="display:inline;fill:url(#c);fill-opacity:1;stroke:none;stroke-width:.25;stroke-linecap:butt;stroke-linejoin:miter;stroke-miterlimit:4;stroke-dasharray:none;stroke-dashoffset:0;stroke-opacity:1;marker:none;marker-start:none;marker-mid:none;marker-end:none;paint-order:normal;enable-background:new"/><rect width="104" height="100" x="12" y="12" rx="8" ry="8" style="display:inline;fill:url(#d);stroke:none;stroke-width:.25;stroke-linecap:butt;stroke-linejoin:miter;stroke-miterlimit:4;stroke-dasharray:none;stroke-dashoffset:0;stroke-opacity:1;marker:none;marker-start:none;marker-mid:none;marker-end:none;paint-order:normal;enable-background:new"/><path d="M91.851 80.1c.897.87 1.481 2.122 1.481 3.589 0 1.267-.455 2.563-1.48 3.56-.884.854-2.08 1.395-3.674 1.395-1.78 0-2.99-.712-3.702-1.395-.912-.854-1.482-2.136-1.482-3.532s.613-2.748 1.467-3.602c.64-.641 1.822-1.396 3.716-1.396 1.481 0 2.72.456 3.674 1.381zm-5.767 1.453c-.413.399-.84 1.097-.84 2.15 0 .869.285 1.567.869 2.136.612.584 1.296.784 2.036.784.968 0 1.652-.356 2.108-.812.37-.356.826-1.025.826-2.121 0-.983-.399-1.71-.826-2.136-.47-.456-1.225-.811-2.094-.811s-1.566.299-2.079.811zm-6.194-2.62v9.498h-2.193v-9.498zm-10.41 0c1.254 0 2.578.185 3.746 1.31.84.811 1.367 1.923 1.367 3.403s-.513 2.577-1.296 3.36c-1.31 1.325-2.947 1.424-3.745 1.424h-3.075v-9.497zm-.81 7.647h.583c.455 0 1.452-.043 2.164-.641.513-.428.926-1.24.926-2.293s-.413-1.68-.784-2.05c-.712-.712-1.637-.812-2.306-.812h-.584zm-5.697-2.022c0 .911-.114 2.036-1.053 3.004-.912.94-1.966 1.082-2.962 1.082s-2.05-.142-2.962-1.082c-.94-.968-1.054-2.093-1.054-3.004v-5.625h2.193V84.5c0 .413.029 1.11.499 1.595.384.413.911.498 1.324.498s.94-.085 1.324-.498c.47-.484.498-1.182.498-1.595v-5.567h2.193zM50.3 80.784v7.647h-2.193v-7.647h-2.064v-1.851h6.322v1.851zm-7.689.47c-.712-.641-1.324-.684-1.595-.684-.299 0-.669.043-.925.328a.85.85 0 0 0-.242.598c0 .228.071.399.213.527.228.213.556.299 1.197.54l.711.271c.413.157.926.37 1.296.726.556.527.698 1.21.698 1.766 0 .982-.342 1.837-.84 2.35-.84.882-2.065.968-2.692.968-.683 0-1.281-.1-1.88-.4-.483-.24-1.039-.683-1.395-1.039l1.14-1.566c.241.242.626.57.882.726.37.227.755.342 1.196.342.285 0 .684-.057.997-.328a.98.98 0 0 0 .342-.769c0-.313-.128-.512-.327-.683-.257-.214-.84-.427-1.11-.527l-.784-.27c-.442-.157-.954-.356-1.324-.755-.499-.527-.57-1.196-.57-1.652 0-.84.256-1.552.826-2.136.67-.683 1.466-.868 2.35-.868.654 0 1.708.114 2.819.94z" style="stroke-width:.195382;fill:#0083ff;fill-opacity:1"/><g fill="#fff" filter="url(#e)" style="fill:none" transform="translate(15.154 12)scale(.19538)"><path d="M460.051 264.536c-2.246-.272-8.521 7.614-13.598 1.994-4.215-4.667 6.209-14.12 7.795-17.766 3.529-8.116-8.338-8.702-13.052-14.866-3.041-4.053 4.852-16.505-5.028-19.798-3.226-1.074-13.203 4.928-9.655 22.155-4.534 17.042-35.626 47.559-43.659 34.838-1.675-2.652 1.841-7.808 9.755-9.455 13.052-2.72 12.027-10.798 5.801-11.602-9.791-1.27-12.509-1.27-24.178-4.001-4.602-.486-4.451-6.599.972-6.514 2.244-.091 7.786.639 19.76 1.087 10.339.386 13.84-6.149 14.466-11.829.259-2.391-2.074-3.024-5.104-2.33-9.591 1.956-11.991 2.461-21.69 2.374-11.577-.106-25.846 3.23-26.107 13.416-.259 10.118 12.974 12.385 19.851 14.322 1.905.452 2.629 1.994 1.361 2.992-2.94 2.348-9.57 5.446-10.359 10.977-1.122 7.838 6.004 13.978 15.044 13.789 12.035-.25 25.331-5.365 38.101-20.69 3.608-4.329 7.657-11.642 10.152-14.865.601-1.162 2.321-1.716 3.081-1.633 2.282.507 5.512 2.234 5.077 4.714-.663 3.792-10.984 15.611-4.111 22.73 4.221 4.372 14.855 7.545 23.327 1.383 7.931-5.767 5.136-11.04 1.994-11.422zM286.55 273.783c-6.79-1.567 10.43-31.621 1.994-38.252-10.895-8.566-21.716 6.232-29.551 16.679-3.089 4.121-5.378 2.312-7.385-3.489-2.234-6.451-15.632-1.737-23.323 2.234-12.269 6.332-34.933 27.514-37.046 16.949-.365-1.824 2.593-5.893 8.109-7.899 6.468-2.353 13.779-4.449 13.779-8.341 0-3.009-1.824-5.121-3.761-5.015-9.026.501-19.511 2.888-31.525-.416-3.192-.788-3.905-6.908 4.204-6.007 2.147.238 6.926.917 25.1.923 9.438.002 12.152-7.045 10.702-12.177-.442-1.2-1.453-1.452-2.778-1.136-8.582 2.208-12.616 1.709-23.879 1.709-11.818 0-27.737 1.631-27.058 13.021.574 9.578 14.021 12.209 20.985 12.997 1.994-.181 2.629 1.722 1.179 2.72-3.143 3.183-6.767 7.586-7.251 11.149-1.051 7.708 2.907 14.698 12.691 14.322 14.878-.571 33.685-27.582 45.068-26.936.966 0 2.376.295 2.287 2.153-1.486 7.015-3.119 11.729-1.306 17.713 1.276 4.215 6.861 6.847 10.878 3.807 6.708-5.077 6.797-7.967 15.492-19.403 1.44-1.892 6.723-10.577 9.162-9.424 2.028.958 1.465 3.771 1.087 5.984-1.828 10.708-6.469 27.631 14.686 25.019 5.032-.62 9.081-4.013 5.257-7.614-2.31-2.176-4.894-.599-7.795-1.27z"/><path d="M183.213 215.043c1.393-7.457.017-7.432-3.674-6.36 0 0-19.328 6.063-23.7 7.267-3.971 1.095-3.846.59-3.081-2.357 0 0 .42-1.565 1.813-7.795 7.03-31.466 2.96-39.819-2.72-44.599-14.379-11.887-66.88 12.783-104.429 42.422-12.508 10.878-19.762 13.416-11.602 22.117 5.198 5.128 9.774 3.739 11.965 1.814 8.001-7.479 20.932-19.684 31.545-27.92 14.32-11.112 33.177-25.2 50.219-29.188 13.522-3.427 17.586.544 15.773 14.322-1.066 11.827-10.152 38.435-10.152 38.435s-13.961 6.245-18.129 7.797c-3.396 1.263-6.952 2.507-7.122 8.049-.365 8.165 5.451 5.043 7.933 3.905 2.682-1.231 8.413-4.153 10.61-5.064 3.463-1.435 3.4-.52 2.538 2.174-1.631 5.258-4.574 13.775-10.152 26.107-7.071 16.862-19.762 39.885-21.393 45.686.18 3.807 4.351 4.351 9.84 4.429 5.051-.388 7.383-3.885 7.383-3.885s6.571-14.099 16.674-38.966c7.339-18.061 12.127-32.984 14.146-39.715 1.276-4.238 1.465-3.954 6.527-5.621 7.181-1.996 10.42-2.841 15.04-4.077 9.999-2.467 12.855-2.046 14.15-8.975zM359.007 271.677c-3.562-2.79-5.96 2.688-11.903 1.924-12.689-1.631 1.535-38.492 8.884-61.459 6.268-19.588 13.205-33.655 19.159-49.533 3.831-10.214-8.41-9.712-12.855-6.748-4.289 2.858-20.012 51.788-26.578 76.95 0 0-1.414 5.279-3.295 17.333-.302 1.956-1.312 9.547-1.748 11.918-1.63 8.884-7.994 13.673-13.479 12.63-6.847-1.306-7.816-11.472-5.983-19.036 2.008-8.291 8.884-17.609 16.742-15.339 3.786.883 5.678.378 5.931-2.144.327-3.258-3.533-5.175-3.533-5.175-15.063-7.58-28.555 4.784-32.012 22.295-4.034 20.437 8.614 36.734 29.134 25.081 6.422-3.648 6.105 4.814 20.54 4.289 10.493-1.023 16.443-8.718 10.996-12.984zM463.549 225.727a10 10 0 0 1-.019-.592v-.582q-.001-.6-.436-1.233-.433-.63-1.369-.78.739-.117 1.153-.384.78-.503.779-1.567 0-1.499-1.234-2.011-.689-.286-2.17-.286h-2.781v7.947h1.401v-3.136h1.104q1.114 0 1.557.257.75.443.749 1.824v.631l.03.256a1 1 0 0 0 .021.09l.019.078h1.313l-.051-.097c-.032-.066-.058-.204-.068-.415zm-2.081-3.777q-.442.178-1.332.178h-1.261v-2.879h1.194q1.162 0 1.686.295.53.297.53 1.164.001.917-.817 1.242"/><path d="M465.521 217.177q-2.12-2.112-5.128-2.111-2.989 0-5.098 2.111-2.121 2.12-2.121 5.107c0 1.991.701 3.724 2.1 5.138q2.108 2.13 5.117 2.13t5.128-2.13 2.119-5.138q0-2.998-2.119-5.107zm-.72 9.547q-1.815 1.834-4.408 1.834-2.592 0-4.408-1.834-1.805-1.835-1.805-4.438c0-1.735.605-3.192 1.816-4.408q1.823-1.835 4.397-1.835c1.716 0 3.192.612 4.408 1.835q1.813 1.824 1.814 4.408c0 1.722-.606 3.215-1.814 4.438"/></g></svg>